<?xml version="1.0" encoding="UTF-8"?>
<svg width="120px" height="120px" viewBox="0 0 120 120" version="1.1" xmlns="http://www.w3.org/2000/svg" xmlns:xlink="http://www.w3.org/1999/xlink">
    <title>Group</title>
    <g id="Symbols" stroke="none" stroke-width="1" fill="none" fill-rule="evenodd">
        <g id="Group">
            <g id="icon-txt" fill="#FFFFFF">
                <rect id="Mask" x="0" y="0" width="120" height="120" rx="60"></rect>
            </g>
            <g id="realmio" transform="translate(20.000000, 20.000000)" fill-rule="nonzero">
                <path d="M57.1506667,3.85306667 C51.9530667,1.3824 46.1378667,0 40,0 C29.2925333,0 19.5674667,4.2072 12.3882667,11.0586667 C4.75546667,18.3429333 70.6602667,10.2746667 57.1506667,3.85306667 Z" id="Path" fill="#FCC397"></path>
                <path d="M71.2497973,15.028 C71.2949333,15.0850667 67.9869333,19.5066667 58.0442667,20.7618667 C37.976,23.2954667 3.52213333,23.5632 3.57380847,23.4493333 C5.69483648,18.7947346 8.68675315,14.5889075 12.3882667,11.0586667 C16.7184,12.4106667 21.4314667,12.7474667 25.8896,11.9258667 C33.2506667,10.5792 39.7997333,6.32586667 47.0810667,4.59253333 C50.3130667,3.81626667 53.8338667,3.58933333 57.1501333,3.8528 C62.6605333,6.47173333 67.4773333,10.3138667 71.2497973,15.028 L71.2497973,15.028 Z" id="Path" fill="#FC9F95"></path>
                <path d="M79.5120106,33.7341333 C79.5373333,33.8952 34.2581333,38.1514667 12.1968,36.9109333 C5.00906667,36.5066667 0.7672,32.1610667 0.815059155,31.9237333 C1.41402749,29.0042572 2.33941237,26.1614605 3.57413333,23.4490667 C9.94746667,19.9605333 17.4461333,17.9472 24.7170667,18.0266667 C33.8352,18.12 42.7802667,21.16 51.8984,20.9333333 C58.6701333,20.7610667 65.4954667,18.6 71.2493333,15.028 C75.4896,20.3272 78.4101333,26.7288 79.5120106,33.7341333 Z" id="Path" fill="#F77C88"></path>
                <path d="M80.0000025,40 C80.0000025,40.2216 79.9946667,40.6637333 79.9946667,40.6637333 C79.9946667,40.6637333 67.4181333,43.8357333 51.2213333,43.6464 C28.5354667,43.3813333 0.00133333333,39.7221333 0.00133333333,39.6552 C0.0220724395,37.0503183 0.29625347,34.4536364 0.82,31.9018667 C6.25546667,35.2554667 12.8469333,36.8981333 19.1912,36.2066667 C24.2362667,35.66 29.0282667,33.7933333 33.7005333,31.8066667 C38.3725333,29.82 43.0181333,27.6866667 47.9565333,26.54 C55.2112,24.86 62.9717333,25.4466667 69.9066667,28.18 C73.2805333,29.5106667 76.6282667,31.4234667 79.5114667,33.7298667 C79.837402,35.8039933 80.0000025,37.9004204 80.0000025,40 Z" id="Path" fill="#F25192"></path>
                <path d="M34.6362667,52.9877333 C22.6354667,55.2037333 2.04026667,52.6477333 1.98826667,52.4896 C0.6984,48.56 0,44.3616 0,40 C0,39.8848 0.000533333333,39.7698667 0.00133333333,39.6549333 C1.8232,38.2101333 3.9512,36.9221333 6.0288,35.9210667 C11.1669333,33.4277333 16.9970667,32.3877333 22.6810667,32.9477333 C28.2984,33.5077333 33.6626667,35.5877333 38.8541333,37.8277333 C43.2274667,39.7149333 47.5730667,41.7536 52.1128,43.1621333 C52.5576,43.3002667 47.8466667,50.548 34.6362667,52.9877333 L34.6362667,52.9877333 Z" id="Path" fill="#D34CA3"></path>
                <path d="M78.5568,50.6853333 C77.7189333,52.1002667 69.7490667,56.868 58.9456,57.6845333 C44.6410667,58.7656 27.7426667,54.4416 33.3482667,52.2410667 C42.1736,48.7744 49.8274667,42.5477333 58.9456,39.9477333 C65.7570667,37.9965333 73.3077333,38.3050667 79.9946667,40.6629333 C79.9418148,44.0510621 79.4586564,47.4187438 78.5568,50.6850667 L78.5568,50.6853333 Z" id="Path" fill="#9A50A5"></path>
                <path d="M74.6858667,59.9357333 C67.7789333,71.9272 17.6845333,74.9344 10.3666667,66.868 C6.64133333,62.7618667 3.75786667,57.8781333 1.98853333,52.4893333 C8.14026667,48.9733333 15.3413333,47.48 22.2632,48.4266667 C31.2216,49.6533333 39.2482667,54.6533333 48.0872,56.6 C55.2216,58.1733333 62.7824,57.68 69.6509333,55.2 C72.756,54.0701333 75.8349333,52.5562667 78.5570667,50.6845333 C77.6622881,53.9192925 76.3615445,57.0277444 74.6858667,59.9357333 L74.6858667,59.9357333 Z" id="Path" fill="#59569E"></path>
                <path d="M74.7434667,59.8354667 C67.8506667,71.8821333 54.8736,80 40,80 C28.2488,80 17.6808,74.9325333 10.3626667,66.8637333 C11.5770667,67.3277333 12.9354667,67.7293333 14.1802667,68.08 C21.1421333,70 28.6362667,69.9466667 35.5581333,67.9066667 C39.9906667,66.6 44.1570667,64.52 48.5098667,62.9466667 C56.8157333,59.9514667 65.9578667,58.8968 74.7434667,59.8354667 Z" id="Path" fill="#39477F"></path>
            </g>
        </g>
    </g>
</svg>