<?xml version="1.0" encoding="UTF-8"?>
<svg width="120px" height="120px" viewBox="0 0 120 120" version="1.1" xmlns="http://www.w3.org/2000/svg" xmlns:xlink="http://www.w3.org/1999/xlink">
    <title>icon txt</title>
    <g id="Symbols" stroke="none" stroke-width="1" fill="none" fill-rule="evenodd">
        <g id="icon-txt">
            <rect id="Mask" fill="#FFFFFF" x="0" y="0" width="120" height="120" rx="60"></rect>
            <g id="Laravel" transform="translate(25.000000, 24.000000)" fill="#FF2D20">
                <path d="M69.9006819,16.2882861 C69.9266156,16.3842741 69.9401213,16.4832436 69.9401213,16.5826729 L69.9401213,32.037279 C69.9401213,32.441036 69.724129,32.8139434 69.3738843,33.0148124 L56.4025512,40.4829424 L56.4025512,55.28539 C56.4025512,55.6882352 56.1884516,56.0600923 55.8391313,56.2629234 L28.7625826,71.8499332 C28.7006064,71.8851469 28.632996,71.9076837 28.5653857,71.931629 C28.5400318,71.9400803 28.5160864,71.9555744 28.489324,71.9626171 C28.3000487,72.012461 28.101094,72.012461 27.9118187,71.9626171 C27.8808306,71.9541658 27.8526596,71.9372632 27.82308,71.9259948 C27.7611038,71.903458 27.6963106,71.8837383 27.6371515,71.8499332 L0.566236935,56.2629234 C0.216205624,56.0618402 0,55.6890685 0,55.28539 L0,8.92157172 C0,8.82015615 0.0140854959,8.72155768 0.0394393885,8.62577631 C0.047890686,8.59337967 0.0676103803,8.56380013 0.078878777,8.53140349 C0.100007021,8.4722444 0.119726715,8.41167677 0.150714806,8.35674334 C0.17184305,8.32012105 0.202831141,8.29054151 0.228185033,8.25673632 C0.260581674,8.21166273 0.290161215,8.16518059 0.328192054,8.12574121 C0.360588695,8.09334457 0.402845182,8.06939922 0.439467472,8.04122823 C0.48031541,8.00742304 0.516937699,7.97080075 0.563419836,7.94403831 L0.564828385,7.94403831 L14.1009899,0.150533434 C14.4497903,-0.0501778113 14.8790292,-0.0501778113 15.2278296,0.150533434 L28.7639912,7.94403831 L28.7668083,7.94403831 C28.8118818,7.9722093 28.8499127,8.00742304 28.8907606,8.03981968 C28.9273829,8.06799067 28.9682308,8.09334457 29.0006275,8.12433266 C29.0400669,8.16518059 29.0682379,8.21166273 29.1020431,8.25673632 C29.1259884,8.29054151 29.158385,8.32012105 29.1781047,8.35674334 C29.2105014,8.41308532 29.2288125,8.4722444 29.2513493,8.53140349 C29.2626177,8.56380013 29.2823374,8.59337967 29.2907887,8.62718486 C29.3167224,8.7231729 29.3299814,8.82214236 29.3302281,8.92157172 L29.3302281,37.8799427 L40.6098932,31.3851206 L40.6098932,16.5812644 C40.6098932,16.4826659 40.6239787,16.3826589 40.6493326,16.2882861 C40.6591924,16.2544809 40.6775036,16.2249013 40.688772,16.1925047 C40.7113088,16.1333456 40.7310285,16.072778 40.7620166,16.0178446 C40.7831448,15.9812223 40.8141329,15.9516427 40.8380782,15.9178375 C40.8718834,15.8727639 40.9000544,15.8262818 40.9394938,15.7868424 C40.9718904,15.7544458 41.0127384,15.7305004 41.0493607,15.7023294 C41.0916172,15.6685243 41.1282394,15.631902 41.173313,15.6051395 L41.1747216,15.6051395 L54.7122917,7.81163465 C55.0610148,7.61063421 55.4904083,7.61063421 55.8391313,7.81163465 L69.3752929,15.6051395 C69.4231836,15.6333105 69.4598059,15.6685243 69.5020624,15.7009209 C69.5372761,15.7290919 69.578124,15.7544458 69.6105207,15.7854339 C69.6499601,15.8262818 69.6781311,15.8727639 69.7119362,15.9178375 C69.7372901,15.9516427 69.7682782,15.9812223 69.7879979,16.0178446 C69.8203946,16.072778 69.8387057,16.1333456 69.8612425,16.1925047 C69.8739195,16.2249013 69.8922306,16.2544809 69.9006819,16.2882861 Z M67.6836248,31.3851206 L67.6836248,18.5335141 L62.9466726,21.2604661 L56.4025512,25.0283363 L56.4025512,37.8799427 L67.6850334,31.3851206 L67.6836248,31.3851206 Z M54.1474633,54.6332315 L54.1474633,41.7731738 L47.7103917,45.4494882 L29.3288195,55.9403655 L29.3288195,68.9215586 L54.1474633,54.6332315 Z M2.25649644,10.8724129 L2.25649644,54.6332315 L27.0723231,68.92015 L27.0723231,55.9417741 L14.1080327,48.6046393 L14.103807,48.6018222 L14.0981728,48.5990051 C14.0545078,48.5736512 14.0178855,48.5370289 13.9770376,48.5060408 C13.9418238,48.4778698 13.9009759,48.455333 13.8699878,48.4243449 L13.8671707,48.4201193 C13.8305484,48.3849056 13.8051945,48.3412405 13.7742064,48.3018011 C13.7460354,48.2637703 13.7122302,48.2313736 13.6896935,48.1919343 L13.6882849,48.1877086 C13.662931,48.1454521 13.647437,48.0947443 13.6291258,48.0468537 C13.6108147,48.0045972 13.5868693,47.9651578 13.5756009,47.9200842 L13.5756009,47.9186756 C13.5615154,47.8651508 13.5586983,47.8088088 13.5530641,47.7538753 C13.5474299,47.7116188 13.5361615,47.6693624 13.5361615,47.6271059 L13.5361615,47.6242888 L13.5361615,17.3672351 L6.99344871,13.5979564 L2.25649644,10.8738215 L2.25649644,10.8724129 Z M14.6658183,2.42956667 L3.38756176,8.92157172 L14.6630012,15.4135768 L25.9398492,8.92016317 L14.6630012,2.42956667 L14.6658183,2.42956667 Z M20.5310188,42.945087 L27.0737316,39.1786254 L27.0737316,10.8724129 L22.3367794,13.5993649 L15.792658,17.3672351 L15.792658,45.6734476 L20.5310188,42.945087 Z M55.2757115,10.0906679 L43.9988635,16.5826729 L55.2757115,23.074678 L66.551151,16.5812644 L55.2757115,10.0906679 Z M54.1474633,25.0283363 L47.6033419,21.2604661 L42.8663896,18.5335141 L42.8663896,31.3851206 L49.4091025,35.1515822 L54.1474633,37.8799427 L54.1474633,25.0283363 Z M28.1991628,53.9895244 L44.7397606,44.5466079 L53.0079467,39.8279668 L41.73955,33.3401874 L28.7653997,40.8097259 L16.9406259,47.617246 L28.1991628,53.9895244 Z" id="Shape"></path>
            </g>
        </g>
    </g>
</svg>