<?xml version="1.0" encoding="UTF-8"?>
<svg width="120px" height="120px" viewBox="0 0 120 120" version="1.1" xmlns="http://www.w3.org/2000/svg" xmlns:xlink="http://www.w3.org/1999/xlink">
    <title>icon txt 2</title>
    <g id="Symbols" stroke="none" stroke-width="1" fill="none" fill-rule="evenodd">
        <g id="icon-txt">
            <rect id="Mask" fill="#FFFFFF" x="0" y="0" width="120" height="120" rx="60"></rect>
            <g id="mysql-official" transform="translate(12.000000, 35.000000)">
                <path d="M0,45.1553181 L3.16267169,45.1553181 L3.16267169,32.6705696 L8.05878935,43.558279 C8.63629217,44.8707854 9.42754603,45.3423502 10.9781786,45.3423502 C12.5288112,45.3423502 13.2891274,44.8759417 13.8675677,43.558279 L18.7641541,32.6705696 L18.7641541,45.1600056 L21.9272946,45.1600056 L21.9272946,32.6911947 C21.9272946,31.4747825 21.4397922,30.8864984 20.4366623,30.5827469 C18.0343068,29.8327433 16.4222677,30.4814964 15.6928891,32.1033793 L10.8881782,42.8485881 L6.23440544,32.0986918 C5.53502703,30.4768089 3.89298776,29.8280557 1.49063228,30.5780594 C0.486564876,30.8822796 0,31.4705637 0,32.6865072 L0,45.1553181 Z M24.5560574,34.9899559 L27.7177916,34.9899559 L27.7177916,41.8712395 C27.6882602,42.2453039 27.8377922,43.1228081 29.5703006,43.149527 C30.4543675,43.1635896 36.3925214,43.149527 36.4478342,43.149527 L36.4478342,34.955737 L39.6165997,34.955737 C39.6306623,34.955737 39.6133184,46.1279791 39.6137872,46.1757918 C39.631131,48.9311178 36.194708,49.5297144 34.6112628,49.5761209 L24.624964,49.5761209 L24.624964,47.4479855 L34.6290753,47.4475168 C36.6643978,47.2318907 36.4243966,46.220792 36.4243966,45.8800091 L36.4243966,45.0503176 L29.7024888,45.0503176 C26.5749735,45.0221924 24.5837138,43.656717 24.5588699,42.0863968 C24.5565262,41.9457711 24.6263702,35.0574563 24.5569949,34.9894872 L24.5560574,34.9899559 Z" id="Shape" fill="#00618A" fill-rule="nonzero"></path>
                <path d="M42.0545803,45.1553181 L51.1474372,45.1553181 C52.2115049,45.1553181 53.2460412,44.9326607 54.067764,44.5468776 C55.4365207,43.9187495 56.1054302,43.0670266 56.1054302,41.9518649 L56.1054302,39.6409161 C56.1054302,38.7282554 55.345114,37.8770013 53.8554192,37.3093423 C53.0646341,37.0046533 52.0915044,36.8429337 51.1488435,36.8429337 L47.3167935,36.8429337 C46.0399123,36.8429337 45.4314718,36.4576193 45.2795961,35.6063652 C45.2491272,35.5051147 45.2491272,35.4188643 45.2491272,35.3223013 L45.2491272,33.8832318 C45.2491272,33.8021376 45.2491272,33.7205747 45.2795961,33.6193242 C45.4314718,32.9705711 45.766161,32.7877577 46.8911665,32.6818197 C46.9825732,32.6818197 47.10398,32.6611946 47.1958554,32.6611946 L56.2277745,32.6611946 L56.2277745,30.5532155 L47.3477312,30.5532155 C46.0703812,30.5532155 45.4014717,30.6343097 44.7930312,30.8166543 C42.9058345,31.4049384 42.0845805,32.342443 42.0845805,33.9643259 L42.0845805,35.8093349 C42.0845805,37.2287169 43.6970884,38.4451291 46.4027266,38.7287242 C46.7074156,38.7488805 47.011167,38.7690369 47.3149185,38.7690369 L50.5994658,38.7690369 C50.7213414,38.7690369 50.843217,38.7690369 50.934155,38.789662 C51.9372849,38.8707561 52.3638494,39.0531008 52.6676009,39.4177901 C52.8551018,39.605291 52.9113521,39.7834168 52.9113521,39.9802928 L52.9113521,41.8253018 C52.9113521,42.0484279 52.7594764,42.3324918 52.4552561,42.5753055 C52.1815048,42.8190567 51.7254088,42.9807762 51.1169683,43.0215576 C50.9950927,43.0215576 50.9041548,43.041714 50.782748,43.041714 L42.0545803,43.041714 L42.0545803,45.1501618 L42.0545803,45.1553181 Z M75.8347453,41.4859252 C75.8347453,43.6553107 77.4463157,44.8717229 80.700394,45.1150054 C81.0039303,45.1384978 81.3081607,45.1519427 81.612586,45.1553181 L89.8541887,45.1553181 L89.8541887,43.0468703 L81.5516482,43.0468703 C79.6967954,43.0468703 78.9969482,42.5804617 78.9969482,41.4653001 L78.9969482,30.5574343 L75.8342765,30.5574343 L75.8342765,41.4849876 L75.8347453,41.4859252 Z M58.1229401,41.5956132 L58.1229401,34.0791702 C58.1229401,32.1694734 59.4635716,31.0111865 62.1148345,30.6455597 C62.3975776,30.6051758 62.68282,30.5848126 62.9684325,30.5846219 L68.971743,30.5846219 C69.2674749,30.5848045 69.5628498,30.6051644 69.8558098,30.6455597 C72.5070728,31.0111865 73.8477043,32.1690047 73.8477043,34.0791702 L73.8477043,41.5956132 C73.8477043,43.1448395 73.2781703,43.9740623 71.9656639,44.5145337 L75.0809916,47.3270474 L71.4087862,47.3270474 L68.8883051,45.0517238 L66.350949,45.2125058 L62.9684325,45.2125058 C62.3895234,45.2125058 61.7801454,45.1309429 61.1093609,44.9481296 C59.093726,44.3996894 58.1234088,43.3431217 58.1234088,41.5956132 L58.1229401,41.5956132 Z M61.536863,41.4081123 C61.536863,41.5098315 61.5673319,41.611082 61.5978008,41.7334264 C61.7853017,42.6071806 62.6032744,43.094683 63.8478118,43.094683 L66.7212633,43.094683 L64.0821879,40.7120151 L67.7543933,40.7120151 L70.0512795,42.789994 C70.4755004,42.5640554 70.754408,42.2181162 70.8481584,41.7742078 C70.8786273,41.6729573 70.8786273,41.5712381 70.8786273,41.4695188 L70.8786273,34.2624524 C70.8786273,34.1813582 70.8786273,34.0749515 70.8481584,33.9779197 C70.6606575,33.165572 69.842216,32.698226 68.6234601,32.698226 L63.8534368,32.698226 C62.4471799,32.698226 61.5378005,33.307604 61.5378005,34.2624524 L61.5378005,41.4137373 L61.536863,41.4081123 Z" id="Shape" fill="#E48E00" fill-rule="nonzero"></path>
                <path d="M59.9670116,1.24119739 C60.9940478,-1.25865856 64.5504714,0.645881987 65.9370407,1.52244877 C66.2857924,1.74276234 66.6720443,2.19745206 67.0432961,2.35214032 L67.0432961,2.35214032 L68.86768,2.46276586 C70.0011231,2.73136092 71.0731595,2.93761193 71.9637889,3.45792697 C76.1488093,5.90575142 78.8511663,8.39670108 81.3613348,12.5235962 C81.8835248,13.3837567 82.1577449,14.3292301 82.5772782,15.2878285 C83.1922812,16.6936166 83.873847,18.1533112 84.5676004,19.4892552 C84.8990083,20.1220708 85.1329157,20.8167617 85.5622928,21.3642644 C85.7436999,21.595828 86.2269835,21.6680159 86.5021411,21.8067666 C87.3201139,22.2197373 88.273556,22.5356764 89.0451223,23.0231788 C90.4359103,23.9020893 91.7873232,24.9544382 93.0248292,26.0091308 C93.4978003,26.411789 93.8071768,27.0010107 94.2412414,27.4463253 L94.2412414,27.4463253 L94.2412414,27.6675764 L93.080142,27.999453 C92.2213878,28.2207041 91.4784154,28.1635164 90.6473176,28.3861737 C90.1518464,28.5183618 89.5241871,28.7119565 88.9879345,28.7728943 L88.9879345,28.7728943 L89.0432473,28.8282071 C89.3587176,29.7085239 91.0513821,30.4416525 91.8074795,30.9844676 C92.7557654,31.6655647 93.6473323,32.4797874 94.3504607,33.417292 L94.3504607,33.417292 L95.069058,34.1358893 C95.2321838,34.3716717 95.2776527,34.6829232 95.4557786,34.9093305 L95.4557786,34.9093305 L95.4557786,34.9646433 C95.1182769,34.8451115 94.9424948,34.5479225 94.6823373,34.3566716 C94.1554597,33.9694822 93.6192071,33.5382301 93.0792045,33.1960409 C92.1632625,32.6152568 91.1010698,32.283849 90.1495027,31.7035336 C89.6137188,31.3768133 89.0999663,30.9736863 88.6012139,30.5972782 C88.1451179,30.2532141 87.6327716,29.5955546 87.3294889,29.1047709 C87.1724569,28.8493009 87.1410505,28.5389869 86.9427683,28.3313297 C87.0018311,27.8789837 87.5769901,27.8752337 87.9379294,27.7228892 C89.2073106,27.1875741 90.6927866,27.0071045 92.6367023,27.0596047 L92.6332646,27.059 L92.6114079,26.9734648 C92.4345186,26.5301374 91.4949191,26.0283873 91.0684015,25.7523003 L90.979663,25.692723 C90.1945029,25.1395953 89.3835614,24.5381861 88.5468386,24.0333399 C88.1085552,23.7694324 87.3510515,23.5655251 86.888393,23.3700554 C86.2288585,23.0916166 84.7766639,22.8216153 84.4007246,22.3200503 C83.6854086,21.3647332 83.1932187,20.206915 82.6869662,19.0584719 C82.1797763,17.9081538 81.5380544,16.6926791 81.0285206,15.5207984 C80.7758632,14.9376705 80.6521126,14.4121992 80.3652362,13.8623528 C78.58304,10.4413986 75.9781835,7.57732208 72.7916054,5.56543726 C71.7453503,4.90543404 70.5940947,4.29746232 69.3087759,3.90699166 C68.5822099,3.68667808 67.7103306,3.80949118 66.9322018,3.63042781 L66.9322018,3.63042781 L66.4353244,3.63042781 C65.9998535,3.50198968 65.635633,3.0351124 65.2746937,2.80073626 C64.5237526,2.30339008 63.7831239,1.95276337 62.8971821,1.58432407 C62.5634305,1.44510464 61.6699886,1.11604053 61.3493621,1.36307299 C61.1835438,1.39962483 61.0540373,1.5291314 61.0174854,1.69494961 C60.8299845,1.97760724 61.0015479,2.41589063 61.128111,2.69011072 C61.4829565,3.45698946 61.9962402,3.92761676 62.45468,4.56511987 C62.869057,5.13699767 63.3724969,5.79231337 63.6706234,6.44012903 C64.2940639,7.7962294 64.5706278,9.30092425 65.1631307,10.6415558 C65.3904755,11.1562458 65.7195396,11.7440612 66.0476662,12.1893759 C66.3134488,12.5456276 66.7882949,12.8235977 66.9322018,13.2956313 C67.2336095,13.7686023 66.4882934,15.3820477 66.3242301,15.8939252 C65.6876645,17.8729974 65.8217276,20.6414484 66.5454812,22.3617693 C66.8314201,23.0419288 67.1023589,23.834589 67.8720502,24.0202149 C67.9287692,23.9756834 67.885644,23.9995898 67.9826757,23.9649021 C68.1462702,22.6402081 68.203458,21.3633269 68.6459602,20.3161343 C68.922524,19.6608186 69.4494016,19.2126914 69.8070596,18.6576887 C70.0695609,18.8090957 70.0681546,19.2501916 70.1937802,19.5422243 C70.5195631,20.2992592 70.856596,21.1200445 71.2437854,21.8639543 C72.0547268,23.4225557 72.9444187,24.918813 73.9522361,26.2866322 C74.3098941,26.7722596 74.7913027,27.2996059 75.2239611,27.7238267 C75.4081807,27.9033588 75.6331818,27.995703 75.7770888,28.2207041 L75.7770888,28.2207041 L75.8324015,28.2207041 L75.8324015,28.2760169 C75.0945854,28.0224219 74.6375519,27.2724182 74.0633304,26.8388224 C72.9561375,26.0020995 71.6483186,24.7622497 70.9123775,23.5763065 L70.9123775,23.5763065 L69.9172164,21.586453 L69.9172164,21.5311402 C69.7784657,21.7162974 69.8215909,21.9178609 69.7512781,22.1944247 C69.4339328,23.4113056 69.6823715,24.7894374 68.5901787,25.234752 C67.3409538,25.743817 66.4329806,24.4163106 66.0471975,23.7975575 C64.7904726,21.7809852 64.4646898,18.3951874 65.3286002,15.6707991 C65.5207887,15.0651711 65.5404763,14.3245425 65.8817279,13.8464152 C65.8268839,13.4170381 65.4776635,13.2946937 65.2737562,13.0167236 C64.9414108,12.5639089 64.6517219,12.0304688 64.3892207,11.5242164 C63.8693744,10.5234302 63.5196852,9.34076819 63.1179644,8.26263793 C62.9548386,7.82294828 62.9215572,7.4062275 62.7307751,6.99091297 C62.4410861,6.35856613 61.9207711,5.72903181 61.5148316,5.16652906 C60.9359225,4.36496265 59.3187271,2.82229886 59.9670116,1.24119739 Z M67.9262646,5.997 L68.0544735,6.1063249 C68.2386894,6.24591558 68.4628655,6.36606617 68.5892412,6.54981706 C68.7083042,6.72231791 68.7284606,6.90325629 68.865805,7.047632 C68.8681488,7.63685362 68.7111168,8.02263676 68.3689276,8.26404419 L68.3689276,8.26404419 L68.3136148,8.31935696 L67.7604871,7.15872629 C67.5214234,6.81653712 67.1801718,6.56106712 66.9870458,6.16356518 L66.9870458,6.16356518 L66.9317331,6.16356518 L66.9317331,6.10825241 C67.2350158,6.04168958 67.5214234,5.99012683 67.9268942,5.99762687 L67.9262646,5.997 Z" id="Combined-Shape" fill="#00618A" fill-rule="nonzero"></path>
                <path d="M91.3387272,42.98687 C91.3387272,44.3790643 92.4388889,45.3175064 93.6693636,45.3175064 C94.8998384,45.3175064 96,44.3790643 96,42.98687 C96,41.5946757 94.8998384,40.6562336 93.6693636,40.6562336 C92.4388889,40.6562336 91.3387272,41.5946757 91.3387272,42.98687 Z M95.47781,42.98687 C95.47781,44.0434376 94.6701498,44.8328165 93.6684261,44.8328165 C92.6559212,44.8328165 91.8590423,44.0434376 91.8590423,42.98687 C91.8590423,41.9303023 92.6549837,41.1409235 93.6684261,41.1409235 C94.6692123,41.1409235 95.47781,41.9303023 95.47781,42.98687 Z M94.2965542,44.317189 L94.8182755,44.317189 L94.0542092,43.1490583 C94.4643675,43.1054643 94.7746815,42.9062446 94.7746815,42.4215547 C94.7746815,41.8806146 94.4324923,41.6574885 93.7743641,41.6574885 L92.7360778,41.6574885 L92.7360778,44.3176577 L93.1837362,44.3176577 L93.1837362,43.1678084 L93.5999883,43.1678084 L94.2960854,44.3176577 L94.2965542,44.317189 Z M93.1837362,42.793744 L93.1837362,42.0296778 L93.6993638,42.0296778 C93.9665526,42.0296778 94.2899917,42.0793655 94.2899917,42.3906171 C94.2899917,42.7632751 93.997959,42.7946815 93.6618636,42.7946815 L93.1837362,42.7946815 L93.1837362,42.793744 Z" id="Shape" fill="#E48E00"></path>
            </g>
        </g>
    </g>
</svg>