<?xml version="1.0" encoding="UTF-8"?>
<svg width="120px" height="120px" viewBox="0 0 120 120" version="1.1" xmlns="http://www.w3.org/2000/svg" xmlns:xlink="http://www.w3.org/1999/xlink">
    <title>Group</title>
    <g id="Symbols" stroke="none" stroke-width="1" fill="none" fill-rule="evenodd">
        <g id="Group">
            <g id="icon-txt" fill="#FFFFFF">
                <rect id="Mask" x="0" y="0" width="120" height="120" rx="60"></rect>
            </g>
            <g id="adobe-xd-seeklogo.com" transform="translate(23.000000, 24.000000)">
                <path d="M13.0769231,0 L60.7692308,0 C68,0 73.8461538,5.84615385 73.8461538,13.0769231 L73.8461538,58.9230769 C73.8461538,66.1538462 68,72 60.7692308,72 L13.0769231,72 C5.84615385,72 0,66.1538462 0,58.9230769 L0,13.0769231 C0,5.84615385 5.84615385,0 13.0769231,0 Z" id="Path" fill="#470137"></path>
                <path d="M38.8307692,18.9230769 L29.6,34.1538462 L39.4461538,50.3076923 C39.5076923,50.4307692 39.5384615,50.5538462 39.5076923,50.6769231 C39.4769231,50.8 39.3538462,50.7076923 39.1692308,50.7384615 L32.1230769,50.7384615 C31.6307692,50.7384615 31.2923077,50.7076923 31.0769231,50.4 C30.4307692,49.1076923 29.7538462,47.8461538 29.1076923,46.5538462 C28.4615385,45.2923077 27.7538462,44 27.0153846,42.6769231 C26.2769231,41.3538462 25.5384615,40.0307692 24.8,38.6769231 L24.7384615,38.6769231 C24.0923077,40 23.3846154,41.3230769 22.6769231,42.6461538 C21.9692308,43.9692308 21.2615385,45.2923077 20.5846154,46.5846154 C19.8769231,47.8769231 19.1692308,49.2 18.4615385,50.4615385 C18.3384615,50.7692308 18.0923077,50.8 17.7538462,50.8 L10.9846154,50.8 C10.8615385,50.8 10.7692308,50.8615385 10.7692308,50.7076923 C10.7384615,50.5846154 10.7692308,50.4615385 10.8307692,50.3692308 L20.4,34.6769231 L11.0769231,18.8923077 C10.9846154,18.7692308 10.9538462,18.6461538 11.0153846,18.5846154 C11.0769231,18.4923077 11.2,18.4615385 11.3230769,18.4615385 L18.3076923,18.4615385 C18.4615385,18.4615385 18.6153846,18.4923077 18.7384615,18.5230769 C18.8615385,18.5846154 18.9538462,18.6769231 19.0461538,18.8 C19.6307692,20.1230769 20.3076923,21.4461538 21.0153846,22.7692308 C21.7538462,24.0923077 22.4615385,25.3846154 23.2307692,26.6769231 C23.9692308,27.9692308 24.6461538,29.2615385 25.2923077,30.5846154 L25.3538462,30.5846154 C26,29.2307692 26.6769231,27.9076923 27.3538462,26.6153846 C28.0307692,25.3230769 28.7384615,24.0307692 29.4461538,22.7384615 C30.1538462,21.4461538 30.8307692,20.1230769 31.5076923,18.8615385 C31.5384615,18.7384615 31.6,18.6153846 31.6923077,18.5538462 C31.8153846,18.4923077 31.9384615,18.4615385 32.0923077,18.4923077 L38.5846154,18.4923077 C38.7384615,18.4615385 38.8923077,18.5538462 38.9230769,18.7076923 C38.9538462,18.7384615 38.8923077,18.8615385 38.8307692,18.9230769 L38.8307692,18.9230769 Z" id="Path" fill="#FF61F6"></path>
                <path d="M53.0461538,51.3846154 C50.7692308,51.4153846 48.4923077,50.9538462 46.4307692,50 C44.4923077,49.1076923 42.8923077,47.6307692 41.7846154,45.8153846 C40.6461538,43.9384615 40.0923077,41.6 40.0923077,38.8 C40.0615385,36.5230769 40.6461538,34.2769231 41.7846154,32.3076923 C42.9538462,30.3076923 44.6461538,28.6461538 46.6769231,27.5384615 C48.8307692,26.3384615 51.4153846,25.7538462 54.4615385,25.7538462 C54.6153846,25.7538462 54.8307692,25.7538462 55.1076923,25.7846154 C55.3846154,25.8153846 55.6923077,25.8153846 56.0615385,25.8461538 L56.0615385,16.1230769 C56.0615385,15.9076923 56.1538462,15.7846154 56.3692308,15.7846154 L62.6153846,15.7846154 C62.7692308,15.7538462 62.8923077,15.8769231 62.9230769,16 L62.9230769,45.3538462 C62.9230769,45.9076923 62.9538462,46.5230769 62.9846154,47.2 C63.0461538,47.8461538 63.0769231,48.4615385 63.1076923,48.9846154 C63.1076923,49.2 63.0153846,49.3846154 62.8,49.4769231 C61.2,50.1538462 59.5076923,50.6461538 57.7846154,50.9538462 C56.2153846,51.2307692 54.6461538,51.3846154 53.0461538,51.3846154 L53.0461538,51.3846154 Z M56.0615385,45.2307692 L56.0615385,31.6923077 C55.7846154,31.6307692 55.5076923,31.5692308 55.2307692,31.5384615 C54.8923077,31.5076923 54.5538462,31.4769231 54.2153846,31.4769231 C53.0153846,31.4769231 51.8153846,31.7230769 50.7384615,32.2769231 C49.6923077,32.8 48.8,33.5692308 48.1230769,34.5538462 C47.4461538,35.5384615 47.1076923,36.8615385 47.1076923,38.4615385 C47.0769231,39.5384615 47.2615385,40.6153846 47.6307692,41.6307692 C47.9384615,42.4615385 48.4,43.2 49.0153846,43.8153846 C49.6,44.3692308 50.3076923,44.8 51.1076923,45.0461538 C51.9384615,45.3230769 52.8,45.4461538 53.6615385,45.4461538 C54.1230769,45.4461538 54.5538462,45.4153846 54.9538462,45.3846154 C55.3538462,45.4153846 55.6923077,45.3538462 56.0615385,45.2307692 L56.0615385,45.2307692 Z" id="Shape" fill="#FF61F6"></path>
            </g>
        </g>
    </g>
</svg>