<?xml version="1.0" encoding="UTF-8"?>
<svg width="120px" height="120px" viewBox="0 0 120 120" version="1.1" xmlns="http://www.w3.org/2000/svg" xmlns:xlink="http://www.w3.org/1999/xlink">
    <title>Group</title>
    <g id="Symbols" stroke="none" stroke-width="1" fill="none" fill-rule="evenodd">
        <g id="Group">
            <g id="icon-txt" fill="#FFFFFF">
                <rect id="Mask" x="0" y="0" width="120" height="120" rx="60"></rect>
            </g>
            <path d="M59.8897566,100 C38.3960148,100 20.1685217,81.8450069 20.0010218,60.2125151 C19.9251938,49.6730487 24.0725871,39.5420289 31.5172674,32.0812758 C39.0110914,24.4063538 49.2682094,20.0548901 59.9947566,20.0000152 C70.5265961,19.9907977 80.6265852,24.1852156 88.053496,31.6525259 C95.6011286,39.0152294 99.9008133,49.0839688 100.000161,59.6275153 C100.099741,81.7500069 82.3222481,99.7750001 60.2147565,100 L59.8897566,100 Z M60.0147566,22.0937796 C49.8499716,22.1530624 40.132677,26.2823723 33.0347668,33.5587752 C25.9743785,40.6179076 22.0341215,50.2099329 22.092859,60.1937651 C22.2510209,80.6937573 39.5260144,97.8850008 59.8785067,97.8850008 L60.1510065,97.8850008 C81.1134986,97.6950009 97.9859922,80.6037574 97.9050344,59.6387653 C97.8097423,49.6487691 93.7322438,40.1112727 86.5759965,33.1387754 C79.5545641,26.0545453 69.9890521,22.0764555 60.0147566,22.0924811 L60.0147566,22.0937796 Z M28.9747684,71.7000107 L28.9747684,48.3312696 L34.6597662,48.3312696 L34.6597662,50.4250188 L31.6435174,50.4250188 L31.6435174,69.6475115 L34.6585162,69.6475115 L34.6585162,71.7412607 L28.9747684,71.7000107 Z M48.2685111,59.7850153 C48.2685111,64.0350137 45.681012,66.4750127 42.1747634,66.4750127 C38.6685147,66.4750127 36.3322656,63.7425138 36.3322656,60.0050152 C36.3322656,56.1000167 38.7822647,53.3462677 42.3622633,53.3462677 C45.9422619,53.3462677 48.2672611,56.2150166 48.2672611,59.7837653 L48.2685111,59.7850153 Z M38.7835147,59.9725152 C38.7835147,62.5600142 40.0835142,64.5975134 42.3122633,64.5975134 C44.5410125,64.5975134 45.819762,62.5037642 45.819762,59.8650152 C45.819762,57.4675161 44.6372624,55.206267 42.3122633,55.206267 C39.9872642,55.206267 38.7497647,57.4087662 38.7497647,60.0250152 L38.7835147,59.9725152 Z M50.2497603,53.7875175 C51.3631315,53.5952979 52.4911746,53.5007715 53.621009,53.5050177 C54.8897585,53.3800177 56.1660081,53.6637676 57.2647576,54.3112673 C58.1022573,54.8050172 58.6085071,55.7150168 58.5835071,56.6862664 C58.5534905,57.9600123 57.7091141,59.0705563 56.4897579,59.4400154 C57.9835074,59.7437653 59.056007,61.0575148 59.054757,62.5812642 C59.0704901,63.5956813 58.6187382,64.5609553 57.8297574,65.1987632 C56.9297578,65.9950129 55.4322583,66.3812628 53.1172592,66.3812628 C52.1654983,66.3859811 51.2144042,66.3300344 50.2697603,66.2137628 L50.2497603,53.7875175 Z M52.5535094,58.8025156 L53.736009,58.8025156 C55.3360084,58.8025156 56.238508,58.0487659 56.238508,56.9700163 C56.238508,55.8912667 55.3385084,55.220017 53.8635089,55.220017 C53.4218543,55.2049288 52.9798379,55.2363517 52.5447594,55.313767 L52.5535094,58.8025156 Z M52.5535094,64.6450134 C52.9610093,64.6875134 53.3697591,64.7050134 53.778509,64.6975134 C55.2785084,64.6975134 56.5847579,64.1325136 56.5847579,62.6037642 C56.5847579,61.0750148 55.3072584,60.510015 53.706009,60.510015 L52.5560094,60.510015 L52.5535094,64.6450134 Z M63.6160052,53.6200176 L65.9285044,53.6200176 L65.9285044,61.8700145 C65.9285044,65.3775131 64.232255,66.5500127 61.7410059,66.5500127 C61.074725,66.5444716 60.413713,66.4313482 59.7835067,66.2150128 L60.0660066,64.3400135 C60.5304276,64.4850091 61.0132855,64.5624684 61.499756,64.5700135 C62.8185055,64.5700135 63.5935052,63.9625137 63.5935052,61.7637645 L63.6160052,53.6200176 Z M72.5160019,60.498765 L72.5160019,62.1012644 L67.6997537,62.1012644 L67.6997537,60.500015 L72.5160019,60.498765 Z M83.7497476,65.9412629 C82.708498,66.3562628 81.5922484,66.5487627 80.4722488,66.5062627 C76.4410004,66.5062627 73.9910013,63.9812637 73.9910013,60.1312651 C73.8949302,58.3107589 74.5813201,56.5359521 75.8773103,55.2538125 C77.1733006,53.9716729 78.9553798,53.3043919 80.7747487,53.4200177 C81.8505763,53.375991 82.9229389,53.5688711 83.9159975,53.9850175 L83.4159977,55.8275168 C82.6285637,55.4928739 81.7802844,55.3251759 80.9247487,55.335017 C78.3372496,55.335017 76.4747504,56.9575163 76.4747504,60.0150152 C76.4747504,62.8000141 78.1184997,64.6025134 80.9034987,64.6025134 C81.7682183,64.6159627 82.6268416,64.4557147 83.4284977,64.1312636 L83.7497476,65.9412629 Z M91.0147448,48.2687696 L91.0147448,71.7000107 L85.329747,71.7000107 L85.329747,69.6062615 L88.3447458,69.6062615 L88.3447458,50.3750188 L85.329747,50.3750188 L85.329747,48.2812696 L91.0147448,48.2687696 Z" id="Shape" fill="#F1592A" fill-rule="nonzero"></path>
        </g>
    </g>
</svg>