<?xml version="1.0" encoding="UTF-8"?>
<svg width="120px" height="120px" viewBox="0 0 120 120" version="1.1" xmlns="http://www.w3.org/2000/svg" xmlns:xlink="http://www.w3.org/1999/xlink">
    <title>Group</title>
    <g id="Symbols" stroke="none" stroke-width="1" fill="none" fill-rule="evenodd">
        <g id="Group">
            <g id="icon-txt" fill="#FFFFFF">
                <rect id="Mask" x="0" y="0" width="120" height="120" rx="60"></rect>
            </g>
            <path d="M62.5149024,31.0882532 C69.4879409,25.0202347 76.3922285,22.4815905 80.6136851,24.9163696 C85.0166594,27.4549083 86.3060016,35.1664378 84.3340768,44.7389196 C84.2108367,45.3337516 84.0766541,45.9260269 83.931529,46.5157454 L85.2393784,46.9097257 L85.2393784,46.9097257 L86.5366723,47.3366037 L87.4611683,47.6654247 C95.673044,50.6822442 100.924739,55.2325939 100.924739,59.9318357 C100.924739,65.014226 94.8889498,69.9834975 85.6116322,73.0568432 C85.1205011,73.2189742 84.6188616,73.3756046 84.1067135,73.5267345 C84.2905417,74.2622582 84.4522973,74.9833211 84.5919805,75.6899231 C86.4234832,84.9411689 85.0131058,92.5448926 80.6724083,95.0576409 C76.4695644,97.49052 69.6770233,95.1006014 62.7992297,89.1822937 C62.0513678,88.5371946 61.322189,87.8718876 60.6116933,87.186373 C60.0471435,87.7334008 59.4842592,88.2522339 58.9230403,88.7428724 C51.8224925,94.9495184 44.530681,97.5245084 40.1860428,95.01936 C35.9796453,92.5929196 34.6577221,85.5149253 36.3503158,76.6007486 C36.5353637,75.631669 36.7472692,74.6686177 36.9860324,73.7115947 C36.250837,73.5017064 35.5214236,73.2736863 34.7977922,73.0275344 C25.8735527,69.9777272 20,64.9472344 20,59.9318005 C20,55.0761051 25.4717086,50.394433 34.0392811,47.4075009 C34.9969726,47.0737039 35.9979765,46.7599622 37.0344465,46.4655721 C36.8123139,45.5770654 36.6129341,44.6836211 36.4363071,43.7852392 C34.6609591,34.7134704 35.9101907,27.4635637 40.1276715,25.0220995 C44.5260366,22.4760665 51.8511681,25.2101264 59.1590942,31.6988479 C59.6137505,32.1034481 60.0607131,32.5162816 60.4999819,32.9373483 C61.1561526,32.3039304 61.8277927,31.6875654 62.5149024,31.0882532 Z M80.7628329,74.4040994 C77.1524681,75.2178699 73.4904005,75.7823212 69.8025622,76.0934561 C67.7380121,79.1139964 65.4717686,81.9916167 63.0193098,84.7066631 C63.7015875,85.3632559 64.3799127,85.9816499 65.0542855,86.5618451 C70.9357196,91.6231598 76.3898711,93.5420965 78.9402319,92.0658181 C80.3086225,90.9667432 81.218421,89.4078072 81.5097094,87.692239 L81.5896375,87.0421511 C82.0506783,83.9325794 82.0074044,80.7719376 81.4642295,77.6815171 L81.2008469,76.361704 L80.995905,75.3931228 L80.7628329,74.4040994 Z M40.3380758,74.5588415 C40.1161074,75.4491544 39.9190733,76.3447567 39.7469734,77.2456484 C38.2997224,84.8687237 39.3605401,90.5524551 41.913399,92.0244409 C43.5489903,92.6610878 45.3539661,92.6707733 46.9857611,92.066382 L48.8294858,91.2883825 C51.692308,90.0038316 54.3327917,88.2661759 56.6481403,86.1397698 C57.1737054,85.6790618 57.6876948,85.2058397 58.1901084,84.7201036 C55.6891441,82.0144579 53.3686324,79.1474304 51.243564,76.1375425 C47.5768788,75.8585714 43.9333479,75.3311263 40.3380758,74.5588415 Z M65.3474442,76.3885851 C63.7403258,76.4609248 62.1119676,76.4970946 60.4623695,76.4970946 C58.8552511,76.4969539 57.2770311,76.4663901 55.7277093,76.4054033 C57.3239674,78.5087781 58.9581546,80.4642716 60.5966694,82.2324068 C62.2790624,80.3668664 63.8647341,78.4163906 65.3474442,76.3885851 Z M60.4627566,46.9676925 C57.9683043,46.9676925 55.5005923,47.0629726 53.0939609,47.2449125 C52.1689638,48.6004605 51.2793234,49.9777553 50.4250396,51.3767968 L49.1701314,53.491669 L47.9679638,55.6373553 C47.1847818,57.0777009 46.438124,58.5368848 45.7279801,60.0149067 C46.7967027,62.232831 47.9475463,64.4062818 49.1805109,66.5352592 C50.4202076,68.6770673 51.7385302,70.7682681 53.1354788,72.8088616 C55.4945405,72.9617742 57.9442731,73.0402008 60.4623695,73.0402008 C62.9908454,73.0402008 65.4720683,72.9517466 67.8730701,72.7801861 C68.7812881,71.4158967 69.6591794,70.0331444 70.5067442,68.6319293 L71.7553465,66.5162595 L72.9668641,64.3598419 C73.756945,62.9132099 74.5122999,61.4485373 75.2329288,59.9658241 C74.1401399,57.7630292 72.9772514,55.5986443 71.7442633,53.4726693 C70.5173974,51.3509399 69.2176992,49.2757364 67.8451687,47.2470588 C65.4391706,47.0636763 62.9683272,46.9676925 60.4627566,46.9676925 Z M43.8942959,64.0798267 C42.8660591,66.5187928 41.9857387,68.9168743 41.2712788,71.2240738 C43.7351156,71.7511434 46.2243884,72.151368 48.7292675,72.4231673 C47.8492286,71.0578614 47.0023336,69.6725589 46.1885826,68.2672597 C45.3908992,66.8892404 44.626137,65.4934294 43.8942959,64.0798267 Z M77.0970126,63.9555545 L75.9473535,66.1125946 L74.75016,68.2432638 C73.9492396,69.6325187 73.1210746,71.0051548 72.2656649,72.3611719 C74.8026641,72.0639425 77.3224093,71.6344212 79.8146061,71.074363 C79.0325748,68.6559865 78.1254889,66.279851 77.0970126,63.9555545 Z M37.9628291,49.7955899 C37.0256503,50.0606008 36.0972207,50.3527274 35.1775404,50.6719696 C27.8502626,53.2266229 23.4569289,56.9853659 23.4569289,59.9318005 C23.7225309,61.6669555 24.6159501,63.2356192 25.9548741,64.3474386 L26.4774976,64.7423892 C29.2894689,66.9784907 32.4888748,68.6781162 35.9159258,69.7563805 C36.5768816,69.981234 37.2427866,70.1896797 37.913641,70.3817176 C39.0150667,66.8423017 40.349101,63.3795108 41.9070306,60.0159622 C40.3684189,56.6998497 39.0508097,53.285608 37.9628291,49.7955899 Z M83.00575,49.8463966 C81.919743,53.2979838 80.6039694,56.6730256 79.0672485,59.9489003 C80.6643875,63.2691849 82.0335188,66.6943994 83.1651366,70.2007629 L83.8523635,69.9917088 L83.8523635,69.9917088 L84.5242852,69.7756617 L85.4350971,69.4633677 C92.9067283,66.8105112 97.4679509,62.939884 97.4679509,59.9317301 C97.4679509,56.9949362 92.9001716,53.183205 85.4113962,50.6056465 C84.6370872,50.3389819 83.8334342,50.086356 83.00575,49.8463966 Z M60.4623695,52.705538 C63.3852231,52.705538 66.0203099,54.4661059 67.1388704,57.1664569 C68.2574309,59.8668078 67.6391787,62.9750705 65.5724091,65.0418401 C63.5056395,67.1086096 60.3973769,67.7268618 57.6970259,66.6083014 C54.996675,65.4897409 53.236107,62.854654 53.236107,59.9318005 C53.236107,58.0152765 53.9974432,56.1772484 55.3526303,54.8220613 C56.7078174,53.4668742 58.5458456,52.705538 60.4623695,52.705538 Z M72.2754463,47.693693 L73.5277214,49.704057 L73.5277214,49.704057 L74.736262,51.740704 L75.9213081,53.8346492 L77.0641501,55.9517459 C78.0441304,53.6739716 78.9086018,51.348219 79.6542695,48.9833518 C77.3314832,48.4529429 74.8576492,48.0196085 72.2754463,47.693693 Z M48.6554853,47.687219 C46.08996,48.0077865 43.6278775,48.4300377 41.3189188,48.9468301 C42.0223307,51.2138839 42.8836514,53.5615106 43.8903904,55.9492478 C44.6193229,54.536208 45.3807309,53.1412297 46.1746143,51.7643129 C46.9697643,50.3856134 47.7967213,49.026582 48.6554853,47.687219 Z M78.5673388,27.7520492 C75.8954994,26.6132045 70.5200395,28.7047114 64.7844543,33.6963519 C64.1499105,34.2499944 63.5296048,34.8189657 62.9235371,35.4032658 C65.3930205,38.0920932 67.6783822,40.9443813 69.7640702,43.9407202 C73.4045892,44.2710983 77.0192399,44.8421513 80.5843059,45.6501322 C80.7152867,45.1160055 80.83658,44.5797442 80.9481858,44.0413484 C82.587747,36.0825423 81.6710746,29.9437167 79.1812775,28.1042755 L78.8870678,27.9112535 L78.5673388,27.7520492 Z M56.8634001,34.2839359 C50.5536278,28.6815866 44.5672378,26.4467972 41.859672,28.0140279 C39.4196011,29.42656 38.3912045,34.8864321 39.6585808,42.1978877 L39.829024,43.1213045 L40.0913609,44.3712574 L40.3852233,45.6143494 C43.944803,44.8224099 47.5519292,44.2618008 51.1839612,43.9360407 C53.2908359,40.9431756 55.5937339,38.093224 58.0775175,35.4049195 C57.6717327,35.0170437 57.2666516,34.6420807 56.8634001,34.2839359 Z M60.5010727,37.8755166 C58.8815224,39.6228928 57.27112,41.5490071 55.6987172,43.622299 C58.8887235,43.4731629 62.0769236,43.4738783 65.2633176,43.6244452 C63.7737243,41.6291647 62.1842837,39.7104099 60.5010727,37.8755166 Z" id="Shape" fill="#61DAFB" fill-rule="nonzero"></path>
        </g>
    </g>
</svg>