<?xml version="1.0" encoding="UTF-8"?>
<svg width="120px" height="120px" viewBox="0 0 120 120" version="1.1" xmlns="http://www.w3.org/2000/svg" xmlns:xlink="http://www.w3.org/1999/xlink">
    <title>Group</title>
    <g id="Symbols" stroke="none" stroke-width="1" fill="none" fill-rule="evenodd">
        <g id="Group">
            <g id="icon-txt" fill="#FFFFFF">
                <rect id="Mask" x="0" y="0" width="120" height="120" rx="60"></rect>
            </g>
            <g id="java" transform="translate(28.458786, 19.588267)" fill-rule="nonzero">
                <path d="M19.0006722,61.8672918 C19.0006722,61.8672918 15.9453007,63.6451677 21.1773922,64.2457566 C27.5177527,64.9697814 30.7562872,64.8655908 37.7410364,63.5442953 C37.7410364,63.5442953 39.5799666,64.6957005 42.1469034,65.6918153 C26.4844743,72.4031473 6.70021361,65.3035894 19.0006722,61.8672918 Z M17.0860878,53.1093122 C17.0860878,53.1093122 13.6584175,55.6463855 18.8951544,56.1879109 C25.6682043,56.8873813 31.0144409,56.9444539 40.2714734,55.1632598 C40.2714734,55.1632598 41.5496327,56.4606646 43.5611078,57.1694258 C24.6269624,62.7074526 3.53932425,57.6054334 17.0860878,53.1093122 Z" id="Shape" fill="#3174B9"></path>
                <path d="M33.2190335,38.2512077 C37.0800568,42.6955654 32.2069914,46.6926338 32.2069914,46.6926338 C32.2069914,46.6926338 42.006213,41.6350781 37.5054463,35.299363 C33.303315,29.3936829 30.080044,26.4597564 47.527649,16.3419905 C47.5269853,16.3413268 20.1394684,23.1794129 33.2190335,38.2512077 Z" id="Path" fill="#CA3132"></path>
                <path d="M53.9330456,68.3456882 C53.9330456,68.3456882 56.1947107,70.2105001 51.4417631,71.6525771 C42.4037298,74.3900679 13.8176897,75.2156287 5.87730729,71.7614131 C3.0250078,70.51909 8.37655343,68.7969594 10.0601932,68.4332879 C11.8161691,68.0536892 12.8182567,68.1227071 12.8182567,68.1227071 C9.64409462,65.8875874 -7.69865612,72.5126469 4.01050448,74.4132951 C35.9392698,79.5903049 62.2138723,72.082612 53.9330456,68.3456882 Z M20.4706218,44.0341155 C20.4706218,44.0341155 5.93172529,47.4883311 15.3228119,48.7439269 C19.2893531,49.2741706 27.190581,49.1520619 34.5562562,48.5342185 C40.5740905,48.0291929 46.6144884,46.9487966 46.6144884,46.9487966 C46.6144884,46.9487966 44.4941774,47.858639 42.9578643,48.9058536 C28.1913413,52.7901042 -0.330326366,50.9810376 7.88148237,47.0105145 C14.8244226,43.6518622 20.4706218,44.0341155 20.4706218,44.0341155 L20.4706218,44.0341155 Z M46.5540977,58.6121664 C61.5635108,50.8144654 54.6238887,43.3193815 49.7786959,44.3294327 C48.594109,44.5769682 48.0625381,44.7906584 48.0625381,44.7906584 C48.0625381,44.7906584 48.5045184,44.0991516 49.3446792,43.8018435 C58.9282197,40.4339003 66.2972131,53.7377737 46.2547973,59.0063651 C46.2541351,59.0063651 46.4850797,58.797984 46.5540977,58.6121664 Z" id="Shape" fill="#3174B9"></path>
                <path d="M37.5054463,0 C37.5054463,0 45.8161365,8.31599929 29.6208092,21.0995836 C16.6328256,31.3580399 26.6596737,37.2053203 29.6168274,43.8887796 C22.0341438,37.0487026 16.4722262,31.0262229 20.2031773,25.4224963 C25.6808134,17.1967512 40.8587896,13.2076465 37.5054463,0 Z" id="Path" fill="#CA3132"></path>
                <path d="M21.9472078,79.7489135 C36.3520502,80.6700377 58.4769485,79.2372516 59.0018831,72.4197381 C59.0018831,72.4197381 57.9944865,75.0039294 47.0956231,77.0538953 C34.7991463,79.3686511 19.630461,79.0992157 10.6368913,77.6146661 C10.6368913,77.6146661 12.4798033,79.1396974 21.9472078,79.7489135 Z" id="Path" fill="#3174B9"></path>
            </g>
        </g>
    </g>
</svg>