<?xml version="1.0" encoding="UTF-8"?>
<svg width="120px" height="120px" viewBox="0 0 120 120" version="1.1" xmlns="http://www.w3.org/2000/svg" xmlns:xlink="http://www.w3.org/1999/xlink">
    <title>icon txt</title>
    <g id="Symbols" stroke="none" stroke-width="1" fill="none" fill-rule="evenodd">
        <g id="icon-txt">
            <rect id="Mask" fill="#FFFFFF" x="0" y="0" width="120" height="120" rx="60"></rect>
            <g id="Group-5" transform="translate(42.000000, 20.000000)" fill-rule="nonzero">
                <path d="M35.5655106,31.8255866 C31.3155075,13.2393339 22.4574017,8.29143903 20.1977658,4.79378918 C19.2659945,3.25298889 18.440569,1.65139372 17.7271566,0 C17.60779,1.6511329 17.3884888,2.69134662 15.9727464,3.94345573 C13.1301578,6.45592962 1.05748396,16.2086213 0.0414806032,37.326611 C-0.905123619,57.0163708 14.6430589,69.1577014 16.6972734,70.4125624 C18.2767977,71.183091 20.2005418,70.4290737 21.1388181,69.7218384 C28.6339249,64.6225897 38.8744614,51.0282622 35.5738385,31.8255866" id="Path" fill="#10AA50"></path>
                <path d="M18.4005974,59.7894737 C18.0343518,64.7033729 17.7720056,67.5584843 16.8421053,70.3664268 C16.8421053,70.3664268 17.4525147,75.0444811 17.8811,80 L19.3980324,80 C19.7598712,76.510383 20.3123464,73.0463411 21.0526316,69.6255961 C19.0889315,68.5934276 18.4759245,64.1012746 18.4005974,59.7894737 Z" id="Path" fill="#B8C4C2"></path>
                <path d="M21.0107725,69.0526316 L21.0107725,69.0526316 C18.8624265,68.0842323 18.2409808,63.5494899 18.1453738,59.3247451 C18.6766679,52.355723 18.8315406,45.3642461 18.6093491,38.379338 C18.4968702,34.7142346 18.6627765,4.43323875 17.6842105,0 C18.3536034,1.50149288 19.1248564,2.95777815 19.9928389,4.35916855 C22.2817835,7.84869806 31.2575958,12.7812248 35.5599118,31.3097487 C38.9117816,50.4198608 28.594659,63.936301 21.0107725,69.0526316 Z" id="Path" fill="#12924F"></path>
            </g>
        </g>
    </g>
</svg>