<?xml version="1.0" encoding="UTF-8"?>
<svg width="120px" height="120px" viewBox="0 0 120 120" version="1.1" xmlns="http://www.w3.org/2000/svg" xmlns:xlink="http://www.w3.org/1999/xlink">
    <title>Group</title>
    <g id="Symbols" stroke="none" stroke-width="1" fill="none" fill-rule="evenodd">
        <g id="Group">
            <g id="icon-txt" fill="#FFFFFF">
                <rect id="Mask" x="0" y="0" width="120" height="120" rx="60"></rect>
            </g>
            <g id="HTML5_logo_and_wordmark" transform="translate(32.000000, 20.000000)" fill-rule="nonzero">
                <path d="M5.28125,0 L8.875,0 L8.875,3.5625 L12.1875,3.5625 L12.1875,0 L15.78125,0 L15.78125,10.78125 L12.1875,10.78125 L12.1875,7.1875 L8.90625,7.1875 L8.90625,10.78125 L5.28125,10.78125 M20.53125,3.59375 L17.359375,3.59375 L17.359375,0 L27.3125,0 L27.3125,3.59375 L24.125,3.59375 L24.125,10.78125 L20.53125,10.78125 M28.890625,0 L32.65625,0 L34.96875,3.796875 L37.28125,0 L41.046875,0 L41.046875,10.78125 L37.453125,10.78125 L37.453125,5.4375 L34.9375,9.3125 L32.421875,5.4375 L32.421875,10.78125 L28.890625,10.78125 M42.828125,0 L46.421875,0 L46.421875,7.21875 L51.515625,7.21875 L51.515625,10.78125 L42.828125,10.78125" id="Shape" fill="#000000"></path>
                <polyline id="Path" fill="#E44D26" points="5.15625 73.59375 0 15.71875 56.6875 15.71875 51.53125 73.5625 28.296875 80"></polyline>
                <polyline id="Path" fill="#F16529" points="28.34375 75.078125 28.34375 20.46875 51.515625 20.46875 47.09375 69.84375"></polyline>
                <path d="M10.53125,27.546875 L28.34375,27.546875 L28.34375,34.640625 L18.3125,34.640625 L18.96875,41.90625 L28.34375,41.90625 L28.34375,48.984375 L12.46875,48.984375 M12.78125,52.546875 L19.90625,52.546875 L20.40625,58.21875 L28.34375,60.34375 L28.34375,67.75 L13.78125,63.6875" id="Shape" fill="#EBEBEB"></path>
                <path d="M46.09375,27.546875 L28.3125,27.546875 L28.3125,34.640625 L45.4375,34.640625 M44.796875,41.90625 L28.3125,41.90625 L28.3125,49 L37.0625,49 L36.234375,58.21875 L28.3125,60.34375 L28.3125,67.71875 L42.84375,63.6875" id="Shape" fill="#FFFFFF"></path>
            </g>
        </g>
    </g>
</svg>