<?xml version="1.0" encoding="UTF-8"?>
<svg width="120px" height="120px" viewBox="0 0 120 120" version="1.1" xmlns="http://www.w3.org/2000/svg" xmlns:xlink="http://www.w3.org/1999/xlink">
    <title>Group</title>
    <g id="Symbols" stroke="none" stroke-width="1" fill="none" fill-rule="evenodd">
        <g id="Group">
            <g id="icon-txt" fill="#FFFFFF">
                <rect id="Mask" x="0" y="0" width="120" height="120" rx="60"></rect>
            </g>
            <g id="CSS3_logo_and_wordmark" transform="translate(32.000000, 20.000000)" fill-rule="nonzero">
                <polygon id="polygon2989" fill="#264DE4" points="56.6771875 15.721875 51.51375 73.5654688 28.3039062 80 5.15796875 73.5745313 0 15.721875"></polygon>
                <polygon id="polygon2991" fill="#2965F1" points="47.0932812 69.8821875 51.5057812 20.4521875 28.3385937 20.4521875 28.3385937 75.0817187"></polygon>
                <polygon id="polygon2993" fill="#EBEBEB" points="11.8245312 41.9089062 12.4604687 49.0042187 28.3385937 49.0042187 28.3385937 41.9089062"></polygon>
                <polygon id="polygon2995" fill="#EBEBEB" points="28.3385937 27.5476562 28.3140625 27.5476562 10.5467187 27.5476562 11.1917187 34.643125 28.3385937 34.643125"></polygon>
                <polygon id="polygon2997" fill="#EBEBEB" points="28.3385937 67.7185938 28.3385937 60.3364063 28.3075 60.3446875 20.4053125 58.2109375 19.9001562 52.5520312 16.0603125 52.5520312 12.7775 52.5520312 13.7715625 63.6928125 28.3059375 67.7276563"></polygon>
                <polygon id="path2999" fill="#000000" points="13.3385937 0 21.9323437 0 21.9323437 3.59375 16.9323437 3.59375 16.9323437 7.1875 21.9323437 7.1875 21.9323437 10.78125 13.3385937 10.78125"></polygon>
                <polygon id="path3001" fill="#000000" points="23.6510937 0 32.2448437 0 32.2448437 3.125 27.2448437 3.125 27.2448437 3.75 32.2448437 3.75 32.2448437 10.9375 23.6510937 10.9375 23.6510937 7.65625 28.6510937 7.65625 28.6510937 7.03125 23.6510937 7.03125"></polygon>
                <polygon id="path3003" fill="#000000" points="33.9635937 0 42.5573437 0 42.5573437 3.125 37.5573437 3.125 37.5573437 3.75 42.5573437 3.75 42.5573437 10.9375 33.9635937 10.9375 33.9635937 7.65625 38.9635937 7.65625 38.9635937 7.03125 33.9635937 7.03125"></polygon>
                <polygon id="polygon3005" fill="#FFFFFF" points="37.05125 49.0042187 36.2276562 58.2064062 28.3140625 60.3423437 28.3140625 67.7242187 42.86 63.6928125 42.9667187 62.4940625 44.6340625 43.8142187 44.8071875 41.9089062 46.088125 27.5476562 28.3140625 27.5476562 28.3140625 34.643125 38.3121875 34.643125 37.6665625 41.9089062 28.3140625 41.9089062 28.3140625 49.0042187"></polygon>
            </g>
        </g>
    </g>
</svg>