<?xml version="1.0" encoding="UTF-8"?>
<svg width="120px" height="120px" viewBox="0 0 120 120" version="1.1" xmlns="http://www.w3.org/2000/svg" xmlns:xlink="http://www.w3.org/1999/xlink">
    <title>Group 2</title>
    <defs>
        <path d="M27.0537391,20.8493699 C27.0537391,22.0307278 27.1814535,22.9885855 27.4049536,23.6910145 C27.6603824,24.3934435 27.9796683,25.1597297 28.4266686,25.9898731 C28.5863115,26.2453018 28.6501687,26.5007305 28.6501687,26.7242306 C28.6501687,27.0435166 28.4585971,27.3628025 28.0435255,27.6820884 L26.0320242,29.0230892 C25.7446669,29.2146607 25.4573096,29.3104465 25.2018809,29.3104465 C24.882595,29.3104465 24.5633091,29.1508036 24.2440231,28.8634462 C23.7970229,28.3845174 23.4138798,27.8736599 23.0945939,27.3628025 C22.775308,26.8200164 22.456022,26.2133732 22.1048075,25.4790156 C19.6143775,28.416446 16.4853755,29.8851611 12.7178018,29.8851611 C10.0358002,29.8851611 7.89658456,29.118875 6.33208361,27.5863026 C4.76758265,26.0537302 3.96936787,24.0103004 3.96936787,21.4560131 C3.96936787,18.7420829 4.9272256,16.5390101 6.87486965,14.8787234 C8.8225137,13.2184367 11.4087296,12.3882933 14.6973744,12.3882933 C15.7829465,12.3882933 16.9004472,12.4840791 18.0818051,12.643722 C19.2631629,12.803365 20.4764494,13.0587937 21.753593,13.346151 L21.753593,11.0153639 C21.753593,8.58879097 21.2427356,6.89657565 20.2529493,5.90678933 C19.2312344,4.91700301 17.5070904,4.43807415 15.0485889,4.43807415 C13.9310883,4.43807415 12.781659,4.56578851 11.6003011,4.85314583 C10.4189433,5.14050315 9.26951398,5.49171765 8.15201329,5.93871792 C7.64115584,6.16221806 7.25801274,6.28993242 7.03451261,6.3537896 C6.81101247,6.41764679 6.65136952,6.44957538 6.52365515,6.44957538 C6.07665488,6.44957538 5.85315474,6.13028947 5.85315474,5.45978906 L5.85315474,3.8952881 C5.85315474,3.38443064 5.91701192,3.00128755 6.07665488,2.77778741 C6.23629783,2.55428728 6.52365515,2.33078714 6.97065543,2.107287 C8.08815611,1.53257237 9.42915693,1.0536435 10.9936579,0.67050041 C12.5581588,0.255428728 14.2184456,0.0638571819 15.9745181,0.0638571819 C19.7740204,0.0638571819 22.5518078,0.925929138 24.3398089,2.65007305 C26.0958814,4.37421696 26.989882,6.99236142 26.989882,10.5045064 L26.989882,20.8493699 L27.0537391,20.8493699 Z M14.0907312,25.7025157 C15.1443747,25.7025157 16.2299468,25.5109442 17.3793761,25.1278011 C18.5288054,24.744658 19.5505203,24.042229 20.4125922,23.0843713 C20.9234497,22.477728 21.3065928,21.8072276 21.4981643,21.0409415 C21.6897359,20.2746553 21.8174502,19.3487261 21.8174502,18.263154 L21.8174502,16.9221532 C20.8915211,16.6986531 19.9017348,16.5070815 18.8800199,16.3793672 C17.8583049,16.2516528 16.8685186,16.1877956 15.8787323,16.1877956 C13.7395167,16.1877956 12.1750158,16.6028673 11.1213723,17.4649393 C10.0677287,18.3270112 9.55687129,19.5402977 9.55687129,21.1367272 C9.55687129,22.637371 9.94001439,23.7548717 10.7382292,24.5211579 C11.5045153,25.3193726 12.622016,25.7025157 14.0907312,25.7025157 Z M39.7293898,29.1508036 C39.1546751,29.1508036 38.771532,29.0550178 38.5161033,28.8315176 C38.2606746,28.6399461 38.0371744,28.1929458 37.8456029,27.5863026 L30.342384,2.90550178 C30.1508125,2.26692996 30.0550267,1.85185828 30.0550267,1.62835814 C30.0550267,1.11750068 30.3104554,0.830143365 30.8213129,0.830143365 L33.9503148,0.830143365 C34.556958,0.830143365 34.9720297,0.925929138 35.1955298,1.14942927 C35.4509586,1.34100082 35.6425301,1.78800109 35.8341017,2.39464432 L41.1981049,23.5313715 L46.1789651,2.39464432 C46.3386081,1.7560725 46.5301796,1.34100082 46.7856084,1.14942927 C47.0410371,0.957857729 47.4880374,0.830143365 48.062752,0.830143365 L50.6170393,0.830143365 C51.2236825,0.830143365 51.6387542,0.925929138 51.8941829,1.14942927 C52.1496117,1.34100082 52.3731118,1.78800109 52.5008262,2.39464432 L57.5455435,23.7868003 L63.0691898,2.39464432 C63.2607613,1.7560725 63.4842614,1.34100082 63.7077616,1.14942927 C63.9631903,0.957857729 64.378262,0.830143365 64.9529766,0.830143365 L67.9223356,0.830143365 C68.433193,0.830143365 68.7205504,1.08557209 68.7205504,1.62835814 C68.7205504,1.78800109 68.6886218,1.94764405 68.6566932,2.1392156 C68.6247646,2.33078714 68.5609074,2.58621587 68.433193,2.93743037 L60.7384026,27.6182312 C60.5468311,28.256803 60.3233309,28.6718747 60.0679022,28.8634462 C59.8124735,29.0550178 59.3974018,29.1827321 58.8546158,29.1827321 L56.1087569,29.1827321 C55.5021137,29.1827321 55.087042,29.0869464 54.8316133,28.8634462 C54.5761846,28.6399461 54.3526844,28.2248744 54.2249701,27.5863026 L49.2760385,6.99236142 L44.3590355,27.554374 C44.1993925,28.1929458 44.007821,28.6080175 43.7523922,28.8315176 C43.4969635,29.0550178 43.0499632,29.1508036 42.4752486,29.1508036 L39.7293898,29.1508036 Z M80.7576292,30.0128755 C79.0973424,30.0128755 77.4370557,29.821304 75.8406262,29.4381609 C74.2441966,29.0550178 72.9989816,28.6399461 72.1688382,28.1610172 C71.6579807,27.8736599 71.3067662,27.554374 71.1790519,27.2670167 C71.0513375,26.9796594 70.9874803,26.6603735 70.9874803,26.3730161 L70.9874803,24.744658 C70.9874803,24.0741576 71.2429091,23.7548717 71.7218379,23.7548717 C71.9134095,23.7548717 72.104981,23.7868003 72.2965526,23.8506575 C72.4881241,23.9145146 72.7754814,24.042229 73.0947673,24.1699434 C74.1803394,24.6488722 75.3616973,25.0320153 76.6069123,25.287444 C77.884056,25.5428728 79.129271,25.6705871 80.4064147,25.6705871 C82.4179159,25.6705871 83.9824168,25.3193726 85.0679889,24.6169436 C86.153561,23.9145146 86.7282757,22.8927997 86.7282757,21.5837275 C86.7282757,20.6897269 86.4409184,19.9553694 85.8662037,19.3487261 C85.2914891,18.7420829 84.205917,18.1992969 82.641416,17.6884394 L78.0117703,16.2516528 C75.6809832,15.5172952 73.9568393,14.4317231 72.9031958,12.9949365 C71.8495523,11.5900785 71.3067662,10.0255776 71.3067662,8.36529083 C71.3067662,7.02429001 71.5941236,5.84293215 72.1688382,4.82121724 C72.7435528,3.79950233 73.509839,2.90550178 74.4676967,2.20307278 C75.4255545,1.46871518 76.5111266,0.925929138 77.7882702,0.542786047 C79.0654138,0.159642955 80.4064147,0 81.8112727,0 C82.5137017,0 83.2480593,0.031928591 83.9504883,0.127714364 C84.6848459,0.223500137 85.3553463,0.351214501 86.0258467,0.478928865 C86.6644185,0.638571819 87.2710617,0.798214774 87.8457764,0.98978632 C88.420491,1.18135787 88.8674913,1.37292941 89.1867772,1.56450096 C89.6337775,1.81992969 89.9530634,2.07535841 90.1446349,2.36271573 C90.3362065,2.61814446 90.4319922,2.96935896 90.4319922,3.41635923 L90.4319922,4.91700301 C90.4319922,5.58750342 90.1765635,5.93871792 89.6976346,5.93871792 C89.4422059,5.93871792 89.0271342,5.81100356 88.4843482,5.55557483 C86.6644185,4.72543146 84.6209887,4.31035978 82.3540587,4.31035978 C80.534129,4.31035978 79.0973424,4.5977171 78.1075561,5.20436033 C77.1177698,5.81100356 76.6069123,6.73693269 76.6069123,8.04600492 C76.6069123,8.94000547 76.9261982,9.70629166 77.5647701,10.3129349 C78.2033419,10.9195781 79.3846997,11.5262213 81.0769151,12.0690074 L85.610775,13.505794 C87.9096335,14.2401516 89.5699203,15.2618665 90.5597066,16.5709387 C91.5494929,17.8800109 92.0284218,19.3806547 92.0284218,21.0409415 C92.0284218,22.4138709 91.7410645,23.6590859 91.1982784,24.744658 C90.6235638,25.8302301 89.8572776,26.7880878 88.8674913,27.554374 C87.8777049,28.3525888 86.6963471,28.9273034 85.3234177,29.3423751 C83.8866311,29.7893754 82.3859873,30.0128755 80.7576292,30.0128755 Z" id="path-1"></path>
    </defs>
    <g id="Symbols" stroke="none" stroke-width="1" fill="none" fill-rule="evenodd">
        <g id="Group-2">
            <g id="icon-txt" fill="#FFFFFF">
                <rect id="Mask" x="0" y="0" width="120" height="120" rx="60"></rect>
            </g>
            <g id="Group" transform="translate(12.000000, 36.000000)">
                <path d="M1.51086637,37.8992375 C15.0485889,45.7536709 31.747242,50.5110309 49.0206097,50.5110309 C60.6745454,50.5110309 73.4779104,48.084458 85.2595605,43.1035978 C87.015633,42.305383 88.5162768,44.2530271 86.7921329,45.5301707 C76.2876264,53.2888183 61.0257599,57.4076066 47.9031091,57.4076066 C29.5122407,57.4076066 12.9413019,50.6068167 0.425294276,39.3040955 C-0.564492044,38.4100949 0.329508504,37.1968085 1.51086637,37.8992375 Z M95.6363526,37.1010227 C96.7857818,38.5378093 95.3170666,48.4037439 89.6976346,53.1291754 C88.8355627,53.863533 88.0054193,53.4803899 88.3885624,52.5225321 C89.665706,49.3616016 92.5073506,42.2415259 91.1663498,40.5493105 C89.825349,38.8251666 82.2902015,39.7191672 78.8738423,40.1342389 C77.8521274,40.2619532 77.6924844,39.3679527 78.6184136,38.6974523 C84.6209887,34.4828782 94.4869233,35.6961647 95.6363526,37.1010227 Z" id="Combined-Shape" fill="#FF9900"></path>
                <g id="Shape" fill-rule="nonzero">
                    <use fill="#252F3E" xlink:href="#path-1"></use>
                    <use fill="#000000" style="mix-blend-mode: color;" xlink:href="#path-1"></use>
                </g>
            </g>
        </g>
    </g>
</svg>