<?xml version="1.0" encoding="UTF-8"?>
<svg width="120px" height="120px" viewBox="0 0 120 120" version="1.1" xmlns="http://www.w3.org/2000/svg" xmlns:xlink="http://www.w3.org/1999/xlink">
    <title>Group</title>
    <g id="Symbols" stroke="none" stroke-width="1" fill="none" fill-rule="evenodd">
        <g id="Group">
            <g id="icon-txt" fill="#FFFFFF">
                <rect id="Mask" x="0" y="0" width="120" height="120" rx="60"></rect>
            </g>
            <g id="near_icon" transform="translate(28.000000, 28.000000)" fill="#000000" fill-rule="nonzero">
                <path d="M51.3688889,3.24888904 L37.9911111,23.1111107 C37.5971006,23.702631 37.7002538,24.4942134 38.2326968,24.9650051 C38.7651399,25.4357969 39.5633964,25.4412504 40.1022222,24.9777774 L53.2711111,13.5555554 C53.428808,13.4144746 53.6549946,13.3799615 53.8475899,13.4675924 C54.0401851,13.5552232 54.1627621,13.7484237 54.16,13.9599999 L54.16,49.7199989 C54.1599151,49.944269 54.0195364,50.1445262 53.8087398,50.2210892 C53.5979432,50.2976521 53.3617694,50.2341616 53.2177778,50.0622211 L13.4133333,2.41333351 C12.1174802,0.883138895 10.2140649,0 8.20888889,0 L6.81777778,0 C3.05242308,0 0,3.05242324 0,6.81777783 L0,57.182221 C0,60.9475755 3.05242308,64 6.81777778,64 L6.81777778,64 C9.18841488,64 11.3894224,62.7705477 12.6311111,60.7511097 L26.0088889,40.888888 C26.4028994,40.2973677 26.2997462,39.5057854 25.7673032,39.0349937 C25.2348601,38.5642019 24.4366036,38.5587484 23.8977778,39.0222214 L10.7288889,50.4444434 C10.571192,50.5855242 10.3450054,50.6200373 10.1524101,50.5324064 C9.95981488,50.4447756 9.83723794,50.2515751 9.84,50.0399989 L9.84,14.271111 C9.84008491,14.0468409 9.98046358,13.8465837 10.1912602,13.7700207 C10.4020568,13.6934578 10.6382306,13.7569483 10.7822222,13.9288888 L50.5822222,61.5866653 C51.8780753,63.1168599 53.7814907,64 55.7866667,64 L57.1777778,64 C58.9867348,64.0011778 60.7220053,63.2833989 62.001548,62.0046898 C63.2810908,60.7259806 64,58.9911783 64,57.182221 L64,6.81777783 C64,3.05242324 60.9475769,0 57.1822222,0 L57.1822222,0 C54.8115851,0 52.6105776,1.2294511 51.3688889,3.24888904 Z" id="Path"></path>
            </g>
        </g>
    </g>
</svg>