<?xml version="1.0" encoding="UTF-8"?>
<svg width="120px" height="120px" viewBox="0 0 120 120" version="1.1" xmlns="http://www.w3.org/2000/svg" xmlns:xlink="http://www.w3.org/1999/xlink">
    <title>Group</title>
    <g id="Symbols" stroke="none" stroke-width="1" fill="none" fill-rule="evenodd">
        <g id="Group">
            <g id="icon-txt" fill="#FFFFFF">
                <rect id="Mask" x="0" y="0" width="120" height="120" rx="60"></rect>
            </g>
            <polygon id="Path" fill="#000000" fill-rule="nonzero" points="39.0617284 92 48.3174603 75.9717813 57.5731922 60 66.7724868 43.9717813 68.2962963 41.4320988 68.973545 43.9717813 71.7954145 54.5255732 68.6349206 60 59.3791887 75.9717813 50.1798942 92 61.2416226 92 70.4973545 75.9717813 75.2945326 67.675485 77.5520282 75.9717813 81.8412698 92 91.7742504 92 87.4850088 75.9717813 83.1957672 60 82.0670194 55.8800705 88.952381 43.9717813 78.9065256 43.9717813 78.5679012 42.7865961 75.0687831 29.6931217 74.617284 28 64.9664903 28 64.7407407 28.3386243 55.7107584 43.9717813 46.4550265 60 37.2557319 75.9717813 28 92"></polygon>
        </g>
    </g>
</svg>