<?xml version="1.0" encoding="UTF-8"?>
<svg width="120px" height="120px" viewBox="0 0 120 120" version="1.1" xmlns="http://www.w3.org/2000/svg" xmlns:xlink="http://www.w3.org/1999/xlink">
    <title>Group</title>
    <g id="Symbols" stroke="none" stroke-width="1" fill="none" fill-rule="evenodd">
        <g id="Group">
            <g id="icon-txt" fill="#FFFFFF">
                <rect id="Mask" x="0" y="0" width="120" height="120" rx="60"></rect>
            </g>
            <path d="M76.2951435,48.5131589 C75.1143905,47.7859684 73.5792862,47.7859684 72.2804759,48.5131589 L63.0700294,54.0881903 L56.8117341,57.7241428 L47.6014668,63.2993534 C46.4207138,64.026508 44.8856095,64.026508 43.5867096,63.2993534 L36.2656829,58.9362463 C35.0848761,58.2090917 34.2582953,56.8758852 34.2582953,55.4213968 L34.2582953,46.8163751 C34.2582953,45.3619941 34.9667829,44.0288235 36.2656829,43.301633 L43.4686343,39.0596826 C44.649441,38.3324921 46.1844199,38.3324921 47.4834094,39.0596826 L54.6863429,43.301633 C55.8670959,44.0288235 56.6936767,45.3619941 56.6936767,46.8163751 L56.6936767,52.3914962 L62.951972,48.6343513 L62.951972,43.0592302 C62.951972,41.6048493 62.2436277,40.2716787 60.9446382,39.5444882 L47.6014668,31.5453929 C46.4207138,30.8182024 44.8856095,30.8182024 43.5867096,31.5453929 L30.0073875,39.5444882 C28.7084876,40.2716787 28,41.6048493 28,43.0592302 L28,59.1786312 C28,60.6329405 28.7084876,61.966147 30.0073875,62.6933016 L43.5867096,70.6923611 C44.7675342,71.4196949 46.3026564,71.4196949 47.6014668,70.6923611 L56.8117341,65.2384325 L63.0700294,61.4813772 L72.2804759,56.0274486 C73.4612288,55.3002939 74.9963331,55.3002939 76.2951435,56.0274486 L83.498077,60.2694528 C84.6790091,60.9966074 85.5055899,62.3298139 85.5055899,63.7841232 L85.5055899,72.3892344 C85.5055899,73.8435437 84.7970665,75.1767502 83.498077,75.9039048 L76.2951435,80.267191 C75.1143905,80.9943457 73.5792862,80.9943457 72.2804759,80.267191 L65.0775423,76.0251868 C63.8966102,75.2980322 63.0700294,73.9648258 63.0700294,72.5103373 L63.0700294,66.9353058 L56.8117341,70.6923611 L56.8117341,76.2675717 C56.8117341,77.721881 57.5202575,79.0550875 58.819247,79.7822421 L72.3985332,87.7814808 C73.5792862,88.5086354 75.1143905,88.5086354 76.4132008,87.7814808 L89.9926662,79.7822421 C91.1734192,79.0550875 92,77.721881 92,76.2675717 L92,60.1481707 C92,58.6938614 91.2914766,57.360655 89.9926662,56.6335003 L76.2951435,48.5131589 Z" id="Path" fill="#7950DD" fill-rule="nonzero"></path>
        </g>
    </g>
</svg>