<?xml version="1.0" encoding="UTF-8"?>
<svg width="120px" height="120px" viewBox="0 0 120 120" version="1.1" xmlns="http://www.w3.org/2000/svg" xmlns:xlink="http://www.w3.org/1999/xlink">
    <title>icon txt</title>
    <defs>
        <linearGradient x1="77.6943164%" y1="-4.60774599%" x2="22.0266843%" y2="105.049826%" id="linearGradient-1">
            <stop stop-color="#3E863D" offset="30%"></stop>
            <stop stop-color="#55934F" offset="50%"></stop>
            <stop stop-color="#5AAD45" offset="80%"></stop>
        </linearGradient>
        <linearGradient x1="8.43714104%" y1="88.8750251%" x2="92.8717847%" y2="11.9416627%" id="linearGradient-2">
            <stop stop-color="#3E863D" offset="57%"></stop>
            <stop stop-color="#619857" offset="72%"></stop>
            <stop stop-color="#76AC64" offset="100%"></stop>
        </linearGradient>
        <linearGradient x1="-0.0105478332%" y1="49.9830307%" x2="99.9619787%" y2="49.9830307%" id="linearGradient-3">
            <stop stop-color="#6BBF47" offset="16%"></stop>
            <stop stop-color="#79B461" offset="38%"></stop>
            <stop stop-color="#75AC64" offset="47%"></stop>
            <stop stop-color="#659E5A" offset="70%"></stop>
            <stop stop-color="#3E863D" offset="90%"></stop>
        </linearGradient>
    </defs>
    <g id="Symbols" stroke="none" stroke-width="1" fill="none" fill-rule="evenodd">
        <g id="icon-txt">
            <rect id="Mask" fill="#FFFFFF" x="0" y="0" width="120" height="120" rx="60"></rect>
            <g id="Node.js_logo" transform="translate(16.000000, 33.000000)">
                <g id="jks" transform="translate(33.869108, 32.201763)" fill="#689F63" fill-rule="nonzero">
                    <path d="M9.62360122,21.6978637 C9.34011529,21.6978637 9.04170905,21.6232621 8.78806375,21.474059 L6.13224822,19.9074262 C5.7293998,19.6836216 5.92336385,19.60902 6.05764666,19.5642591 C6.57985758,19.3852153 6.69922007,19.3404544 7.25127162,19.0122075 C7.31095287,18.9823669 7.38555443,18.9972872 7.44523567,19.0271278 L9.48931841,20.2356731 C9.56391997,20.280434 9.66836216,20.280434 9.74296372,20.2356731 L17.69549,15.6551373 C17.7700916,15.6103764 17.8148525,15.5208545 17.8148525,15.446253 L17.8148525,6.27026111 C17.8148525,6.18073923 17.7700916,6.09121736 17.69549,6.04645643 L9.75788403,1.46592065 C9.68328247,1.42115972 9.5937606,1.42115972 9.51915904,1.46592065 L1.58155307,6.04645643 C1.50695151,6.09121736 1.46219057,6.18073923 1.46219057,6.27026111 L1.46219057,15.446253 C1.46219057,15.5357748 1.50695151,15.6103764 1.58155307,15.6551373 L3.75991862,16.9084435 C4.93862326,17.505256 5.66971855,16.8040014 5.66971855,16.1027467 L5.66971855,7.04611733 C5.66971855,6.91183452 5.77416073,6.82231265 5.89352323,6.82231265 L6.89318413,6.82231265 C7.01254663,6.82231265 7.11698881,6.92675483 7.11698881,7.04611733 L7.11698881,16.1027467 C7.11698881,17.6842998 6.25161072,18.5795185 4.75957952,18.5795185 C4.29704985,18.5795185 3.93896236,18.5795185 2.92438115,18.0871482 L0.83553747,16.8786029 C0.313326551,16.5801967 0,16.0281451 0,15.4313327 L0,6.25534079 C0,5.65852831 0.313326551,5.10647677 0.83553747,4.80807053 L8.78806375,0.212614446 C9.29535436,-0.0708714819 9.9667684,-0.0708714819 10.4591387,0.212614446 L18.411665,4.80807053 C18.9189556,5.10647677 19.2472024,5.65852831 19.2472024,6.25534079 L19.2472024,15.4313327 C19.2472024,16.0281451 18.9338759,16.5801967 18.411665,16.8786029 L10.4591387,21.474059 C10.2054934,21.6232621 9.92200746,21.6978637 9.62360122,21.6978637" id="Path"></path>
                    <path d="M12.0854527,15.3865717 C8.60902001,15.3865717 7.87792472,13.7900983 7.87792472,12.4472703 C7.87792472,12.3129875 7.9823669,12.2234656 8.1017294,12.2234656 L9.13123093,12.2234656 C9.25059342,12.2234656 9.34011529,12.3129875 9.35503561,12.4174296 C9.50423872,13.4618515 9.9667684,13.9840624 12.0705324,13.9840624 C13.7416073,13.9840624 14.4577823,13.6110546 14.4577823,12.7158359 C14.4577823,12.2085453 14.2488979,11.8206172 11.6527636,11.5669719 C9.4743981,11.3580875 8.13157002,10.8657172 8.13157002,9.134961 C8.13157002,7.53848762 9.48931841,6.58358766 11.7572058,6.58358766 C14.3085792,6.58358766 15.5618854,7.46388606 15.7260088,9.35876568 C15.7260088,9.41844693 15.7110885,9.49304849 15.6663276,9.53780943 C15.6215666,9.58257036 15.5618854,9.61241099 15.5022041,9.61241099 L14.4727026,9.61241099 C14.3682604,9.61241099 14.2787386,9.53780943 14.2488979,9.43336724 C13.9952526,8.32926416 13.3984401,7.98609698 11.7721261,7.98609698 C9.93692777,7.98609698 9.7280434,8.6276704 9.7280434,9.10512038 C9.7280434,9.68701255 9.98168871,9.85113598 12.4435402,10.1793828 C14.8904713,10.5076297 16.0393354,10.9552391 16.0393354,12.6710749 C16.0393354,14.4018311 14.5920651,15.3865717 12.0854527,15.3865717 M21.7538149,5.67344863 L22.0223805,5.67344863 C22.2461851,5.67344863 22.2760258,5.52424551 22.2760258,5.43472364 C22.2760258,5.19599864 22.1119023,5.19599864 22.0223805,5.19599864 L21.7538149,5.19599864 L21.7538149,5.67344863 Z M21.425568,4.91251272 L22.0223805,4.91251272 C22.2312648,4.91251272 22.6191929,4.91251272 22.6191929,5.36012208 C22.6191929,5.67344863 22.4103086,5.74805019 22.2909461,5.77789081 C22.5296711,5.79281112 22.5445914,5.94201424 22.574432,6.16581892 C22.5893523,6.30010173 22.6191929,6.53882672 22.6639539,6.61342828 L22.3058664,6.61342828 C22.2909461,6.53882672 22.2461851,6.09121736 22.2461851,6.07629705 C22.2163445,5.97185487 22.1865039,5.92709393 22.0671414,5.92709393 L21.7687352,5.92709393 L21.7687352,6.61342828 L21.4404883,6.61342828 L21.4404883,4.91251272 L21.425568,4.91251272 Z M20.7243133,5.77789081 C20.7243133,6.49406579 21.3062055,7.06103764 22.0074602,7.06103764 C22.7236351,7.06103764 23.290607,6.47914547 23.290607,5.77789081 C23.290607,5.06171584 22.7087148,4.49474398 22.0074602,4.49474398 C21.3062055,4.49474398 20.709393,5.04679552 20.7243133,5.77789081 M23.529332,5.77789081 C23.529332,6.62834859 22.8429976,7.31468294 21.9925398,7.31468294 C21.1570024,7.31468294 20.4557477,6.62834859 20.4557477,5.77789081 C20.4557477,4.91251272 21.1719227,4.24109868 21.9925398,4.24109868 C22.8280773,4.24109868 23.529332,4.91251272 23.529332,5.77789081" id="Shape"></path>
                </g>
                <path d="M18.889115,18.0162767 C18.889115,17.6432689 18.6951509,17.315022 18.3818243,17.1359783 L9.95184808,12.2868769 C9.80264496,12.197355 9.65344184,12.1525941 9.48931841,12.1525941 L9.39979654,12.1525941 C9.23567311,12.1525941 9.07154968,12.197355 8.93726687,12.2868769 L0.507290607,17.1359783 C0.193964056,17.315022 0,17.6581892 0,18.0162767 L0.014920312,31.0715497 C0.014920312,31.2505934 0.104442184,31.4147169 0.268565615,31.5042387 C0.417768735,31.5937606 0.611732791,31.5937606 0.775856222,31.5042387 L5.78908104,28.6544591 C6.1024076,28.4604951 6.29637165,28.1322482 6.29637165,27.7741607 L6.29637165,21.6717531 C6.29637165,21.3136656 6.49033571,20.9704985 6.80366226,20.7914547 L8.93726687,19.5679891 C9.1013903,19.4784673 9.26551373,19.4337063 9.44455748,19.4337063 C9.62360122,19.4337063 9.80264496,19.4784673 9.95184808,19.5679891 L12.0854527,20.7914547 C12.3987792,20.9704985 12.5927433,21.3136656 12.5927433,21.6717531 L12.5927433,27.7741607 C12.5927433,28.1322482 12.7867074,28.4754154 13.1000339,28.6544591 L18.1132587,31.519159 C18.2773822,31.6086809 18.4713462,31.6086809 18.6205493,31.519159 C18.7697525,31.4296372 18.8741946,31.2655137 18.8741946,31.08647 L18.889115,18.0162767 Z M58.6517464,24.819939 C58.6517464,24.9094608 58.6069854,24.9989827 58.5174635,25.0437436 L55.622923,26.7148186 C55.5483215,26.7595795 55.4438793,26.7595795 55.3692777,26.7148186 L52.4747372,25.0437436 C52.4001356,24.9989827 52.3404544,24.9094608 52.3404544,24.819939 L52.3404544,21.4777891 C52.3404544,21.3882672 52.3852153,21.2987453 52.4598169,21.2539844 L55.3543574,19.5829095 C55.428959,19.5381485 55.5334012,19.5381485 55.6080027,19.5829095 L58.5025432,21.2539844 C58.5771448,21.2987453 58.636826,21.3882672 58.636826,21.4777891 L58.6517464,24.819939 Z M59.4276026,0.0671414039 C59.2634791,-0.022380468 59.0844354,-0.022380468 58.920312,0.0671414039 C58.7711089,0.156663276 58.6666667,0.320786707 58.6666667,0.499830451 L58.6666667,13.4357409 C58.6666667,13.5700237 58.5920651,13.6744659 58.4876229,13.7490675 C58.3831807,13.8087487 58.2488979,13.8087487 58.1295354,13.7490675 L56.0257714,12.5405222 C55.7124449,12.3614785 55.3245168,12.3614785 55.0111902,12.5405222 L46.581214,17.4045439 C46.2678874,17.5835877 46.0739234,17.9267548 46.0739234,18.2848423 L46.0739234,28.0128857 C46.0739234,28.3709732 46.2678874,28.7141404 46.581214,28.8931841 L55.0111902,33.7572058 C55.3245168,33.9362496 55.7124449,33.9362496 56.0257714,33.7572058 L64.4557477,28.8931841 C64.7690743,28.7141404 64.9630383,28.3709732 64.9630383,28.0128857 L64.9630383,3.76737877 C64.9630383,3.39437097 64.7690743,3.0512038 64.4408274,2.87216005 L59.4276026,0.0671414039 Z M87.4927094,21.3882672 C87.8060359,21.2092235 88,20.8660563 88,20.5079688 L88,18.1505595 C88,17.792472 87.8060359,17.4493048 87.4927094,17.2702611 L79.1224144,12.4062394 C78.8090878,12.2271957 78.4211597,12.2271957 78.1078332,12.4062394 L69.6778569,17.2702611 C69.3645303,17.4493048 69.1705663,17.792472 69.1705663,18.1505595 L69.1705663,27.8786029 C69.1705663,28.2516107 69.3645303,28.5798576 69.6778569,28.7589013 L78.0481519,33.5334012 C78.3614785,33.7124449 78.7344863,33.7124449 79.0478128,33.5334012 L84.1057986,30.7134622 C84.269922,30.6239403 84.3594439,30.4598169 84.3594439,30.2658528 C84.3594439,30.0868091 84.2550017,29.9077653 84.1057986,29.8182435 L75.6459817,24.9840624 C75.4818583,24.8945405 75.3923364,24.7304171 75.3923364,24.5513733 L75.3923364,21.4927094 C75.3923364,21.3136656 75.4818583,21.1495422 75.6459817,21.0451 L78.2868769,19.5232282 C78.4510003,19.4337063 78.6300441,19.4337063 78.7941675,19.5232282 L81.4350627,21.0451 C81.5991862,21.1346219 81.688708,21.2987453 81.688708,21.4777891 L81.688708,23.8799593 C81.688708,24.0590031 81.7931502,24.2231265 81.9423533,24.3275687 C82.1064768,24.4170905 82.3004408,24.4170905 82.4496439,24.3275687 L87.4927094,21.3882672 Z" id="Shape" fill="#333333"></path>
                <path d="M78.4957613,20.9406579 C78.5554425,20.9108172 78.6300441,20.9108172 78.6897253,20.9406579 L80.301119,21.8806375 C80.3608003,21.9104781 80.4055612,21.9850797 80.4055612,22.0447609 L80.4055612,23.9097999 C80.4055612,23.9844015 80.3757206,24.0440827 80.301119,24.0739234 L78.6897253,25.013903 C78.6300441,25.0437436 78.5554425,25.0437436 78.4957613,25.013903 L76.8843676,24.0739234 C76.8246863,24.0440827 76.7799254,23.9694812 76.7799254,23.9097999 L76.7799254,22.0447609 C76.7799254,21.9701594 76.809766,21.9104781 76.8843676,21.8806375 L78.4957613,20.9406579 Z" id="Path" fill="#689F63"></path>
                <path d="M31.9742286,12.4659207 L23.5890132,17.3001017 C23.2756867,17.4791455 23.0817226,17.8223126 23.0817226,18.1804001 L23.0817226,27.8636826 C23.0817226,28.2217701 23.2756867,28.5649373 23.5890132,28.743981 L31.9742286,33.5781621 C32.2875551,33.7572058 32.6754832,33.7572058 32.9888098,33.5781621 L41.3740251,28.743981 C41.6873516,28.5649373 41.8813157,28.2217701 41.8813157,27.8636826 L41.8813157,18.1804001 C41.8813157,17.8223126 41.6873516,17.4791455 41.3740251,17.3001017 L32.9888098,12.4659207 C32.8246863,12.3763988 32.6605629,12.3316378 32.4815192,12.3316378 C32.3024754,12.3316378 32.1234317,12.3614785 31.9742286,12.4659207" id="Path" fill="url(#linearGradient-1)" fill-rule="nonzero"></path>
                <path d="M23.290607,28.4754154 C23.3652085,28.5798576 23.4696507,28.6693795 23.5890132,28.743981 L30.7806036,32.8918277 L31.9742286,33.5781621 C32.1532723,33.6826043 32.3621567,33.7273652 32.5561207,33.7124449 C32.615802,33.7124449 32.6904035,33.6975246 32.7500848,33.6826043 L41.5829095,17.4940658 C41.5083079,17.4194642 41.4337063,17.359783 41.3441845,17.3001017 L35.8535097,14.1369956 L32.9738895,12.4510003 C32.8843676,12.4062394 32.7948457,12.3763988 32.7053238,12.3465582 L23.290607,28.4754154 Z" id="Path" fill="url(#linearGradient-2)" fill-rule="nonzero"></path>
                <path d="M32.377077,12.3316378 C32.2427942,12.3465582 32.093591,12.3913191 31.9742286,12.4659207 L23.6188538,17.2851814 L32.6307223,33.6975246 C32.7500848,33.6826043 32.8843676,33.6378433 32.9888098,33.5781621 L41.3740251,28.743981 C41.6276704,28.5947779 41.8067141,28.3411326 41.8663954,28.0576467 L32.6754832,12.3465582 C32.6008817,12.3316378 32.5412004,12.3316378 32.4665988,12.3316378 C32.4367582,12.3316378 32.4069176,12.3316378 32.377077,12.3316378" id="Path" fill="url(#linearGradient-3)" fill-rule="nonzero"></path>
            </g>
        </g>
    </g>
</svg>