<?xml version="1.0" encoding="UTF-8"?>
<svg width="120px" height="120px" viewBox="0 0 120 120" version="1.1" xmlns="http://www.w3.org/2000/svg" xmlns:xlink="http://www.w3.org/1999/xlink">
    <title>Group</title>
    <defs>
        <linearGradient x1="13.1240191%" y1="11.6996305%" x2="79.5070766%" y2="78.4532626%" id="linearGradient-1">
            <stop stop-color="#387EB8" offset="0%"></stop>
            <stop stop-color="#366994" offset="100%"></stop>
        </linearGradient>
        <linearGradient x1="19.2647686%" y1="20.315846%" x2="90.5604163%" y2="88.7730019%" id="linearGradient-2">
            <stop stop-color="#FFE052" offset="0%"></stop>
            <stop stop-color="#FFC331" offset="100%"></stop>
        </linearGradient>
    </defs>
    <g id="Symbols" stroke="none" stroke-width="1" fill="none" fill-rule="evenodd">
        <g id="Group">
            <g id="icon-txt" fill="#FFFFFF">
                <rect id="Mask" x="0" y="0" width="120" height="120" rx="60"></rect>
            </g>
            <g id="Python-logo-notext" transform="translate(24.000000, 24.000000)" fill-rule="nonzero">
                <path d="M35.9275386,0 C17.5537893,0 18.7011646,7.96796609 18.7011646,7.96796609 L18.7216478,16.222697 L36.2552699,16.222697 L36.2552699,18.7011646 L11.7573587,18.7011646 C11.7573587,18.7011646 0,17.367773 0,35.9070554 C0,54.4463339 10.2620849,53.7888919 10.2620849,53.7888919 L16.3865627,53.7888919 L16.3865627,45.1859465 C16.3865627,45.1859465 16.0564377,34.9238617 26.4847819,34.9238617 C36.9131248,34.9238617 43.8750215,34.9238617 43.8750215,34.9238617 C43.8750215,34.9238617 53.6455095,35.0818019 53.6455095,25.4811049 C53.6455095,15.8804106 53.6455095,9.60662236 53.6455095,9.60662236 C53.6455095,9.60662105 55.1289391,0 35.9275386,0 Z M26.2594667,5.5509481 C28.0039336,5.5509481 29.41388,6.96089449 29.41388,8.70536141 C29.41388,10.4498283 28.0039336,11.8597747 26.2594667,11.8597747 C24.5149997,11.8597747 23.1050533,10.4498283 23.1050533,8.70536141 C23.1050533,6.96089449 24.5149997,5.5509481 26.2594667,5.5509481 Z" id="path8615" fill="url(#linearGradient-1)"></path>
                <path d="M36.4493523,72 C54.8231069,72 53.6757263,64.0320339 53.6757263,64.0320339 L53.6552431,55.777303 L36.1216211,55.777303 L36.1216211,53.2988354 L60.6195322,53.2988354 C60.6195322,53.2988354 72.3768909,54.6322231 72.3768909,36.092938 C72.3768909,17.5536615 62.1148061,18.2111035 62.1148061,18.2111035 L55.9903283,18.2111035 L55.9903283,26.8140469 C55.9903283,26.8140469 56.3204585,37.0761318 45.8921091,37.0761318 C35.4637648,37.0761318 28.5018681,37.0761318 28.5018681,37.0761318 C28.5018681,37.0761318 18.7313801,36.9181915 18.7313801,46.5188951 C18.7313801,56.1195855 18.7313801,62.3933776 18.7313801,62.3933776 C18.7313801,62.3933776 17.2479505,72 36.4493523,72 Z M46.1174243,66.4490519 C44.3729567,66.4490519 42.963011,65.0391062 42.963011,63.2946386 C42.963011,61.550171 44.3729567,60.1402253 46.1174243,60.1402253 C47.8618919,60.1402253 49.2718376,61.550171 49.2718376,63.2946386 C49.2718376,65.0391062 47.8618919,66.4490519 46.1174243,66.4490519 Z" id="path8620" fill="url(#linearGradient-2)"></path>
            </g>
        </g>
    </g>
</svg>