<?xml version="1.0" encoding="UTF-8"?>
<svg width="120px" height="120px" viewBox="0 0 120 120" version="1.1" xmlns="http://www.w3.org/2000/svg" xmlns:xlink="http://www.w3.org/1999/xlink">
    <title>Group</title>
    <g id="Symbols" stroke="none" stroke-width="1" fill="none" fill-rule="evenodd">
        <g id="Group">
            <g id="icon-txt" fill="#FFFFFF">
                <rect id="Mask" x="0" y="0" width="120" height="120" rx="60"></rect>
            </g>
            <g id="Swift_logo" transform="translate(23.961538, 27.435500)" fill="#F05138" fill-rule="nonzero">
                <path d="M65.9970937,45.3241353 C65.9948456,45.3212449 65.9927581,45.3191573 65.9903494,45.3164275 C66.0958507,44.9573697 66.2047242,44.6005601 66.2970579,44.2325098 C70.2553644,28.4620706 60.5946878,9.81708194 44.2468015,0 C51.4107743,9.71174121 54.578383,21.4748969 51.7640511,31.7619976 C51.513064,32.6795539 51.2113335,33.5601768 50.877808,34.4160702 C50.5158598,34.1782507 50.0598115,33.908315 49.4473579,33.5706145 C49.4473579,33.5706145 33.1855427,23.5300046 15.5604001,5.77061678 C15.0979285,5.30445192 24.9588489,19.8647573 36.1498567,31.6881306 C30.8773602,28.7291158 16.1836125,18.0381554 6.88151189,9.5243439 C8.02436251,11.4302725 9.38367548,13.2655457 10.877876,15.0324117 C18.6459522,24.8838579 28.776487,37.0389903 40.9133133,46.3727252 C32.3858524,51.5912667 20.3363819,51.9970533 8.33926064,46.378185 C5.37189568,44.9875588 2.5822932,43.3096544 0,41.403244 C5.07835473,49.5262029 12.8997436,56.5345733 22.4191095,60.626001 C33.77134,65.5045937 45.0603017,65.1737981 53.4682908,60.70597 L53.461707,60.7156048 C53.5000857,60.6913572 53.5489021,60.6648614 53.5887261,60.6402926 C53.9339739,60.4546617 54.2766525,60.2656586 54.6117837,60.0660571 C58.6515045,57.9691985 66.6307439,55.8418295 70.9135834,64.1749881 C71.9624945,66.214359 74.1913503,55.4066566 65.9970937,45.3241353 Z" id="Path"></path>
            </g>
        </g>
    </g>
</svg>