<?xml version="1.0" encoding="UTF-8"?>
<svg width="120px" height="120px" viewBox="0 0 120 120" version="1.1" xmlns="http://www.w3.org/2000/svg" xmlns:xlink="http://www.w3.org/1999/xlink">
    <title>Group</title>
    <g id="Symbols" stroke="none" stroke-width="1" fill="none" fill-rule="evenodd">
        <g id="Group">
            <g id="icon-txt" fill="#FFFFFF">
                <rect id="Mask" x="0" y="0" width="120" height="120" rx="60"></rect>
            </g>
            <g id="Firebase_Logo" transform="translate(31.052000, 20.000000)" fill-rule="nonzero">
                <path d="M0,64.5473582 L9.84682235,1.53866984 C9.96718989,0.765924831 10.5681731,0.156762491 11.339209,0.025774276 C12.110245,-0.105213939 12.8785952,0.271636591 13.2472666,0.961308463 L23.4305932,19.9547827 L27.4896408,12.226417 C27.8039881,11.6288519 28.4237101,11.2546871 29.0989769,11.2546871 C29.7742438,11.2546871 30.3939047,11.6288519 30.708313,12.226417 L58.1894085,64.5473582 L0,64.5473582 L0,64.5473582 Z" id="Path" fill="#FFA000"></path>
                <polygon id="Path" fill="#F57C00" points="34.0182985 40.00306 23.4259543 19.945749 6.10383107e-05 64.5473582"></polygon>
                <path d="M58.1898358,64.5473582 L50.6479421,17.8772828 C50.5339836,17.2070821 50.0556874,16.6565165 49.4079488,16.4489863 C48.7602103,16.241456 48.0513113,16.4141944 47.5702684,16.894688 L6.10383107e-05,64.5466867 L26.3218559,79.3078256 C27.9747733,80.2307248 29.9878168,80.2307248 31.6407343,79.3078256 L58.1898358,64.5466867 L58.1898358,64.5473582 Z" id="Path" fill="#FFCA28"></path>
            </g>
        </g>
    </g>
</svg>