<?xml version="1.0" encoding="UTF-8"?>
<svg width="120px" height="120px" viewBox="0 0 120 120" version="1.1" xmlns="http://www.w3.org/2000/svg" xmlns:xlink="http://www.w3.org/1999/xlink">
    <title>Group</title>
    <g id="Symbols" stroke="none" stroke-width="1" fill="none" fill-rule="evenodd">
        <g id="Group">
            <g id="icon-txt" fill="#FFFFFF">
                <rect id="Mask" x="0" y="0" width="120" height="120" rx="60"></rect>
            </g>
            <g id="Group-8" transform="translate(32.000000, 20.000000)">
                <polygon id="Fill-1" fill="#E5A329" points="28.4160061 15.6792854 0 15.6792854 5.32478207 73.4539117 28.4160061 80 51.4987635 73.4539117 56.8327177 15.6792854"></polygon>
                <polygon id="Fill-2" fill="#F0BE22" points="28.4162883 20.3857239 28.4162883 75.1074376 47.1147612 69.8066442 51.6683776 20.3857239"></polygon>
                <polygon id="Fill-3" fill="#FEFEFE" points="43.292729 27.4749442 14.5324147 27.4749442 12.533593 49.1070918 12.5759259 48.9716263 37.0062829 48.9716263 36.209012 58.1211922 28.4162178 60.3683674 20.5041857 58.0880314 20.0293509 52.5501734 12.846857 52.5501734 13.8734315 63.6167173 28.4162178 67.7462985 42.959004 63.6167173 44.960648 41.8991981 19.0373483 41.8991981 19.3675454 34.6574381 37.3611743 34.6574381 37.6257554 38.8025414 44.8724543 38.8025414"></polygon>
                <path d="M20.0296331,52.5502439 L12.8471392,52.5502439 L13.8730081,63.6160823 L28.4165,67.7371969 L28.4165,60.3684379 L20.5044679,58.088102 L20.0296331,52.5502439 Z M28.4165,27.4750147 L14.5319914,27.4750147 L12.5331696,49.1071624 L12.5762082,48.9716969 L28.4165,48.9716969 L28.4165,41.8992687 L20.0373941,41.8992687 L20.3675913,34.6575086 L28.4165,34.6575086 L28.4165,27.4750147 Z" id="Fill-4" fill="#EAEAEA"></path>
                <polygon id="Fill-5" fill="#231F20" points="22.8858386 0 22.8858386 7.15709412 17.8319875 7.15709412 17.8319875 10.7864407 22.8858386 10.7864407 25.5916209 10.7864407 26.5074241 10.7864407 26.5074241 0"></polygon>
                <path d="M39.0008714,0.054962306 L30.1857359,0.054962306 L30.1857359,3.83247433 C31.3640036,5.01144754 31.9799483,5.57588714 33.685967,7.28190583 C32.68832,7.28190583 30.1857359,7.28543358 30.1857359,7.28543358 L30.1857359,10.7313373 L39.0008714,10.7313373 L39.0008714,7.28472803 L35.4801794,3.83247433 L39.0008714,3.83247433 L39.0008714,0.054962306 Z" id="Fill-6" fill="#231F20"></path>
            </g>
        </g>
    </g>
</svg>