<?xml version="1.0" encoding="UTF-8"?>
<svg id="New_Layer" data-name="New Layer" xmlns="http://www.w3.org/2000/svg" viewBox="0 0 1687.01 736.32">
  <defs>
    <style>
      .cls-1 {
        fill: none;
        stroke: #1d1d1b;
        stroke-miterlimit: 10;
        stroke-width: 47px;
      }

      .cls-1, .cls-2 {
        fill-rule: evenodd;
      }

      .cls-2 {
        fill: #080405;
      }

      .cls-2, .cls-3 {
        stroke-width: 0px;
      }

      .cls-3 {
        fill: #fff;
      }
    </style>
  </defs>
  <g>
    <polygon class="cls-2" points="0 347.12 0 694.25 279.3 692.85 558.03 690.74 558.03 347.12 558.03 3.51 279.3 1.4 0 0 0 347.12"/>
    <path class="cls-2" d="M594.85,497.89v196.35h45.32c77.05,0,90.64-17.53,90.64-117.81,0-51.19-1.7-65.92-10.76-79.24-6.8-10.52-9.06-20.34-6.23-27.35,15.86-37.17,9.63-142.36-9.06-159.19-6.23-5.61-27.76-9.12-60.05-9.12h-49.85v196.35ZM682.1,361.85c6.8,21.04,3.4,77.14-5.67,92.57-5.67,9.82-14.16,15.43-25.49,15.43h-16.43v-119.21h22.09c14.73,0,23.23,3.51,25.49,11.22ZM690.03,527.35c9.06,11.22,9.06,91.16,0,102.38-3.97,4.91-17.56,8.42-31.16,8.42h-24.36v-119.21h24.36c13.6,0,27.19,3.51,31.16,8.42Z"/>
    <path class="cls-2" d="M772.18,312.06c-47.59,25.25-47.02,142.36,1.7,164.8,7.93,4.21,60.05,7.01,116.14,7.01,114.44,0,127.47-4.21,143.33-44.88,17.56-45.58,6.23-98.88-26.06-123.42-17-12.62-28.33-14.03-117.84-14.03-71.38.7-104.24,3.51-117.27,10.52ZM991.42,364.66c6.23,7.71,11.33,20.34,11.33,28.05s-5.1,20.34-11.33,28.05c-10.2,12.62-18.7,14.03-103.11,14.03-77.05,0-92.91-2.1-101.98-11.92-12.46-14.03-13.03-42.78-.57-59.61,7.93-11.22,19.26-12.62,101.98-12.62s93.48,1.4,103.67,14.03Z"/>
    <path class="cls-2" d="M1054.88,495.79l1.7,194.95,18.7,2.1,18.13,2.1v-87.66c0-48.39,2.27-88.36,4.53-88.36s13.03,39.27,23.23,87.66l19.26,87.66h18.7c23.79,0,23.79-.7,2.27-95.37l-16.43-73.63,22.09-26.65,22.66-26.65v-61.01c0-63.11-7.93-96.77-25.49-105.19-5.1-2.1-32.29-4.21-60.05-4.21h-50.42l1.13,194.25ZM1143.25,359.05c9.63,11.92,9.06,93.27-1.13,103.09-4.53,4.91-17,7.71-27.19,6.31l-18.7-2.1-1.7-58.2-1.7-57.5h22.09c11.9,0,24.36,3.51,28.33,8.42Z"/>
    <path class="cls-2" d="M1206.71,497.89v196.35h39.66l.57-131.84c0-83.45,2.27-124.82,5.1-113.6,2.83,9.82,18.13,68.72,33.99,131.84l29.46,155.68h48.72l2.27-82.05c1.7-22.44,3.4-110.8,3.97-197.05l1.13-155.68h-38.52l-3.4,57.5c-2.27,32.26-3.97,89.76-4.53,128.33,0,44.18-2.27,63.81-4.53,52.59-2.83-9.82-17-67.32-31.73-128.33l-27.19-110.1h-54.95v196.35Z"/>
    <path class="cls-2" d="M1419.72,489.48c-18.13,103.09-34.56,191.44-35.69,195.65-2.27,6.31,3.97,51.19,19.26,51.19h22.66l6.8-93.27c17-120.62,15.86-117.11,39.66-117.11h20.4l14.73,82.05,14.16,82.75,21.53,2.1c18.7,2.1,20.96.7,18.13-10.52-1.7-7.01-15.86-81.35-31.16-164.8-44.19-235.62-38.52-215.99-59.49-215.99h-17.56l-33.43,187.94ZM1481.47,450.21c3.97,32.96,3.97,33.66-11.33,33.66-11.33,0-14.16-2.81-11.9-12.62,1.7-6.31,4.53-23.84,6.8-38.57,4.53-33.66,11.33-25.95,16.43,17.53Z"/>
    <path class="cls-2" d="M1518.3,304.35c0,2.1,14.16,48.39,31.16,103.79,17.56,55.4,32.29,106.59,33.99,114.31,1.13,7.71,2.27,49.79,2.27,92.57l.57,121.32h33.99v-218.79l31.73-99.58c17.56-54,32.86-103.09,34.56-107.99,2.27-5.61-3.97-8.42-18.7-8.42h-22.09l-19.83,70.83c-10.76,38.57-20.96,71.53-23.23,73.63-2.27,1.4-13.03-30.86-24.93-70.83l-20.96-73.63h-19.26c-10.76,0-19.26,1.4-19.26,2.81Z"/>
  </g>
  <rect class="cls-3" x="51.71" y="50.93" width="458.66" height="598.23"/>
  <path class="cls-1" d="M26.22,90.27c54.38,28.72,167.82,98.68,259.8,243.37,88.7,139.53,112.25,277.47,119.76,344.47"/>
  <path class="cls-1" d="M229.79,268.34c11.5-30.26,23.57-70.71,29.51-119.44,6.71-55.08,3.32-102.2-1.79-136.7"/>
</svg>