<?xml version="1.0" encoding="UTF-8"?>
<svg id="New_Layer" data-name="New Layer" xmlns="http://www.w3.org/2000/svg" viewBox="0 0 1061 932.73">
  <defs>
    <style>
      .cls-1 {
        fill: #080405;
        fill-rule: evenodd;
        stroke-width: 0px;
      }
    </style>
  </defs>
  <polygon class="cls-1" points="0 6.5 0 13 530.5 13 1061 13 1061 6.5 1061 0 530.5 0 0 0 0 6.5"/>
  <path class="cls-1" d="M506.5,69.5c-28.2,2.9-66.1,11.7-90.5,21-19.1,7.3-49.5,23-65,33.6-55.2,37.8-101.3,96-125.7,158.9-5.8,14.8-13.8,42.5-16.4,56.5-9.8,52-6.6,106.2,8.8,150,5.2,14.7,8.3,18.5,16.2,19.3,3.6.3,5.3-.1,8-2,7.4-5,8.7-12.4,4.7-25.5-17.2-56.1-16.2-114.5,2.9-171.8,17.1-51.1,48.3-98.7,88.2-134.7,11.1-10,29.8-24.8,31.2-24.8.4,0,1.8-1.1,3.3-2.5,2.6-2.4,2.6-2.5,1.2-7.7-1.9-7.3-1.8-11.8.7-18.3,3.8-10.1,9.3-14.5,21-16.5,5.4-.9,8.7-.8,20.1.9,7.6,1.1,17.9,3.2,22.8,4.7l9.1,2.7,11.2-3.1c55.5-15.2,118.3-14.3,172.4,2.4,39.3,12.2,72.2,30,105,56.9,7.1,5.8,35.4,34.1,40,40,1.8,2.2,5.2,6.5,7.6,9.5,9.6,12,23.8,34.7,32,51.2,22.9,46.3,33.3,95.9,30.6,145.8-1.2,23.9-5.7,48.7-11.9,66.3-5.7,16.1-2.3,25.5,9.4,26.5,9.9.8,13.8-4,21.2-26.4,4.4-13.3,6.7-23,10-41.4,2.1-11.9,3-58.2,1.5-74.7-3.1-32.9-14.9-74.2-30.4-106.3-32.8-68.2-88.1-124.5-154.2-157-19.8-9.8-35.4-16-53.5-21.3-20.3-6-44.6-10.6-67.5-12.7-14.5-1.3-49-1.1-64,.5Z"/>
  <path class="cls-1" d="M396,125c-4,4-1.8,12,9.3,35.1,10.3,21.3,14.1,31.1,13.4,34.7-.3,1.5-2.1,6.3-4,10.7-6.8,15.2-7.3,35.7-1.3,53.1,3.6,10.6,5.2,12.7,9.1,12,4.1-.8,5.2.5,6.7,7.7l1.2,5.6-3.9,5.7c-6.2,8.9-20.2,20.5-43,35.5-43.1,28.3-59.4,41.3-74.7,59.8-24.6,29.7-38.8,58.7-46.5,94.6-2.6,12.2-2.8,14.5-2.8,37.5s.2,25.3,2.3,33.6c1.3,5.1,3.6,11.2,5.2,13.8,3.3,5.2,9.7,10.1,14.9,11.7,2.4.6,45.3.9,130.6.7l127-.3.3-2.4c.9-6.4-7.8-18.6-16.4-22.8-4.8-2.5-8.1-3.1-20.9-4.3-13-1.2-15.9-2.3-20-7.7-4.7-6.2-7-16.3-6.9-31.8,0-25.8,7-43.5,31.4-80,16.1-24,23.1-37.3,27.7-52.3,2.6-8.3,2.7-9.7,2.7-31.2,0-19.8-.2-23.5-2.1-31-3.6-14-3.9-13.1,4.1-15.2,3.7-1,8.7-2.9,11-4.3,5-2.9,11.5-9.6,14.6-15,1.3-2.2,4.3-6.1,6.7-8.7,4-4.3,4.3-5.1,4.3-10.1,0-7.4-2.2-9.9-11.5-13.4-8.6-3.2-15.2-7.7-17.8-12.1l-1.8-3.2,4.3-4.6c4.1-4.4,4.3-5,4.3-10.8,0-4.8-.6-7.4-2.9-11.9-1.8-3.4-2.6-6.1-2-6.6.5-.5,2.7-1.4,4.9-2.1,9.6-3,26.1-13.2,41.5-25.5,8.5-6.9,11.3-9.9,10.8-12.2-.6-3.1-33.8-14.5-48.1-16.4-18.2-2.5-32.3,2.9-48.5,18.5-5.4,5.3-6.5,5.9-8,4.8-.9-.7-4.4-2.6-7.7-4.3-5.5-2.7-6.7-3-14.4-2.7l-8.3.3-1.7-4.2c-4-10.4-12.6-18.2-24.6-22.3-6.3-2.2-37.6-8-43.2-8-2,0-4.1.8-5.3,2ZM433.7,526c1.5,5.2,3.5,10.8,4.5,12.5,1,1.6,1.8,4,1.8,5.3v2.4l-13.1-.4c-11.6-.3-13.2-.5-14.5-2.2-1.8-2.5-1.2-4.3,4.1-13.1,2.3-3.9,5.5-9.5,7-12.5s3.5-6.3,4.4-7.4c1.5-1.7,1.6-1.6,2.4,2,.5,2.2,2,8.2,3.4,13.4Z"/>
  <path class="cls-1" d="M661.4,315.4c-4.1,6.4-5.7,24.6-3.3,36.9,1.1,5.3,1,6.1-1.5,11.6-5.2,11.7-4.3,24.9,2.5,34.9,3.6,5.3,3.6,7.6.4,10.8-4.2,4.2-8.5,5.4-19.9,5.4-28.8,0-47.6,7-66.7,24.8-15.3,14.3-26.3,35.8-29.9,58.5-1.5,9.2-.8,29.5,1.4,37.7,4.8,18.4,14.7,33.1,26.4,39.1l4.7,2.4,56.5.3c31.1.2,58.9,0,61.8-.3,5.5-.7,10.8-4.2,13.5-8.9.6-1.2,1.4-8.1,1.7-15.5l.5-13.4,4.4,8.4c9.7,18.5,16,27,21.8,29.5,6.9,3,16.5.7,19.7-4.6,2-3.6,1.5-6.1-2.3-11-6.4-8.1-9.1-17.5-9.1-32.1,0-11.4,2.9-23.9,9.2-39.4,10.4-25.6,10.7-45.6,1.1-64.8l-3.4-6.8,6.8-7.3c7.9-8.4,11.6-14.8,13.9-23.5,2-7.9,1.2-14.1-2.8-24-2.9-6.8-3-7.7-1.9-12.3,1.5-6.8,1.4-23.2-.3-29.7-1.5-5.5-4-9.1-6.2-9.1-1.6,0-11.5,8.1-20.7,16.8-5.9,5.6-7.1,6.3-9.5,5.8-12.7-3-22.7-3-35.3,0-2.2.5-3.8-.5-11-7.3-18-16.8-19.4-17.6-22.5-12.9ZM688,368c1.2,2.3,3.7,2.5,6.3.5,2.9-2.1,4.7-.8,4.7,3.4s-.7,5.4-3.7,7c-7.7,4-16.2-3.6-12.3-11,1.4-2.5,3.6-2.4,5,.1ZM743.4,368.2c2.4,3.4,2,7.3-1,9.7-5.9,4.7-14.4.6-14.4-6.9,0-2.4,1.8-3.6,3.3-2.1,1.8,1.8,5.6,1.3,6.9-.9,1.7-2.6,3.3-2.5,5.2.2Z"/>
  <path class="cls-1" d="M112.2,497.8c-5.6,5.2-5.1,12,1.2,16.5,3,2.2,3.7,2.2,33.1,2.3,42,.1,44.7-.1,48.4-3.6,1.6-1.6,3.2-3.8,3.6-4.9,1.1-3.5-1.3-8.8-4.9-11.1-3.2-1.9-4.8-2-40.9-2h-37.5l-3,2.8Z"/>
  <path class="cls-1" d="M884.8,496.7c-4.8,3-6,8.1-3.3,13.8,2.8,5.8,3.7,5.9,40.5,6.3,40.8.4,43.3.2,47.7-4.5,4.3-4.5,4.5-9,.4-13.5l-2.9-3.3-39.9-.2c-35.8-.3-40.1-.1-42.5,1.4Z"/>
  <path class="cls-1" d="M93.6,553c-4.3.8-8.2,4.4-9.2,8.6-.9,3.7,1.7,9.6,5.4,12,4.7,3.2,16.7,3.7,83.8,3.2,55.6-.4,58.2-.5,61.5-2.4,4.3-2.4,7.3-8.3,6.4-12.3-.8-3.9-4.9-7.8-9.4-9.1-4.2-1.2-132.4-1.2-138.5,0Z"/>
  <path class="cls-1" d="M789.9,552.9c-4.5,1.4-6.8,3.1-8.4,6.1-2.6,5-1.9,8.8,2.3,13l3.7,3.8,12.5.7c6.9.3,52.1.5,100.5.3,96.9-.3,91.3,0,96.4-6.4,4.7-6,1.1-15.2-6.7-17.4-4.4-1.2-196.3-1.3-200.3-.1Z"/>
  <path class="cls-1" d="M141.2,610.5c-5.5,1.2-10.6,3.8-13.7,7-3.9,4-7.6,10-9.4,15.3-2.1,6-2.1,7.8-2.1,84.5,0,86.5-.1,84.5,6.3,92.8,1.7,2.3,5.5,5.5,8.4,7.1,13.4,7.5,28.9,2.9,37.1-11.1l2.7-4.6.5-37c.3-23.4.9-37,1.5-36.9.5.1,3.5,4.4,6.5,9.6,10.4,18,16.1,22.8,26.7,22.8,3.5,0,7.4-.8,9.8-1.9,4.7-2.2,11-8.6,15.2-15.6,1.6-2.8,4.5-7.4,6.3-10.4l3.4-5.4.8,2.9c.5,1.6.8,18.2.7,36.9-.2,32.4-.1,34.2,1.9,38.6,5.8,13,20,19,33.4,13.9,6.8-2.5,13.2-8.4,16.1-14.8,2.2-4.7,2.2-4.9,2.2-87.2v-82.5l-2.7-5.8c-3.6-7.7-11.2-15-18-17.3-10.7-3.5-22.4-1.6-31.2,5.2-6.5,4.9-18.5,23.4-31.6,48.7-2.5,4.8-5,8.7-5.7,8.7-.6,0-2.6-2.6-4.4-5.8-11.9-21.2-25.1-42.4-29.3-46.9-5.8-6.4-11.5-9.9-17.6-10.8-2.5-.3-5.2-.8-6-1s-4.3.3-7.8,1Z"/>
  <path class="cls-1" d="M425.2,610.5c-2.9.8-6.2,2-7.4,2.6-4.5,2.4-11,9.5-13.6,14.8l-2.7,5.6-.3,82.4-.2,82.3,2.5,5.7c3.4,7.4,6.7,10.7,14,14.2,6.9,3.3,11.3,3.6,19.3,1.3,4.2-1.3,6.7-2.8,10.3-6.5,7.7-8,7.9-8.9,7.9-49.5,0-19.4.4-35.5.9-35.8.4-.3,3.2,3.5,6.2,8.5,11,18.5,17,23.8,26.8,23.9,11.2,0,18.7-5.8,28.1-21.9,3-5.2,6.1-9.6,6.8-9.9,1.4-.4,1.4.3,1.6,42.8.1,31,.5,33.3,6.9,40.6,5.8,6.6,10.7,8.8,19.2,8.8,5.6,0,8-.5,12.1-2.6,5.9-3.1,10.8-8.3,13.8-14.7,2.1-4.6,2.1-5.4,2.1-85.6s-.1-81.2-2-86.3c-2.3-6.2-10.2-15.5-15.4-18.1-6.3-3.2-14.5-4.4-20.4-3-14.7,3.4-19.3,8.6-39.7,44.7-5.8,10.2-11,18.7-11.5,18.9-1,.3-1.9-1-7.3-10.7-22.3-39.8-27.6-46.8-38.7-50.9-7.4-2.7-13.3-3.2-19.3-1.6Z"/>
  <path class="cls-1" d="M815,610.7c-7.3,3.8-11.3,14.2-11.3,29.3-.1,7.2.4,10.4,1.7,13,5.7,11.1,10,9.3,20.5-8.7,6.8-11.6,8.7-20.6,5.7-27.6-2.6-6.3-10.5-9.2-16.6-6Z"/>
  <path class="cls-1" d="M340.7,611.8c-6.7,2.4-13,8.1-16.4,14.9l-2.8,5.8-.3,81.4c-.3,93.3-.7,88.5,8,97.7,8.4,8.9,19.1,11.5,30,7.4,7-2.6,11.7-6.6,15.3-13.1l3-5.4.3-82.5c.2-62.2,0-83.6-.9-87-4.3-15.9-20.7-24.6-36.2-19.2Z"/>
  <path class="cls-1" d="M679.5,612.5c-36.4,6.7-66.8,33.6-79.4,70.2-6.8,20-6.8,47.7.1,67.8,11.9,34.7,43.7,62.2,78.8,68.1,38.6,6.5,77.3-10.6,99.8-43.9,1.7-2.6,3.2-5,3.2-5.3s.9-1.9,2.1-3.5c6.1-8.6,11.8-29.8,12.6-46.9.6-14.9-1.6-27.7-7.3-42-5.3-13.1-10-20.7-21.9-34.8-2.5-3-14.6-12.8-20-16.3-18.9-12.2-45.8-17.5-68-13.4ZM711.3,672.2c30.3,12.6,38,52.1,14.8,75.8-25.2,25.6-66.9,10.4-73.3-26.7-2.3-13.5,2.6-27.8,13-38.6,9.5-9.8,20.1-14,33-13.2,4.2.3,9.5,1.4,12.5,2.7Z"/>
  <path class="cls-1" d="M900.5,612c-3.3.5-8.2,1.6-11,2.5-28.6,9.5-47,32.4-48.3,60-.5,12.6.8,20,5.5,29.5,9.2,18.9,28,30.5,59.3,36.5,10.7,2.1,16.8,5,19.7,9.4,5.7,8.5.3,17.3-12.2,20.1-6.4,1.4-19.5-.1-30.1-3.5-15.9-5.2-22.7-4.2-30.4,4.1-8.5,9.2-11,19.3-6.9,27.9,2.7,5.8,7.7,10.1,17.5,14.9,13.3,6.6,22,8.7,38.1,9.3,23.5.9,41-4.2,56-16.4,7.9-6.5,9.4-8,14.3-15.2,11.7-17.1,14.7-39.3,7.9-57.6-2.8-7.5-10.9-18.6-17.5-24-10.2-8.2-27.8-15.1-47.9-18.5-7.5-1.3-14.8-4.8-16.5-8-.5-1-1-3.5-1-5.6,0-2.9.7-4.3,3.4-6.9,5.4-5.1,14.6-5.9,27.6-2.5,9.2,2.4,19,2.6,23.6.4,5-2.4,11.8-9.5,14.8-15.5,4.6-9.3,2.9-17.6-5.1-25.4-4.6-4.4-17.2-10.7-27-13.4-8.4-2.3-25.2-3.3-33.8-2.1Z"/>
  <path class="cls-1" d="M121.4,868.6c-6.1,3-6.6,10.3-1.2,14.9l3,2.5,71.3-.2,71.4-.3,3-2.9c5.1-4.9,3.5-12.2-3.1-14.5-2.1-.8-25.4-1.1-72.2-1.1-60.1,0-69.5.2-72.2,1.6Z"/>
  <path class="cls-1" d="M324.4,867.9c-3.7,1.6-4.3,5.9-4.4,31.4-.1,29.9.7,32.6,9.1,32.7,6.2,0,8.2-2.5,8.8-11.1l.6-7.4,8.5-.7c15.5-1.1,21-3.6,26.1-11.6,2.4-3.8,2.9-5.7,2.9-10.8,0-7.6-1.8-12.2-6.5-16.2-7.1-6.3-8.5-6.7-26.5-6.9-9.1-.2-17.5.1-18.6.6ZM354.4,884.3c3.3,2.2,3.7,8.4.7,11.1-2.5,2.3-13.4,3.4-15.6,1.6-1.9-1.6-2.1-12-.2-13.9,1.7-1.8,11.7-1,15.1,1.2Z"/>
  <path class="cls-1" d="M395.1,868.3c-1.5.7-2.8,2.6-3.3,4.5s-.8,14.8-.6,28.9l.3,25.5,2.8,2.4c2.8,2.4,3.1,2.4,22.5,2.4,13.9,0,20.4-.4,22.2-1.3,3.2-1.6,5.2-5.9,4.4-9.1-1.1-4.4-4.1-5.4-16.3-5.7-17.1-.4-17.3-.4-16.9-4.8l.3-3.6,11.2-.5c10.1-.5,11.4-.7,13.7-2.9,3.2-3,3.4-7.3.6-10.1-1.8-1.8-3.3-2-13.5-2-10.9,0-11.6-.1-12.4-2.2-.4-1.1-.6-3.2-.3-4.5.4-2.3.5-2.3,14.6-2.3,16.1,0,18.1-.7,19.2-6.7.6-3.3.3-4-2.5-6.5l-3.1-2.8h-20.3c-14,0-20.9.4-22.6,1.3Z"/>
  <path class="cls-1" d="M456.3,868c-3.1,1.3-5.6,5.5-4.9,8.2,1.5,5.5,3.1,6.3,13.4,6.8l9.7.5.5,22.3c.5,22,.5,22.4,2.9,24.3,3.1,2.6,9.1,2.5,12.5-.2l2.6-2v-21.3c0-15.1.3-21.5,1.2-22.4.7-.7,4.4-1.2,9.4-1.2,7.2,0,8.6-.3,10.8-2.3,4.1-3.6,4.3-7.1.8-10.7l-3-3-26.9.1c-14.7,0-27.8.4-29,.9Z"/>
  <path class="cls-1" d="M576.5,867.9c-9.4,2.3-16.8,9.6-18.1,17.6-1.6,10.7,5.4,18,20.6,21.4,12.8,3,13,3,13,5.6,0,3-3.6,3.9-11,2.5-12.2-2.3-17.9-2.4-20-.5-2,1.8-2.8,7.9-1.2,10,1.9,2.8,7.5,5.5,14.8,7,7.4,1.6,8.6,1.6,15.8.2,13.1-2.7,19.6-8.5,20.4-18.2.6-6.9-.1-9.6-3.5-13.6-3.4-3.9-8.7-6.4-18.4-8.4-11.6-2.4-11.9-2.5-11.9-4,0-2.9,4.7-4.8,10.3-4.1,15.8,2,15.4,2,18.1-.7,1.4-1.5,2.6-3.5,2.6-4.6,0-3.5-4.8-8-10.3-9.6-5.2-1.6-16-1.8-21.2-.6Z"/>
  <path class="cls-1" d="M630.3,869.4l-2.8,2.4-.3,25.8c-.2,14.2,0,26.9.3,28.2,1.5,6.1,9.5,8.3,14.9,4.1,2.5-1.9,2.6-2.5,2.6-10.9,0-6,.4-9.1,1.3-9.7,1.4-.9,20.6-.8,21.5.2.4.4.8,3.4.9,6.8s.2,7.4.2,8.9c.2,6.2,9,9.1,14.5,4.7l2.6-2v-27.9c0-31.5,0-31.7-7.6-32.7-3.3-.4-4.5-.1-7,2-2.8,2.5-2.9,2.8-2.7,10.9.4,12.6,1.1,11.9-12,11.6l-11.2-.3-.5-10.3c-.5-9.4-.7-10.6-2.9-12.3-3.3-2.7-8.4-2.4-11.8.5Z"/>
  <path class="cls-1" d="M724.3,868.8c-23.6,8.4-31,36.1-14.2,53.3,7.2,7.4,12.3,9.4,23.9,9.4,8.3,0,10.2-.3,15-2.7,7.4-3.7,13.2-9.4,16.5-16.3,2.3-5.1,2.7-6.8,2.3-13.4-.5-13-8-24-19.7-29.2-6.6-3-17.2-3.5-23.8-1.1ZM742.8,886.7c6.9,5.2,9,13,5.3,20.5-5.1,10.5-18.5,11.7-25.7,2.3-2.4-3.1-2.9-4.8-2.9-9.4,0-6.4,2.5-10.9,7.9-14.3,3.9-2.4,11.5-2,15.4.9Z"/>
  <path class="cls-1" d="M786.3,867.9c-4,1.8-4.3,3.9-4.3,31.1,0,29.8.3,31.4,6.7,32.6,7.2,1.4,11.3-3.2,11.3-12.8q0-6.6,10.6-6.8c11.3-.1,17.7-2.8,22.7-9.4,8.1-10.5,4.2-26.5-8-32.6-4.4-2.2-6.2-2.4-20.8-2.7-8.8-.2-17,.1-18.2.6ZM814.7,883.9c1.7,1.1,3.4,2.9,3.8,4.1,1.1,3.3-1.3,7.7-4.7,8.9-4.1,1.5-11.1,1.4-12.6-.1-1.6-1.6-1.6-13.5.1-14.1,3-1.3,10.4-.6,13.4,1.2Z"/>
  <path class="cls-1" d="M867.3,868.6c-6.1,3-6.6,10.3-1.1,14.9l3,2.5h48.1c46.2,0,48.3-.1,51.4-2,5.7-3.4,5.9-11,.4-14.7l-3.4-2.3h-47.6c-41.1,0-48,.3-50.8,1.6Z"/>
</svg>