<?xml version="1.0" encoding="UTF-8"?>
<svg id="New_Layer" data-name="New Layer" xmlns="http://www.w3.org/2000/svg" viewBox="0 0 1011.88 496.94">
  <defs>
    <style>
      .cls-1 {
        letter-spacing: .18em;
      }

      .cls-1, .cls-2, .cls-3 {
        font-family: BelweStd-Medium, 'Belwe Std';
        font-weight: 500;
      }

      .cls-1, .cls-2, .cls-3, .cls-4, .cls-5 {
        fill: #1d1d1b;
      }

      .cls-1, .cls-3 {
        font-size: 245.25px;
      }

      .cls-6 {
        fill: none;
        fill-rule: evenodd;
        stroke: #1d1d1b;
        stroke-linejoin: bevel;
        stroke-width: 19px;
      }

      .cls-2 {
        font-size: 235px;
        letter-spacing: .18em;
      }

      .cls-7 {
        letter-spacing: -.03em;
      }

      .cls-8 {
        letter-spacing: 0em;
      }

      .cls-9 {
        letter-spacing: -.09em;
      }

      .cls-3 {
        letter-spacing: .18em;
      }

      .cls-4 {
        font-family: BurfordRusticLine-Regular3, BurfordRusticLine;
        font-size: 107.06px;
      }

      .cls-5 {
        stroke-width: 0px;
      }
    </style>
  </defs>
  <text class="cls-2" transform="translate(331.01 206.12) scale(.75 1)"><tspan x="0" y="0">Si</tspan></text>
  <text class="cls-1" transform="translate(887.04 203.56) scale(.77 1)"><tspan x="0" y="0">o</tspan></text>
  <text class="cls-3" transform="translate(768.45 206.12) scale(.77 1)"><tspan x="0" y="0">c</tspan></text>
  <text class="cls-1" transform="translate(676.34 206.12) scale(.77 1)"><tspan x="0" y="0">r</tspan></text>
  <text class="cls-3" transform="translate(551.15 203.56) scale(.77 1)"><tspan x="0" y="0">a</tspan></text>
  <path class="cls-5" d="M90.44,336.58c3.12,16.57,5.79,33.35,11.93,49.07,6.07,15.03,14.35,21.37,27.07,7.36,6.38-7.24,11.32-16.2,13.96-25.46,1.79-6.32,1.18-12.58.9-19.19-.68-13.83.29-27.63,2.42-41.37,1.11-6.92,2.88-13.99,5.86-20.75,1.47-3.38,3.27-6.63,5.28-9.71,4.23-6.47,9-12.99,16.84-16.36,8.57-3.78,18.56-.5,25.08,5.27,16.6,13.55,13.16,33.84,12.48,52.51-.29,6.68-.45,13.3-.38,19.93.45,16.57.39,33.16,4.79,48.88,1.58,4.67,3.55,10.62,8.75,11.87,6.33.52,12.13-4.4,16.66-8.53,11.59-10.75,12.39-27.61,13.13-42.66.66-19.81,1.22-41.48,4.13-60.96,5.36-38.46,12.48-82.02,17.84-120.49,2.29-19.97,4.26-40.08,4.18-60.13-.02-6.61-.38-13.14-1.34-19.43-1-6.34-2.87-12.64-4.79-18.74-3.57-10.74-12.34-34.36-25.5-33.63-4.77.65-8.61,3.29-12.83,6.1-2.62,1.81-5.26,3.8-7.92,5.83-2.42,1.83-5.46,4.17-7.7,6.07-5.51,4.52-8.96,8.93-14.6,14.01-3.09,2.71-6.91,4.86-10.77,6.34-18.03,6.74-40.34,3.96-55.34-8.17-7.58-6.11-12.82-13.68-22.01-16.67-10.9-3.67-23.55-2.37-33.89,2.43-4.9,2.35-9.34,5.22-12,10.01-2.18,3.78-3.57,8.01-4.59,12.27-2.58,10.83-3.24,22.41-3.42,33.67-.17,16.6.7,33.28,2.55,49.79,1.53,13.33,4.4,26.26,7.45,39.38,3.49,14.91,6.05,30.19,7.59,45.43,2.02,18.55,2.37,37.25,3.33,55.86.74,13.49,2.53,26.89,4.86,40.2h0ZM89.06,336.83c-6.69-33.21-6.06-67.42-12.33-100.66-2.36-13.26-5.68-26.2-9.66-39.07-6.29-19.51-11.29-39.75-13.4-60.22-2.51-24.73-5.04-54.95,3.9-78.67,3.72-9.99,11.21-17.12,20.74-21.53,14.03-6.66,30.37-8.31,45.17-3.33,7.28,2.33,14.41,7.55,19.54,12.78,3.13,3.05,5.52,5.47,8.66,7.76,6.36,4.69,14.35,6.81,22.17,7.4,7.2.41,14.34-.6,20.59-3.91,3.93-2.23,6.29-5.22,10-8.79,4.93-4.97,10.73-9.41,16.4-13.53,9.19-6.47,19.29-14.89,31.45-14.01,24.72,2.01,35.98,43.52,38.88,63.84,1.59,14.04.58,27.82-.82,41.67-1.41,13.62-3.35,27.06-5.58,40.51-2.21,13.5-5.25,26.71-7.71,39.98-4.92,26.15-9.64,53.71-13.5,80-3.18,20.09-3.13,40.25-3.35,60.53-.16,9.34-.34,19.18-2.66,28.43-1.63,6.14-4.48,12.15-8.66,16.95-14.16,16.86-32.43,21.28-41.1-3.2-4.71-13.35-5.85-27.4-6.96-41.29-.2-2.58-.52-7.69-.62-10.27-.75-13.4.28-27.51.21-40.65-.13-5.84-.65-11.61-3.54-16.45-2.56-4.18-7.05-8.52-11.61-9.82-8.04-2.21-13.44,5.8-17.83,11.75-5.55,7.76-8.66,16.39-10.78,25.88-2.78,12.87-4.54,26.14-4.84,39.38-.1,3.35-.1,6.77-.39,10.35-.45,7.15-3.11,14.24-6.56,20.41-11.34,20.39-33,40.46-44.56,7.4-5.66-16.05-8.13-32.96-11.26-49.62h0Z"/>
  <path class="cls-5" d="M111.28,61.41c16.19,5.74,31.17,15.49,43.24,27.81,3.86,3.85,7.3,8.38,11.74,11.3,11.43,7.4,26.34,3.92,38.62.04,8.05-2.69,15.75-6.07,23.58-9.51-6.9,5.11-14.31,9.59-22.15,13.18-13.38,5.95-30.19,9.89-43.34,1.3-4.66-2.96-8.93-8.47-12.57-12.42-11.35-12.52-24.65-22.71-39.11-31.71h0Z"/>
  <path class="cls-6" d="M267.07,249.93c8.44-.32,18.85-.69,33.17-1.11,155.61-4.55,182.41,3.17,305.95,0,118.08-3.03,118-10.71,216.71-10.59,79.97.1,145.31,5.22,188.03,9.53"/>
  <path class="cls-6" d="M.31,237.17c12.61-.41,25.96-.46,39.99-.02,13.85.44,27.03,1.32,39.47,2.5"/>
  <text class="cls-4" transform="translate(308.2 354.44) scale(.5 1)"><tspan x="0" y="0">EQUI</tspan><tspan class="cls-9" x="197.1" y="0">P</tspan><tspan x="239.18" y="0">AMIEN</tspan><tspan class="cls-7" x="500.73" y="0">T</tspan><tspan x="551.9" y="0">O ODON</tspan><tspan class="cls-7" x="866.56" y="0">T</tspan><tspan class="cls-8" x="917.74" y="0">OFGLOGICO</tspan></text>
</svg>