<?xml version="1.0" encoding="UTF-8"?>
<svg xmlns="http://www.w3.org/2000/svg" viewBox="0 0 876.18 754.55">
  <defs>
    <style>
      .cls-1 {
        stroke-width: 0px;
      }

      .cls-1, .cls-2 {
        fill: #080405;
      }

      .cls-1, .cls-3 {
        fill-rule: evenodd;
      }

      .cls-4, .cls-5, .cls-3 {
        fill: #fff;
      }

      .cls-4, .cls-2, .cls-3 {
        stroke: #fff;
        stroke-miterlimit: 10;
        stroke-width: 2px;
      }

      .cls-5 {
        font-family: OrbonITCStd-Black, 'Orbon ITC Std';
        font-size: 116.06px;
        font-weight: 800;
      }
    </style>
  </defs>
  <g id="Capa_3" data-name="Capa 3">
    <ellipse class="cls-2" cx="394.71" cy="373.55" rx="349.16" ry="372.55"/>
    <ellipse class="cls-4" cx="397.85" cy="384.37" rx="241.31" ry="245.13"/>
    <path class="cls-3" d="M1,411.56v-92.16l163.13-.61c-2.71,12.77-5.11,27.35-6.62,43.52-1.71,18.25-1.93,34.84-1.41,49.26H1Z"/>
    <path class="cls-3" d="M792.94,408.89v-92.16c-54.07-.04-108.13-.08-162.2-.12,3.53,11.31,7.06,25.93,8.78,43.24,2.01,20.2.92,37.58-.8,50.65,51.41-.53,102.81-1.07,154.22-1.6Z"/>
  </g>
  <g id="New_Layer" data-name="New Layer">
    <path class="cls-1" d="M299.54,246.22c-1.64,1.84-3.93,6.87-5.24,11.4-3.11,10.06-.82,24.13,5.07,31,3.44,4.19,4.75,4.53,15.06,4.36,7.69-.17,12.77.67,16.53,2.68,10.97,5.87,15.39,21.28,8.19,28.99-4.75,5.2-2.13,8.21,4.26,5.36,6.22-2.85,9.17-9.72,9.17-20.45,0-12.07-4.26-16.42-18.99-20.11-22.59-5.7-32.58-15.59-31.27-30.5.33-4.69,1.31-10.06,1.96-12.23,1.47-4.53-.98-4.86-4.75-.5Z"/>
    <path class="cls-1" d="M469.66,245.65c-2.62,2.35-5.4,5.7-5.89,7.54-.49,1.68-2.46,3.69-4.26,4.19-2.29.84-2.95,2.01-2.13,5.2.82,3.35.33,4.02-2.29,4.02-1.96,0-4.09,1.34-5.07,2.85-1.47,2.85-1.8,2.85-6.55,0-5.24-3.18-8.35-2.68-8.35,1.34,0,3.35-3.11,4.86-5.57,2.68-1.15-1.01-5.07-2.01-8.51-2.35-6.06-.34-6.38,0-7.2,5.03-.98,6.87-5.4,12.23-9.82,12.23-1.96,0-2.95.67-2.46,1.68,2.62,4.36,13.26.34,18.01-6.7,3.27-4.86,8.35-7.54,9.82-5.03.49.67-.49,2.35-1.8,3.52-1.47,1.34-4.58,5.36-6.88,9.05-2.29,3.69-5.07,7.37-6.22,8.04-3.44,2.01-2.78,4.02,2.46,7.21,6.38,3.85,5.07,5.7-4.09,5.7-3.93,0-7.2.84-7.2,1.84s1.47,1.34,3.27.67,3.27-.34,3.27.67c0,.84,3.77,3.69,8.35,6.03s11.95,8.04,16.04,12.57c4.75,5.2,9.17,8.38,11.3,8.38,5.4,0,4.42-3.85-2.95-11.06-4.42-4.53-6.55-8.04-6.55-11.06,0-6.03,2.46-7.21,4.58-2.18,1.15,2.35,2.46,4.19,3.27,4.19s2.78,3.02,4.42,6.7c1.96,4.36,4.09,6.7,6.06,6.7,3.44,0,3.77-2.85.98-11.9-1.64-6.03-1.47-6.87,1.96-10.73,2.13-2.35,5.07-4.19,6.71-4.19,4.09,0,8.02-1.84,8.02-3.52,0-2.85-21.94-23.3-25.05-23.3-1.64,0-7.53,4.36-13.1,9.89-10.31,10.06-18.5,14.75-16.53,9.55.49-1.51,1.96-2.68,3.27-2.68s2.29-.5,2.29-1.34c0-2.85,17.68-20.78,19.81-20.11,1.31.5,6.38-.5,11.3-2.35,7.2-2.51,9.82-2.68,13.42-1.17,5.4,2.35,6.38,8.21,1.31,8.21-1.8,0-3.27,1.17-3.27,2.51,0,2.68.65,2.85,10.97,3.35,8.51.17,9.99,1.51,6.38,5.7-3.77,4.36-2.29,6.54,5.24,7.71,8.35,1.34,21.77,7.71,21.12,9.89-.65,1.84-3.77,2.01-10.48.84-7.69-1.51-3.6,2.85,6.22,6.37,5.57,2.01,10.8,4.69,11.62,5.87,1.64,2.68.49,8.55-3.77,17.26l-3.11,6.7,6.06,5.03c3.27,2.68,8.51,7.54,11.62,10.39,3.11,3.02,7.2,5.53,9.17,5.53,2.95-.17,2.46-1.01-3.11-5.87l-6.55-5.7-.98-16.42c-1.31-21.62-3.11-24.97-22.75-42.23-5.57-4.86-5.73-5.03-3.44-10.56,2.62-6.37,4.26-23.13,2.78-29.16-.65-2.18-3.77-7.04-6.88-10.73-5.57-6.2-6.55-6.7-14.57-6.7-7.04,0-9.82.84-13.75,4.19ZM460.32,297.77c11.95,4.19,8.68,6.54-9.33,6.54-8.68,0-15.88-.17-15.88-.5,0-1.01,4.09-4.69,7.37-6.7,4.42-2.68,8.68-2.51,17.84.67Z"/>
    <path class="cls-1" d="M392.55,247.16c-1.15,2.35-3.27,4.53-4.75,4.86s-.65.5,1.8.17c3.11-.34,5.57.67,7.86,3.02l3.27,3.52,4.09-4.53c2.46-2.68,4.09-4.86,3.77-5.2-1.47-1.17-11.13-5.87-12.44-5.87-.82,0-2.46,1.84-3.6,4.02Z"/>
    <path class="cls-1" d="M338.53,256.54c0,1.01,2.78,4.86,6.38,8.88,5.07,5.53,7.04,9.89,9.99,21.28,5.4,21.12,5.57,22.29,2.13,26.48-4.75,5.87-21.94,15.42-27.5,15.42-9.33,0-13.42-9.05-8.19-18.44,6.55-11.56-3.11-23.63-13.1-16.26-2.78,2.18-2.78,2.51.65,6.03,2.62,2.68,3.27,4.69,2.46,7.37-2.13,7.21-7.2,14.25-13.75,18.6-6.71,4.53-7.37,7.71-1.64,7.71,2.95,0,4.91,3.02,4.91,7.54,0,1.34-4.26,6.54-9.33,11.73-8.84,8.71-9,9.22-4.91,9.22,5.24,0,5.07-.17,1.96,7.88-1.31,3.52-3.44,11.23-4.91,17.09-1.47,6.03-4.91,15.75-7.53,21.62-2.62,6.03-4.42,11.23-4.09,11.56s3.6-2.01,7.53-5.36c3.77-3.18,7.37-5.53,8.19-5.03,1.47,1.01-1.15,8.88-6.22,18.77-4.58,8.88-4.58,9.22.65,7.21,2.29-1.01,4.42-1.68,4.91-1.68,1.8,0,.33,6.37-2.62,11.4-1.8,3.02-3.27,6.7-3.27,8.04,0,2.51.33,2.51,3.93,0,2.29-1.51,4.42-2.01,4.75-1.34.49.67,1.31,6.03,1.8,12.07.49,6.03,1.47,13.58,1.96,16.76,1.96,13.24,2.13,13.58,6.22,12.4,2.13-.5,4.42-.17,5.07,1.01.65,1.01,2.46,1.34,4.26.84,2.29-.84,3.27,0,4.09,3.18.65,3.02,2.13,4.36,4.58,4.36,1.96,0,4.42.84,5.4,1.84,1.47,1.51,3.27,1.51,7.2-.17,4.42-2.01,5.24-1.84,6.71.5,2.62,5.03,4.58,3.02,4.58-4.36s-.16-7.37-6.38-9.39c-3.6-1.01-7.04-1.84-7.86-1.68-5.07.84-5.73-.34-2.46-4.02,1.96-2.18,3.6-4.53,3.6-5.2,0-.84-4.42-1.01-9.82-.34-8.51,1.01-9.82.84-9.82-1.68,0-1.51-1.8-4.86-4.09-7.71-3.44-4.02-4.09-6.7-3.93-14.41,0-10.56,2.13-18.1,3.77-13.74.49,1.34,2.46,6.7,4.26,11.9,4.26,12.23,7.37,14.75,19.32,16.59,11.46,1.68,18.33,5.03,23.08,11.06,6.71,8.71,6.38,15.92-.33,9.39-4.42-4.19-6.38-3.35-5.07,2.18.49,2.18.16,6.7-.82,10.22-1.47,5.36-1.31,6.87.65,8.38,3.44,2.68,3.11,5.7-1.8,12.9-3.6,5.36-3.93,6.87-2.13,9.22,1.31,1.51,2.29,3.18,2.62,3.52.16.17,1.31-.17,2.46-.84,1.15-.84,5.89-1.51,10.48-1.68,7.2,0,9.49-1.01,15.55-6.2,4.75-4.36,8.51-6.2,11.95-6.2,10.48.17,15.22,8.38,19.81,34.19,1.31,8.38,9.99,19.44,14.9,19.44,5.73,0,5.89-2.35.49-5.87-2.78-1.84-6.88-7.37-9.17-12.23-3.44-7.54-4.09-10.73-3.44-19.78.65-10.22,3.11-16.09,5.73-13.41.82.67,1.15,6.87.82,13.58-.33,11.4,0,12.57,4.42,17.43,4.58,5.03,5.24,5.36,13.59,4.19,9.82-1.34,10.31-1.51,10.31-5.36s10.8-4.69,18.99-1.34c3.6,1.51,8.35,2.68,10.48,2.68,4.75,0,5.73,5.03,1.64,8.38-2.62,2.35-5.73,1.01-5.73-2.68,0-2.85-5.07-3.18-7.86-.34-2.95,3.02-2.29,6.87,2.13,11.06,4.42,4.36,7.04,3.69,13.75-3.69,2.78-3.02,4.09-6.87,4.75-13.07.65-8.21,1.47-9.55,9.49-17.26,11.3-10.89,11.46-13.07.65-11.56-8.02,1.01-8.19,1.01-8.19-3.35,0-6.03-2.46-10.39-9.17-16.59-6.55-5.7-10.48-12.74-10.48-18.1,0-4.86,14.41-19.78,16.21-16.76.82,1.17.98,3.52.65,5.2-2.29,9.05,8.51,2.51,15.22-9.39,2.29-4.02,4.75-7.37,5.4-7.37.49,0,3.77,1.84,7.04,4.19,5.24,3.69,6.55,3.85,10.31,2.18,5.89-2.68,7.86.5,6.55,10.73-.49,4.19-.16,8.21.65,8.71,1.96,1.34,7.53-5.87,11.62-14.75,4.09-8.88,9.33-15.08,16.04-18.44,6.06-3.18,15.06-16.42,15.06-22.29,0-4.69-1.8-4.86-5.73-.5-3.77,4.36-9,4.36-9,.17,0-5.2-6.06-11.4-12.93-13.07-9.66-2.51-11.79-.17-5.24,6.03,5.73,5.53,8.51,15.59,4.91,17.76-1.15.84-2.29.67-2.78-.5-.33-1.17-1.8-2.01-3.27-1.84-1.8,0-1.96.34-.65,1.01,4.26,1.68,2.13,6.87-3.27,8.04-2.95.67-7.69,2.68-10.48,4.36-6.38,3.85-8.68,4.02-13.75.34-2.29-1.68-7.37-4.19-11.3-5.53-8.02-2.85-11.79-7.21-8.84-10.22,1.96-2.01,12.93,2.85,16.7,7.54,2.78,3.35,6.71,3.52,6.71.17,0-1.34-.98-2.51-2.13-2.51-1.31,0-3.6-1.51-5.24-3.35-2.78-3.02-2.78-3.35-.16-3.35,1.47,0,4.58,1.17,6.88,2.68,5.73,4.02,6.06,2.35.65-4.02-2.95-3.52-5.4-5.03-7.2-4.36-1.47.5-2.13,1.84-1.47,2.85,1.47,2.51-12.77-.17-16.04-3.02-3.77-3.69-9.17-3.02-21.94,2.51-13.42,5.87-14.41,6.03-13.1,1.68.49-1.84.33-3.35-.65-3.35-2.78,0-6.71,5.2-6.71,8.88,0,2.51-4.42,8.21-12.11,16.09-9.82,9.89-12.77,12.07-15.55,11.06-7.53-2.35-13.59,24.64-8.35,37.71,1.8,4.19,1.8,5.87.33,6.37-1.15.34-1.96,3.18-1.96,6.37s-.65,5.7-1.47,5.7c-2.29,0-16.86-18.77-19.97-25.98-1.47-3.69-3.44-9.55-3.93-13.07-1.64-9.05-4.75-7.88-3.6,1.34.65,4.02.49,7.71-.16,8.21-4.26,2.68-8.84-8.71-7.37-18.1.65-4.02-.33-7.71-3.44-13.74-2.29-4.53-4.26-9.89-4.26-12.07,0-12.4,14.41-28.99,35.03-40.22,17.84-9.55,20.14-13.07,5.57-8.38-5.73,1.68-14.41,4.02-19.32,5.03-11.46,2.18-28.65,10.73-33.56,16.76-3.93,4.69-7.37,14.25-7.37,20.28,0,3.52,4.09,12.4,7.69,16.59,4.58,5.2.82,6.2-10.64,2.68-6.06-1.84-12.77-3.85-15.06-4.53-2.46-.5-5.4-3.52-7.04-6.87-2.95-5.7-2.95-6.87-.82-24.3.33-2.35-.33-3.35-2.29-3.18-6.06.5-3.27-7.54,5.73-16.93,12.93-13.58,17.35-12.07,9.66,3.35-3.93,7.88-4.42,24.13-.82,30.84,5.07,9.89,7.04,8.55,7.2-4.36.16-23.63,8.68-34.69,28.97-37.21,12.28-1.68,26.68-7.71,27.83-11.73.65-1.84-.33-2.01-3.93-1.01-2.62.67-11.13,1.51-18.99,2.01-13.26.84-14.41.5-14.41-2.35,0-4.53,6.55-11.56,17.35-18.1,9.49-5.87,20.3-15.08,20.3-17.43,0-.5-10.64-1.01-23.57-1.01-21.28,0-24.06.34-28.32,3.52-4.91,3.69-16.7,20.28-16.86,23.63,0,3.52,7.69,2.51,16.37-2.01,4.58-2.35,8.19-3.52,8.19-2.51,0,2.18-17.02,13.41-20.14,13.41-1.31,0-5.57,1.84-9.49,4.19-10.97,6.37-11.46,6.37-13.26,4.53-2.46-2.51,1.15-23.63,5.57-33.52,3.6-7.71,18.01-22.12,22.26-22.12,1.8,0,0,2.68-4.91,7.88-7.53,8.04-15.06,21.12-14.08,24.3.33,1.01,3.44-1.68,6.71-6.03,12.93-15.92,34.7-25.64,48.46-21.45,9.33,3.02,13.91,2.51,17.84-1.84,4.42-4.69,4.42-5.87.82-6.54-2.13-.34-.82-1.68,4.09-4.36,3.93-2.01,7.86-3.35,8.68-2.68.98.5,1.47,4.53,1.15,8.88l-.49,7.71,6.55.5c8.19.67,10.64,2.85,10.64,9.05,0,5.7-2.13,10.22-6.88,15.08l-3.44,3.52,3.93,3.18c2.46,2.18,5.24,3.02,8.19,2.35,3.11-.67,6.22.34,10.48,3.18,6.71,4.86,6.22,4.69,14.41,2.35,6.38-1.68,6.88-4.86.82-4.86-5.57,0-17.52-8.71-17.68-12.74,0-2.01-.49-6.03-.98-8.88-.98-4.36-.65-5.2,2.29-5.2,3.44,0,8.19,6.03,11.13,14.25,1.8,4.86,2.13,5.03,11.13,4.53,5.24-.17,11.95-1.51,15.22-2.85,10.15-4.36,20.14-2.35,20.14,4.19,0,5.03,7.69,8.21,17.02,7.21,7.2-.84,7.69-1.17,5.07-3.18-1.8-1.34-4.75-2.35-6.71-2.35-5.89,0-8.51-1.68-12.28-7.88-2.29-3.69-6.22-7.04-10.8-9.05-4.09-1.84-9.17-4.69-11.46-6.54-5.4-4.36-15.39-7.21-17.52-5.03-1.8,1.84-9.66,2.18-15.22.67-2.78-.84-3.44-2.01-2.78-4.69.98-4.19-7.86-17.76-11.62-17.76s-2.78,5.7,2.46,13.07c5.4,7.71,3.77,9.22-4.91,4.53-6.06-3.18-9.82-8.71-9.82-14.58,0-5.36-4.42-8.88-13.42-10.39-7.53-1.34-10.15-5.7-9-14.75,1.15-8.55-1.8-7.71-6.55,2.01-5.07,9.89-5.24,24.97-.49,29.33,4.26,4.02,1.8,5.87-7.86,5.87-8.51,0-18.33-3.85-18.33-7.37,0-1.34,2.62-4.02,5.73-6.03,8.19-5.2,10.64-11.23,11.62-28.83.49-8.38,1.47-16.59,2.29-18.1.82-1.68,5.07-5.36,9.33-8.38l7.86-5.36-5.73,1.01c-22.59,3.85-27.34,3.02-35.85-6.37-4.09-4.36-8.35-5.7-8.35-2.68ZM354.41,359.78c.98,3.02-.98,7.54-3.77,8.55-2.13.67-6.06-7.54-4.75-9.72,1.64-2.51,7.37-1.68,8.51,1.17ZM450.67,367.16c.49.84-.16,1.68-1.47,1.68s-2.95-.84-3.44-1.68c-.49-1.01.16-1.68,1.47-1.68s2.95.67,3.44,1.68ZM428.57,543.97c2.13,2.68,1.15,7.54-1.47,7.54-2.29,0-5.4-6.37-4.26-8.38,1.47-2.35,3.44-2.01,5.73.84Z"/>
    <path class="cls-1" d="M432.5,258.39c-1.31,2.35,2.95,5.2,4.91,3.18,1.47-1.51,0-5.03-2.29-5.03-.82,0-1.96.84-2.62,1.84Z"/>
    <path class="cls-1" d="M403.03,264.92c-4.75,1.84-6.38,4.86-4.09,7.21,2.78,2.85,2.13,7.88-.82,7.88-1.47,0-5.57-.84-9-2.01-5.57-1.68-6.88-1.51-9.66,1.17-3.27,3.02-4.42,7.54-1.96,7.54.65,0,2.13-.84,3.11-1.84,1.31-1.34,4.09-1.34,9.66-.17,10.64,2.35,16.21-.5,18.66-9.72.98-3.52,2.46-7.04,3.44-7.71,1.31-.67,1.15-1.51-.33-2.51-2.78-1.84-4.58-1.68-9,.17Z"/>
    <path class="cls-1" d="M399.92,365.48c-2.62,1.84-7.2,3.35-10.15,3.35-8.51,0-21.61,3.69-22.59,6.37-.82,2.18.98,2.35,11.3,1.34,18.17-1.68,28.81-6.2,28.81-12.23,0-3.02-1.64-2.68-7.37,1.17Z"/>
    <path class="cls-1" d="M474.08,375.03c-4.91,1.34-3.27,3.35,1.96,2.51,2.78-.34,4.91-1.34,4.91-2.18,0-1.51-2.13-1.68-6.88-.34Z"/>
    <path class="cls-1" d="M453.45,387.44c-3.93,1.84-9.33,3.18-12.11,2.85-2.95-.34-5.4.34-5.73,1.51-.49,1.51.98,2.18,4.26,2.18,7.04,0,7.53,2.51,1.8,8.55-5.73,6.2-6.22,8.21-1.8,8.21,2.95,0,13.26-11.4,13.26-14.58,0-.84,1.8-3.18,4.09-5.2,2.29-2.01,4.09-4.36,4.09-5.36,0-2.01.49-2.18-7.86,1.84Z"/>
    <path class="cls-1" d="M413.83,413.92c-5.4,4.53-5.73,5.36-5.4,14.08.49,9.72-.33,11.06-12.44,21.79-13.26,11.73-12.6-5.53.98-26.65,1.31-2.35,2.13-4.53,1.64-5.03-3.44-3.52-19.81,15.75-21.44,25.31-.98,4.69-.33,7.37,2.46,11.9,1.96,3.35,4.09,10.22,4.58,15.42.82,8.04,1.47,9.55,4.26,9.55,2.62,0,3.77-2.18,6.06-11.4,6.06-23.46,11.62-28.83,29.3-28.16,7.53.17,7.69.17,11.3-7.37,2.46-5.03,5.73-8.88,9.99-11.4,6.71-3.85,8.19-6.2,3.93-6.2-5.4,0-13.75,4.86-18.17,10.73-5.07,6.54-12.6,8.21-14.41,3.35-1.96-5.2-.98-11.9,2.29-14.92,3.27-3.18,4.26-5.87,1.96-5.87-.65,0-3.77,2.18-6.88,4.86Z"/>
    <path class="cls-1" d="M291.19,289.83c1.56-.92-1.42-9.61-1.58-10.07-2.63-7.55-5.64-8.88-7.63-13.69-4.31-10.46,2.28-22.75,3.28-24.55,2.13-3.84,8.11-12.78,18.69-14.86,1.8-.35,13.23-2.6,18.95,5.11,3.03,4.1,4.46,11,1.65,14.74-3.46,4.62-12.56,3.34-13.5,3.2-2.79-.4-4.01-1.18-4.57-.49-1.43,1.74,3.78,9.8,9.6,15.6,7.71,7.69,18.21,13.13,20.1,10.87,1.09-1.3-.72-5.11-1.45-6.64-2.01-4.22-4.21-4.76-4.77-7.68-.43-2.24.45-4.07,1.97-7.11,2.17-4.35,5.48-10.97,9.68-11.02,3.3-.03,3.64,4.03,9.67,9.39,6.99,6.2,15.63,8.83,18.32,6.53.27-.23,1.15-.98,1.1-1.9-.08-1.31-1.96-1.54-2.36-3.24-.27-1.17.33-2.25.55-2.64.87-1.55,2.43-2.13,3.07-2.36,5.23-1.85,14.42-4.72,14.37-5.19-.04-.45-9.02.38-19.74.24-6.49-.08-9.78-.14-11.74-.99-5.61-2.43-6.27-6.45-15.48-15.85-3.1-3.16-5.05-5.15-7.84-7.21-2.8-2.06-10.66-7.3-20.3-8.01-12.1-.89-26.57,5.38-34.21,18.91-8.53,15.11-3.79,30.89-2.55,35.04,4.24,14.13,14.73,25.03,16.72,23.86Z"/>
  </g>
  <g id="MasterLayer_1" data-name="MasterLayer 1">
    <text class="cls-5" transform="translate(273.55 152.05) rotate(-29.95) scale(.65 1)"><tspan x="0" y="0">G</tspan></text>
    <text class="cls-5" transform="translate(306.6 133.78) rotate(-21.61) scale(.65 1)"><tspan x="0" y="0">U</tspan></text>
    <text class="cls-5" transform="translate(341.87 120.74) rotate(-12.87) scale(.65 1)"><tspan x="0" y="0">E</tspan></text>
    <text class="cls-5" transform="translate(374.25 113.95) rotate(-3.54) scale(.65 1)"><tspan x="0" y="0">R</tspan></text>
    <text class="cls-5" transform="translate(411.12 112.25) rotate(7.34) scale(.65 1)"><tspan x="0" y="0">R</tspan></text>
    <text class="cls-5" transform="translate(448.43 117.71) rotate(15.96) scale(.65 1)"><tspan x="0" y="0">E</tspan></text>
    <text class="cls-5" transform="translate(480.21 127.46) rotate(24.84) scale(.65 1)"><tspan x="0" y="0">R</tspan></text>
    <text class="cls-5" transform="translate(514.11 144.03) rotate(33.2) scale(.65 1)"><tspan x="0" y="0">O</tspan></text>
    <text class="cls-5" transform="translate(317.07 713.9) rotate(16.13) scale(.91 1)"><tspan x="0" y="0">T</tspan></text>
    <text class="cls-5" transform="translate(382.11 728.1) rotate(-.75) scale(.91 1)"><tspan x="0" y="0">K</tspan></text>
    <text class="cls-5" transform="translate(454.86 721.95) rotate(-18.37) scale(.91 1)"><tspan x="0" y="0">D</tspan></text>
  </g>
</svg>