<?xml version="1.0" encoding="UTF-8"?>
<svg id="New_Layer" data-name="New Layer" xmlns="http://www.w3.org/2000/svg" viewBox="0 0 1073.1 208.41">
  <defs>
    <style>
      .cls-1 {
        fill: #080405;
        fill-rule: evenodd;
        stroke-width: 0px;
      }
    </style>
  </defs>
  <path class="cls-1" d="M0,104.21v104.21h1073.1V0H0v104.21ZM1069.7,103.45v100.4H2.26V3.04h1067.44v100.4Z"/>
  <path class="cls-1" d="M4.3,31.19c-.11,14.15-.23,58.57-.23,98.43l-.11,72.72h1064.61V5.32H4.53l-.23,25.86ZM1066.31,103.45v94.32H6.79V9.13h1059.51v94.32Z"/>
  <path class="cls-1" d="M318.08,19.32c-9.28,1.98-13.13,8.21-11.89,19.32.68,6.24.57,6.54-2.6,8.37-14.38,8.06-14.15,34.68.23,39.86,5.66,2.13,15.06.91,19.7-2.28,2.94-2.13,3.51-2.13,4.75-.15,1.02,1.67,4.08,2.28,12.11,2.28h10.64l-.34-8.06c-.34-7.76-.45-7.91-4.19-8.67-5.55-1.06-6.68-4.56-3.51-10.34,1.7-3.04,3.74-4.87,5.32-4.87,2.38,0,2.6-.61,2.6-8.37v-8.37h-6.23c-6.11,0-6.23.15-8.49,5.93-1.25,3.35-2.6,6.39-3.06,6.69-.57.46-2.6-2.28-4.75-5.93-3.96-7.15-4.08-10.95-.11-12.32,1.81-.61,2.26-2.13,2.26-6.54,0-7.15-2.83-8.67-12.45-6.54ZM316.72,63.89c4.19,6.85,4.41,8.37,1.47,10.65-3.28,2.28-4.41,1.98-7.47-2.28-3.28-4.26-3.62-8.67-1.02-12.02,2.38-3.35,2.83-3.19,7.02,3.65Z"/>
  <path class="cls-1" d="M22.19,22.21c-1.47,5.17-.68,12.93,1.47,14,1.92,1.06,1.7,2.13-2.38,17.34-3.17,11.41-5.21,16.58-6.68,17.19-1.7.76-2.15,2.43-2.15,8.52v7.45h20.38v-6.85c0-5.32-.45-7.15-2.15-8.06-1.58-.76-1.92-1.83-1.13-4.56.91-3.19,1.58-3.5,7.47-3.04,5.77.46,6.57.91,6.9,3.8.23,2.43-.23,3.5-1.36,3.5-1.36,0-1.81,1.67-1.81,7.61v7.61h26.04v-7.45c0-6.09-.45-7.76-2.15-8.52-1.47-.61-3.51-5.78-6.68-17.19-4.08-15.21-4.3-16.28-2.38-17.34,1.58-.76,2.15-2.74,2.15-6.39,0-10.19.34-10.04-18.11-10.04-14.26,0-16.87.3-17.43,2.43ZM40.3,50.81c.68,3.65.45,3.96-3.4,3.96-4.64,0-4.75,0-2.15-10.04l1.92-7.45,1.36,4.72c.79,2.59,1.81,6.54,2.26,8.82Z"/>
  <path class="cls-1" d="M70.18,28.14c0,7.3.23,8.37,2.26,8.37,2.15,0,2.26,1.06,2.26,16.58s-.23,16.58-2.26,17.34c-1.92.61-2.26,2.13-2.26,8.52v7.76h46.41v-27.38h-11.32v5.32c0,2.89-.34,5.48-.79,5.48-3.51.91-9.06.76-9.96-.3-.57-.61-1.25-8.06-1.47-16.43q-.34-15.36,2.6-16.89c2.72-1.37,2.94-2.13,2.6-8.67l-.34-7.3-13.81-.46-13.92-.46v8.52Z"/>
  <path class="cls-1" d="M129.04,41.23c-2.94,1.67-7.92,7.3-7.92,8.98,0,.61,3.06,1.52,6.79,2.13,5.43.91,7.24.61,8.6-1.22,3.96-5.32,11.77-1.52,11.77,5.78,0,3.35-.23,3.35-5.89,1.98-10.64-2.59-21.28,4.11-21.28,13.23,0,2.13,1.47,6.09,3.17,8.67,2.72,4.11,4.19,5.02,9.62,5.63,3.51.3,8.04-.15,10.07-1.06,2.49-1.22,3.85-1.22,4.08-.15.23.91,4.98,1.52,11.66,1.52h11.21v-7c0-5.63-.45-7.15-2.26-7.76-1.92-.61-2.26-2.13-2.38-8.67-.11-19.47-4.19-23.73-22.53-23.58-6.57,0-13.13.76-14.72,1.52ZM147.27,65.41c.57,0,1.02,2.13,1.02,4.56,0,3.5-.68,5.02-2.49,5.93-4.3,2.13-7.7-.76-7.7-6.39,0-2.89,4.08-5.93,6.57-4.72.91.3,2.04.61,2.6.61Z"/>
  <path class="cls-1" d="M173.98,40.47c-.45.61-.79,3.8-.79,7.15,0,4.41.57,6.09,2.04,6.69,1.13.3,4.64,7.3,8.15,16.43l6.23,15.97h14.72l6.23-15.97c3.4-8.82,6.9-15.97,7.58-15.97,1.02,0,1.47-2.59,1.47-7.61v-7.61h-16.98v7.45c0,4.56.57,7.76,1.36,8.06,1.02.46.91,2.43-.79,7.45-3.17,9.89-3.51,10.04-6.11,2.13-2.83-8.67-2.94-9.89-.57-9.89,1.36,0,1.58-1.52,1.36-7.3l-.34-7.15-11.43-.46c-6.23-.15-11.66,0-12.11.61Z"/>
  <path class="cls-1" d="M234.88,42.14c-5.32,3.65-7.13,6.39-9.17,13.54-5.21,18.41,7.47,34.53,25.24,32.1,6.34-.91,14.49-6.09,15.62-9.89.91-3.19.23-3.65-6.45-5.02-4.64-1.06-6.34-.76-7.7.91-2.26,2.74-6.9,3.04-8.83.46-.79-1.06-1.36-3.35-1.36-5.32,0-3.5.23-3.5,13.02-3.5h13.02v-3.96c0-6.69-4.53-15.52-9.62-18.86-5.89-3.8-18.68-4.11-23.77-.46ZM251.29,54.16c.68,2.13,1.13,4.11,1.13,4.56,0,.3-2.26.61-5.09.61-4.19,0-5.09-.46-5.09-2.74,0-7,7.24-8.98,9.06-2.43Z"/>
  <path class="cls-1" d="M15.62,108.77c-.57.76-.91,4.56-.91,8.67,0,6.24.34,7.3,2.26,7.3,2.15,0,2.26,1.06,2.26,16.58s-.23,16.58-2.26,17.34c-1.92.61-2.26,2.13-2.26,8.52v7.76h27.17v-7.45c0-5.17-.45-7.76-1.7-8.37-1.02-.46-1.7-2.74-1.7-5.48,0-3.8.45-4.56,2.72-4.56s3.62,2.28,8.04,12.93l5.21,12.93h18v-7.76c0-6.24-.45-7.91-2.04-8.52-1.13-.3-3.28-3.65-4.75-7.3l-2.6-6.54,2.94-4.87c3.85-6.09,4.19-15.97.68-21.91-4.64-7.91-7.81-8.82-29.88-9.74-11.21-.3-20.71-.15-21.17.46ZM47.32,125.66c1.36,1.22,2.49,2.89,2.49,3.65,0,2.89-3.85,6.09-7.47,6.09s-3.85-.15-3.85-6.09.23-6.09,3.17-6.09c1.7,0,4.3,1.06,5.66,2.43Z"/>
  <path class="cls-1" d="M570.73,110.44c-1.36,1.22-2.49,3.65-2.49,5.17,0,5.17,3.17,7.61,9.62,7.61,8.72,0,12.56-6.54,7.58-12.63-2.72-3.35-11.32-3.35-14.72-.15Z"/>
  <path class="cls-1" d="M827.01,113.18c-2.26,2.74-4.08,6.09-4.19,7.15,0,1.22-.23,3.8-.34,5.93-.79,9.28,3.51,16.43,14.38,23.73,6.45,4.41,7.7,5.93,7.36,8.67-.57,5.17-4.64,5.02-8.04-.3-2.49-3.96-3.74-4.72-8.04-4.72h-5.21v21.3h5.55c3.17,0,5.77-.76,6-1.67.34-1.37,1.02-1.37,2.83,0,3.17,2.28,13.81,2.13,16.98-.3,4.87-3.65,7.58-10.19,7.47-17.95-.11-9.89-2.6-13.84-13.58-22.06-6.68-5.02-9.4-7.76-9.4-9.89,0-4.41,5.21-3.8,8.49,1.06,2.15,3.19,3.51,3.8,7.58,3.35l4.87-.46v-18.26l-4.98-.46c-2.94-.3-5.32.15-5.77,1.22-.68,1.37-1.47,1.37-3.17.15-1.25-.91-5.09-1.67-8.6-1.67-5.43,0-6.68.61-10.19,5.17Z"/>
  <path class="cls-1" d="M902.96,108.92c-.45.61-.79,4.41-.79,8.37,0,5.93.45,7.3,2.15,7.76,1.92.46,1.7,1.83-2.38,16.73-3.17,11.41-5.21,16.58-6.68,17.19-1.7.76-2.15,2.43-2.15,8.52v7.45h20.38v-7.61c0-5.78-.45-7.61-1.7-7.61-1.81,0-2.15-2.74-.68-5.78.57-1.37,2.83-1.83,7.02-1.52,5.32.46,6.11.91,6.45,3.8.23,2.43-.23,3.5-1.36,3.5-1.36,0-1.81,1.67-1.81,7.61v7.61h26.04v-7.61c0-5.63-.45-7.91-2.04-8.98-1.25-.91-3.85-7.76-6.23-16.58-4.75-17.34-4.75-17.04-2.38-17.04,1.36,0,1.58-1.52,1.36-8.06l-.34-7.91-17.09-.46c-9.28-.15-17.32.15-17.77.61ZM919.15,131.59c2.83,10.19,2.72,11.41-1.02,11.41-1.92,0-3.51-.76-3.51-1.67,0-2.43,2.49-13.54,3.06-13.54.23,0,.91,1.67,1.47,3.8Z"/>
  <path class="cls-1" d="M994.09,110.44c-13.36,9.13-17.66,34.38-8.94,51.87,5.32,10.5,10.3,13.39,22.98,13.39,9.51,0,10.64-.3,14.94-4.41,3.96-3.65,9.28-14.15,9.28-18.1,0-1.06-6.79-5.17-10.87-6.54-2.04-.76-2.6,0-3.28,3.8-1.36,8.52-8.6,12.17-12.9,6.39s-3.85-25.71,1.13-31.03c3.51-3.8,5.43-3.19,9.62,2.89,3.51,4.87,4.3,5.32,9.17,4.87l5.43-.46.34-11.71c.34-11.56.23-11.87-2.6-12.78-1.58-.46-4.3-.46-6,.15-3.4,1.22-4.19,1.22-16.07,0-6.68-.61-9.28-.3-12.23,1.67Z"/>
  <path class="cls-1" d="M438.97,116.53c-5.32,3.65-7.7,6.09-7.7,8.06,0,1.52-1.02,3.19-2.26,3.65-1.81.61-2.26,2.13-2.26,7.76,0,5.93.34,7,2.26,7,2.04,0,2.26,1.06,2.26,10.8,0,16.73,3.74,22.67,14.04,22.67,2.72,0,6.45-.76,8.49-1.67,3.28-1.52,3.51-2.13,3.51-9.13s-.11-7.45-3.28-7.45c-2.72,0-3.51-.76-4.08-4.56-1.13-7.15.23-10.65,4.08-10.65,3.4,0,3.4-.15,3.06-7.15-.34-6.69-.57-7.3-3.74-8.06s-3.4-1.22-3.74-8.82c-.23-4.87-.91-7.91-1.7-7.91-.79.15-4.75,2.59-8.94,5.48Z"/>
  <path class="cls-1" d="M334.72,128.09c-2.38.91-6.34,4.11-8.72,7.15-10.07,12.78-5.77,34.53,7.7,39.7,7.02,2.59,17.88,1.83,22.87-1.52,3.96-2.74,8.49-8.82,7.47-10.19-.23-.3-3.4-1.22-7.02-1.98-5.32-1.22-6.9-1.06-8.38.76-3.74,4.56-10.19,1.98-10.19-4.11,0-2.28,1.47-2.74,13.36-3.04l13.24-.46-.34-5.32c-.91-12.02-8.38-20.38-19.47-21.75-3.4-.46-8.15-.15-10.53.76ZM346.15,140.26c.79,1.06,1.36,3.04,1.36,4.56,0,2.13-.91,2.74-4.53,2.74s-4.53-.46-4.53-3.04c0-4.87,5.09-7.76,7.7-4.26Z"/>
  <path class="cls-1" d="M475.99,127.63c-7.7,1.83-14.26,8.37-12.34,12.47,1.02,2.43,12.45,1.52,16.07-1.22,4.53-3.5,9.28-.91,9.28,4.87,0,3.8-.23,3.8-5.43,2.89-6.34-1.06-13.47,1.22-17.66,5.63-4.3,4.56-4.19,13.39.45,18.56,3.28,3.8,3.62,3.96,24.9,3.96l21.51.15v-7c0-5.48-.45-7.15-2.15-7.76s-2.15-2.59-2.6-11.87c-.57-12.17-1.81-15.36-7.13-18.41-4.3-2.28-19.02-3.8-24.9-2.28ZM489.01,155.93c.68,1.22,1.02,3.5.57,5.32-.57,2.43-1.47,3.04-4.19,2.74-1.92-.3-4.08-1.52-4.64-3.04-2.6-5.48,5.09-10.19,8.26-5.02Z"/>
  <path class="cls-1" d="M613.18,127.79c-16.75,3.96-23.32,27.08-11.55,40.92,4.75,5.63,10.19,7.76,19.92,7.76,13.24,0,21.39-8.37,22.3-23.12.34-6.54,0-8.98-2.26-13.39-4.87-9.74-16.87-14.91-28.41-12.17ZM623.48,142.69c2.04,1.83,2.94,11.41,1.47,15.21-1.81,4.56-5.55,5.63-8.15,2.43-2.94-3.5-3.06-15.06-.11-17.19,2.38-1.98,4.87-1.98,6.79-.46Z"/>
  <path class="cls-1" d="M726.15,127.18c-8.72,2.89-15.17,10.65-16.87,20.84-1.81,10.19,4.41,22.97,12.79,26.77,5.32,2.28,17.55,2.13,21.96-.46,5.09-2.89,9.73-9.74,7.7-11.41-3.17-2.74-12.9-3.19-14.83-.91-1.02,1.22-3.17,2.28-4.75,2.28-2.26,0-3.28-1.06-4.19-4.56l-1.13-4.56h13.02c14.6,0,15.17-.46,12.9-10.19-1.81-7.15-3.96-10.65-9.17-14.3-4.3-2.89-13.47-4.72-17.43-3.5ZM735.09,141.78c2.6,5.02,2.26,5.78-2.72,5.78-3.62,0-4.53-.61-4.53-2.74,0-3.19,2.04-6.39,4.08-6.39.79,0,2.26,1.52,3.17,3.35Z"/>
  <path class="cls-1" d="M87.27,130.98c-4.98,4.11-7.7,8.52-9.28,15.06-2.49,10.95,2.83,24.04,11.66,28.45,5.89,2.74,17.77,2.28,22.98-.91,4.87-3.04,9.28-8.67,8.15-10.34-.45-.46-3.74-1.52-7.24-2.13-5.09-.91-6.9-.76-8.38,1.06-3.06,3.65-7.7,2.74-9.06-1.83-.57-2.28-.91-4.41-.68-4.72.34-.3,6.34-.76,13.36-.91,12-.3,12.9-.46,13.24-3.35.57-5.48-4.53-16.43-9.4-20.08-6.34-4.72-19.7-4.87-25.36-.3ZM103.46,141.78c2.6,5.02,2.26,5.78-2.6,5.78-5.32,0-6.23-1.37-3.96-5.78,2.15-4.26,4.41-4.26,6.57,0Z"/>
  <path class="cls-1" d="M127.91,135.39c0,5.78.45,7.61,1.7,7.61,1.47,0,1.7,3.04,1.7,18.86s-.23,19.02-1.92,19.47c-1.36.3-1.81,2.13-1.81,7.3v6.85l13.7.46,13.81.46v-7.15c0-5.63-.45-7.15-2.26-7.76-1.36-.46-2.26-2.13-2.26-4.11,0-3.19.45-3.19,7.92-2.74,9.06.76,13.02-.91,17.66-7.45,2.94-4.11,3.28-5.63,3.28-15.06s-.34-10.95-3.28-15.06c-5.21-7.3-12.11-10.19-19.24-8.21-3.4,1.06-6.23,1.06-6.79.3-.68-.76-5.89-1.37-11.66-1.37h-10.53v7.61ZM160.74,151.37c0,7-1.47,9.89-5.09,9.89s-5.09-2.89-5.09-9.28c0-7.3,3.4-11.11,7.47-8.67,2.26,1.37,2.72,2.89,2.72,8.06Z"/>
  <path class="cls-1" d="M185.64,135.09c0,6.24.34,7.76,2.26,8.37s2.26,2.13,2.26,8.52-.34,7.76-2.26,7.76-2.26,1.06-2.26,7.61v7.61h28.41l-.34-7.3c-.34-6.09-.68-7.15-2.83-7.61-1.47-.3-2.6-1.52-2.6-2.59,0-3.5,4.75-8.37,8.04-8.37,6,0,6.68-1.22,6.68-10.8,0-6.69-.45-9.28-1.7-9.89-2.6-1.37-6.79.46-10.64,4.72l-3.4,3.96-.34-4.26-.34-4.26-10.41-.46-10.53-.46v7.45Z"/>
  <path class="cls-1" d="M236.58,129.46c-6.79,3.65-11.32,12.93-11.32,23.12,0,8.67,3.62,15.97,10.19,20.38,9.73,6.69,28.19,3.35,31.81-5.93,1.58-3.96.91-4.56-6.11-5.93-4.3-.76-6.34-.46-7.7,1.06-3.74,4.41-10.07,1.67-10.07-4.26,0-2.43,1.25-2.74,13.13-2.74h13.24l-.57-6.69c-1.25-13.69-8.49-20.69-21.39-20.54-4.64,0-9.62.76-11.21,1.52ZM251.07,140.26c.79,1.06,1.36,3.04,1.36,4.56,0,2.13-.91,2.74-4.53,2.74-4.64,0-5.32-1.22-3.4-6.24,1.36-3.19,4.53-3.8,6.57-1.06Z"/>
  <path class="cls-1" d="M283.33,129.61c-4.64,1.67-7.13,6.39-7.13,13.39,0,7.76,3.51,11.56,14.15,15.67,4.87,1.83,9.06,4.26,9.4,5.32.57,2.59-5.89,2.28-10.07-.61-1.92-1.22-5.43-2.13-8.04-1.83q-4.64.46-4.75,7l-.11,6.39h14.49c8.49,0,15.51-.76,16.98-1.67,3.74-2.59,6.45-7.76,6.45-12.47,0-9.28-3.28-12.63-16.75-17.04-4.98-1.52-8.04-3.35-7.81-4.41.68-2.89,4.08-2.74,9.06.61,2.94,1.98,6.34,3.04,8.83,2.74,3.74-.46,3.85-.61,3.85-7.3v-6.85l-12.45-.15c-6.79-.15-14.04.46-16.07,1.22Z"/>
  <path class="cls-1" d="M370.94,128.85c-.45.46-.79,3.96-.79,7.61,0,5.48.34,6.54,2.26,6.54,2.04,0,2.26,1.06,2.26,8.37s-.23,8.37-2.26,8.37c-1.92,0-2.26,1.06-2.26,7.61v7.61h28.41l-.34-7.3c-.34-6.09-.68-7.15-2.83-7.61-2.26-.46-2.6-1.37-2.6-7.3s.45-7,2.83-8.52c4.98-3.04,6.23.15,6.23,16.43v14.3h22.64v-7.61c0-6.54-.34-7.61-2.26-7.61-2.04,0-2.26-1.06-2.26-10.65s-.34-11.11-3.28-15.52c-3.06-4.56-3.85-5.02-9.96-4.87-3.85,0-8.04,1.06-10.19,2.59-3.62,2.59-3.74,2.59-3.74-.46s-.68-3.04-10.53-3.04c-5.89,0-10.98.46-11.32,1.06Z"/>
  <path class="cls-1" d="M530.66,129.31c-4.53,1.83-9.73,7.3-11.66,12.17-.91,2.43-1.7,7.76-1.7,12.02,0,8.98,3.51,15.82,10.75,20.08,4.64,2.89,14.15,3.8,20.94,1.98,4.08-1.22,12.9-11.56,12.23-14.45-.23-1.06-3.06-2.89-6.11-3.96-7.13-2.43-6.68-2.59-8.15,1.67-2.04,5.93-5.89,6.69-9.06,1.67-4.41-7-1.92-19.02,3.96-19.02,1.47,0,3.96,1.83,5.43,3.96,2.15,3.19,3.51,3.8,7.58,3.35l4.87-.46v-19.78l-4.98-.46c-2.72-.3-5.32.15-5.77,1.06-.45,1.06-1.92,1.22-4.53.15-4.64-1.83-9.51-1.83-13.81,0Z"/>
  <path class="cls-1" d="M565.98,135.39c0,5.78.45,7.61,1.7,7.61,1.36,0,1.7,1.98,1.7,8.37s-.34,8.37-1.7,8.37c-1.25,0-1.7,1.83-1.7,7.61v7.61h24.9v-7.45c0-5.17-.45-7.76-1.7-8.37-1.36-.61-1.7-3.96-1.7-16.13v-15.21h-21.51v7.61Z"/>
  <path class="cls-1" d="M649.74,135.39c0,5.48.45,7.61,1.58,7.61,1.92,0,2.94,3.35,2.94,10.19,0,3.96-.57,5.48-2.26,6.09-1.92.61-2.26,2.13-2.26,8.21v7.45h27.17v-7.61c0-6.54-.34-7.61-2.26-7.61s-2.26-1.06-2.26-7.45.34-7.61,2.38-8.21c5.55-1.98,6.68,1.37,6.68,19.02v11.87h22.64v-7c0-5.63-.45-7.15-2.15-7.76-1.81-.61-2.15-2.43-2.6-11.26-.57-13.08-3.06-18.26-9.96-20.23-3.85-1.22-6.11-.91-10.53,1.22-5.21,2.43-5.77,2.59-6.68.3-.79-1.98-3.06-2.43-11.66-2.43h-10.75v7.61Z"/>
  <path class="cls-1" d="M766.79,129.61c-5.09,1.67-7.81,6.54-7.81,13.69,0,8.06,2.6,10.8,14.83,15.82,5.21,2.13,9.51,4.41,9.51,5.32,0,2.13-6.57,1.67-10.3-1.06-1.92-1.22-5.43-2.13-8.15-1.83q-4.75.46-5.09,6.85l-.34,6.54h14.26c10.75,0,15.28-.61,18.22-2.43,6.9-4.41,7.7-17.95,1.25-23.28-1.36-1.22-6.23-3.35-10.98-5.02-9.73-3.19-11.89-5.17-7.58-6.69,2.15-.61,4.3.15,7.13,2.28,3.28,2.74,5.09,3.19,9.17,2.28l4.98-.91-.34-6.39-.34-6.24-12.45-.15c-6.79,0-14.04.46-15.96,1.22Z"/>
  <polygon class="cls-1" points="869.34 166.58 869.34 174.94 878.4 174.94 887.46 174.94 887.46 166.58 887.46 158.21 878.4 158.21 869.34 158.21 869.34 166.58"/>
  <polygon class="cls-1" points="953.11 166.58 953.11 174.94 962.5 174.94 971.79 174.94 971.45 166.58 970.99 158.21 962.05 158.21 953.11 158.21 953.11 166.58"/>
  <polygon class="cls-1" points="1040.27 166.58 1040.27 174.94 1049.33 174.94 1058.38 174.94 1058.38 166.58 1058.38 158.21 1049.33 158.21 1040.27 158.21 1040.27 166.58"/>
</svg>