<?xml version="1.0" encoding="UTF-8"?>
<svg id="New_Layer" data-name="New Layer" xmlns="http://www.w3.org/2000/svg" viewBox="0 0 1135.09 321.65">
  <defs>
    <style>
      .cls-1 {
        fill: #080405;
        fill-rule: evenodd;
        stroke-width: 0px;
      }
    </style>
  </defs>
  <path class="cls-1" d="M185.3.51c-1,.4-1.3,12.6-1.3,56.4v55.9l2.4,1.1c2.5,1.2,2.7,1.1,16.7-7.6.9-.6,3.4-2,5.6-3.2s4.5-2.9,5.2-3.7c.8-.9,2.1-1.6,3.1-1.6.9,0,2.5-.9,3.5-2s2.4-2,3.1-2,2.5-1,4.1-2.3c1.5-1.2,3.9-2.8,5.3-3.5,5.7-2.9,8.8-4.7,14.4-8.4,3.2-2.1,10.7-6.7,16.7-10.1,6-3.4,12.5-7.1,14.4-8.2s3.5-2.5,3.5-3.1c0-1.6-3.9-6.4-5.3-6.4-.6,0-2-.9-3.1-1.9-1.2-1-5.3-3.6-9.3-5.7-6.1-3.3-20.6-11.9-29.3-17.3-1.4-.8-3.8-2.3-5.5-3.1-1.6-.9-8.8-5.2-16-9.6-7.1-4.4-13.7-8.3-14.5-8.7s-3.3-1.8-5.5-3.2c-4-2.4-5.8-2.8-8.2-1.8Z"/>
  <path class="cls-1" d="M0,57.61v47.8l2.8,2.7c1.6,1.5,3.9,2.7,5.4,2.7s3.4.8,4.4,1.7c.9,1,3.3,2.6,5.3,3.6,5.9,2.9,8.1,4.3,10.2,6.6,1.1,1.1,2.8,2.1,3.9,2.1s2.4.8,2.9,1.9c.6,1,2.2,2.2,3.7,2.5,2.5.7,6.6,3.2,10.7,6.6,1,.8,3.7,2,6,2.6s4.1,1.6,4,2.2c-.2.6.6,1.4,1.8,1.7,1.1.4,3.1,1.7,4.4,3.1,1.3,1.3,3.3,2.4,4.3,2.4s2.7.9,3.7,2c.9,1,3.2,2.4,5,3,3,1,4.4,3.1,4.5,6.7,0,.7-1.4,2-3.2,2.9s-3.8,2.3-4.6,3c-.7.8-1.9,1.4-2.6,1.4s-2.6,1-4.2,2.2c-3.5,2.8-7.8,5.3-12.6,7.4-2.1.9-3.8,2-3.8,2.4,0,.5-1.5,1.3-3.4,2-1.8.6-4.2,2-5.1,3-1,1.1-2.6,2-3.5,2s-2.5.9-3.5,2-2.4,2-3.1,2-2.5,1.1-4.1,2.3c-1.5,1.3-4.1,3.1-5.8,4-8.4,4.4-11.2,5.9-13,7C2.4,208.11,0,210.01,0,211.11c0,1.6,3.5,4.9,7.5,7.1,3.9,2.1,6.3,3.6,10,6.2,1.7,1.2,4,2.4,5.1,2.8,1.2.3,2.9,1.5,3.9,2.6s2.6,2,3.7,2c1,0,2.7.9,3.8,2s2.4,2,2.9,2c.4,0,2.1,1,3.6,2.2s4.2,2.9,5.9,3.8,4.9,2.7,7.1,4,4.9,2.8,6,3.4c4.2,2.4,13.2,7.8,17.5,10.6,2.5,1.6,5.9,3.6,7.5,4.4,1.7.9,5.8,3.3,9.2,5.5,3.5,2.2,7.2,4.2,8.3,4.6,1.1.3,2,1,2,1.5s.9,1.2,2.1,1.5c1.9.6,11.7,6.3,12.9,7.5.3.3,1.9,1.2,3.5,2,3.2,1.6,3.8,2,15.1,9.4,3.9,2.5,7.4,4.6,7.8,4.6s3.6,1.8,7.1,4.1c6.9,4.5,11.2,6.9,16.3,9.4,1.8.8,4,2.3,5,3.3.9.9,3.7,2.4,6,3.1,4.2,1.4,4.4,1.4,6.8-1.2,1.4-1.5,3.4-2.7,4.5-2.7,1,0,2.7-.9,3.7-2.1.9-1.1,2.7-2.5,4-3,1.2-.5,2.2-1.5,2.2-2.4,0-1,1-1.5,3.1-1.5s4.5-1.2,7.3-3.5c2.4-1.9,4.6-3.2,4.9-2.8.4.3.7.1.7-.5s1.5-1.5,3.4-2.2c1.9-.6,3.8-2.1,4.4-3.5.7-1.4,2-2.5,3-2.5,1.1,0,3.9-1.6,6.3-3.5,2.6-2,5.5-3.5,7.1-3.5s4.2-1.3,6.1-3,4.2-3,5-3c.9,0,2-.6,2.4-1.3,1.7-2.6,8.3-6.7,10.8-6.7,1.8,0,2.8-.7,3.5-2.5.6-1.7,2-2.7,4.1-3.2,2.4-.5,3.5-1.5,5.2-5.2,1.2-2.5,2.5-4.7,2.9-4.9,1-.5.9-87-.1-87.6-.4-.3-2.3.8-4.1,2.4s-4.6,3.2-6.3,3.6c-1.7.3-4.1,1.9-5.5,3.5-1.3,1.6-3.2,2.9-4.2,2.9-2.6,0-7.2,2.1-9.3,4.2-1,1.1-3.2,2.1-4.8,2.5-1.6.3-2.9.9-2.9,1.4,0,.4-2,1.8-4.5,3s-4.5,2.6-4.5,3.1c0,.4-.8.8-1.9.8-1,0-2.6,1.1-3.5,2.5-1,1.5-2.6,2.5-4.1,2.5-1.3,0-3,.6-3.7,1.3-2.6,2.6-10.7,7.7-12.2,7.7-.8,0-2.1.8-2.8,1.9-.7,1-3,2.4-5.1,3.2-2.1.7-5.7,3.1-8,5.2l-4.1,3.8-4.1-4.1-4-4-.1-47.7-.1-47.7-3.4-2.9c-1.9-1.6-5.3-3.8-7.6-4.9s-4.7-2.6-5.4-3.4c-.6-.8-2-1.4-3-1.4s-2.4-.9-3.1-2-2-2-2.9-2-1.9-.6-2.2-1.3-2.4-1.9-4.6-2.6c-2.3-.7-4.4-1.8-4.7-2.6s-1.9-1.7-3.5-2c-1.7-.4-3.5-1.5-4.2-2.6-.6-1-1.7-1.9-2.3-1.9-1.9,0-13.4-6-13.4-7,0-.4-1.6-1.4-3.5-2s-3.9-1.8-4.3-2.7c-.5-.8-3.3-2.4-6.3-3.4-3.3-1.2-6.3-3.1-7.7-4.9-1.3-1.7-3.2-3-4.3-3-1,0-2.8-.9-3.9-2s-2.4-2-3-2c-.5,0-1.5-.9-2.2-2-1.5-2.3-16.8-12-19-12-.7,0-2.9-1.4-4.7-3.1-1.9-1.6-6.2-4.3-9.6-6-3.4-1.6-6.9-3.7-7.9-4.7-.9-1.1-3.5-2.5-5.9-3.3-2.3-.7-4.6-1.9-5-2.6s-1.2-1.3-1.8-1.3c-1.2,0-7.2-4.1-7.7-5.3-.9-2-14.7-6.6-17.6-5.9-.5.2-.6-.5-.2-1.4.4-1.1-.2-2.6-1.5-4.1C-.1,6.91,0,6.41,0,57.61ZM163.5,118.81c.3.5-.1,1-1,1s-1.3-.5-1-1c.3-.6.8-1,1-1s.7.4,1,1ZM191,306.31c0,1.7-1.7,2.8-3,2-.6-.4-.5-1.3.2-2.5,1.3-2,2.8-1.8,2.8.5Z"/>
  <path class="cls-1" d="M353.7,16.51c-.3,1.5-.4,11.3-.2,21.8.1,10.4.3,32.4.4,48.7.1,34.3-.3,32.8,9,32.8,5.2,0,5.9-.2,6.9-2.5.8-1.8,1.2-11.8,1.2-32.1,0-16.4.4-30.3.9-31.3.8-1.5,3.1.3,15.3,12.2,28.2,27.5,47.6,46.2,50.2,48.6,1.4,1.3,2.6,2.9,2.6,3.6,0,2.3,2.9,2.5,4.5.2,1.3-1.8,1.5-8.8,1.5-51.2-.1-39.2-.3-49.4-1.4-50.8-1.6-2.1-11.7-2.4-13.5-.4-.7.9-1.2,11.5-1.3,32.3l-.3,30.9-2.7.3c-2,.2-3.4-.5-5.5-2.9-1.5-1.8-5.9-6.2-9.7-9.8s-15-14.7-25-24.5c-24.2-23.9-27.7-27.2-30.3-28-1.8-.6-2.2-.2-2.6,2.1Z"/>
  <path class="cls-1" d="M508.5,14.51c-29.2.3-30,.4-31.7,2.4s-1.8,5.9-1.8,50.4.1,48.4,1.8,50.4c1.7,2.1,2.1,2.1,34.1,1.9l32.4-.3,1.8-2.5c1.4-2,1.6-3.4,1-7.3-.4-2.6-1.1-5.1-1.5-5.5s-12.2-.9-26.1-1.2-25.7-.9-26.2-1.3c-.4-.5-1-6.1-1.1-12.5-.3-10.2-.2-11.7,1.4-12.9,1.3-1,7-1.3,22.4-1.3s21.1-.3,22.3-1.3c.9-.6,2-3.2,2.3-5.7.5-4,.3-4.8-2-6.9-2.6-2.4-3-2.5-22.3-2.8-25.7-.4-24.6.2-24.1-14.3.2-6.9.8-11.4,1.5-12.1.9-.9,7.8-1.3,24.1-1.5,12.5-.2,24-.8,25.5-1.3,2.2-.9,2.7-1.7,2.7-4.3-.1-10.3-.3-10.4-36.5-10.1Z"/>
  <path class="cls-1" d="M633.6,14.51c-4.2.5-6.6,2.6-9.4,8.3-.9,1.9-3.4,6-5.5,9.1-2,3.1-3.7,6.1-3.7,6.7s-.6,1.7-1.4,2.4c-.7.8-2.1,2.8-3,4.6s-2.4,3.2-3.2,3.2c-2.4,0-9-7.2-10.3-11.3-.7-2-1.7-3.9-2.2-4.2-.5-.4-2.9-3.6-5.4-7.3-7.8-11.7-7.2-11.3-16.7-11-7.8.3-8.3.4-8.6,2.6-.2,1.4.8,4,2.4,6.4,1.6,2.2,3.3,4.8,3.9,5.8.5,1,2.5,3.9,4.3,6.5,1.7,2.5,3.2,5,3.2,5.4s.9,1.6,2,2.6,2,2.3,2,2.9,1.4,2.9,3,5c1.7,2.2,3,4.5,3,5.1s.9,1.8,2,2.8c2.7,2.3,2.6,8.1-.1,11.5-2.8,3.7-11.4,17.3-12.2,19.4-.3,1-1.1,1.8-1.6,1.8-.6,0-1.9,1.9-3,4.2-2.5,5.1-5.6,10.4-8.2,13.7-2,2.4-2.4,4.8-1.3,7.5.5,1.2,2.1,1.6,7.3,1.6,8,0,9.8-1.2,14.2-9.5,1.7-3.3,4-7.1,5-8.4,1.1-1.3,1.9-2.8,1.9-3.3,0-.6,1.1-2.3,2.5-4,1.4-1.6,2.5-3.6,2.5-4.3,0-1.6,4.8-7.5,6-7.5s7,6.3,7,7.6c0,.6,1.3,2.8,3,5,1.6,2.1,3,4.2,3,4.6,0,.5.8,1.6,1.8,2.7.9,1,3.2,4.3,5,7.3,5,8.3,7.7,9.9,16.5,9.6l7.2-.3.3-3.1c.2-2.3-.7-4.4-4.3-8.9-2.5-3.2-4.5-6.3-4.5-6.8s-.9-2.1-2.1-3.5c-1.8-2.4-8.6-12.6-11.4-17.1-.5-.9-2.4-3.9-4.2-6.8l-3.3-5.2,1.6-4.8c.9-2.6,2.4-5.7,3.4-6.8.9-1.1,2-2.7,2.4-3.5.3-.8,2.2-3.5,4.1-6s3.9-5.5,4.5-6.8c1-2.3,6.8-11.2,7.9-12.2,1.9-1.7,5.1-9.3,4.6-10.9s-5.3-3.5-7.4-2.9c-.3.1-2.4.3-4.5.5Z"/>
  <path class="cls-1" d="M703.6,14.91c-4.8,1.2-19,8.6-22,11.5-14.3,13.9-20.8,32.1-17.6,49.4,1.1,6.3,6,19,8.5,22,3.8,4.7,12,12.3,15.6,14.6,8.6,5.4,22.8,8.9,33,8.1,5.7-.5,17.2-4.1,19.9-6.2.8-.7,2.9-2,4.6-2.8,4.4-2.2,13.8-12,16.9-17.5,5.1-9,7.5-18.2,7.5-28.4,0-7.1-.4-10.1-1.8-12.8-1.1-1.9-2.2-4.7-2.6-6.2-1-4.3-6.4-11.8-13.8-19-5.7-5.5-8.2-7.2-15.1-9.9-7-2.7-9.7-3.2-18.7-3.5-5.8-.2-12.3.1-14.4.7ZM729.6,32.31c3,1.4,5.8,2.5,6.2,2.5,1.3,0,8.3,8.3,12,14.4,3.6,5.9,3.7,6.5,4,16.8l.4,10.7-3.8,7.3c-5.8,11.1-12.9,16.8-24.5,19.4-6.5,1.5-7.5,1.5-14.2-.1-4-1-7.9-2.3-8.7-3.1-.8-.7-2.7-1.7-4.2-2.3-1.4-.5-4.9-3.7-7.6-7-7.5-8.9-10.2-19.3-8.1-30.2,2.4-12.5,9.9-22.6,20.9-28.1,7.7-3.9,19.5-4,27.6-.3Z"/>
  <path class="cls-1" d="M390,169.81c-2.5,1-5.8,1.9-7.4,1.9-6.4.2-22.3,12.5-27.1,21.1-6,10.9-6.8,13.9-7.3,28.1-.4,13.3-.3,13.8,2.7,21.3,3.9,9.8,7.7,15.2,14.6,21.1,12,10.3,27,14.1,44.5,11.3,10.1-1.7,19.2-5.8,19.8-9.1.2-1-.6-3.8-1.8-6.2-2.6-5.4-4.4-5.7-13.9-1.9-5.8,2.3-7.5,2.6-15.5,2.2-14.5-.8-21.6-5.3-29.2-18.7-3.6-6.3-3.7-6.7-3.7-17.5-.1-10.1.2-11.6,2.6-16.7,3.1-6.4,10.8-14.6,17.2-18.4,3.8-2.2,5.5-2.5,13.8-2.5s10.2.3,14.6,2.6c6.2,3.2,9.1,2.7,12-2.1,3.9-6.7,3.8-7.7-1.7-11.3-2.8-1.8-6-3.2-7.3-3.2s-5.3-.9-8.7-2c-7.8-2.5-12.4-2.5-18.2,0Z"/>
  <path class="cls-1" d="M495,168.91c-1.4.6-5.4,1.7-8.9,2.5-3.6.8-7.5,2.4-8.9,3.5-1.4,1-3.1,1.9-3.8,1.9-1.1,0-13.7,12-17.4,16.7-3.6,4.6-6.8,13.2-7.9,21.6-1.6,11.7.6,24.3,5.6,32.9,4.6,7.8,13.4,17.2,18.9,20,2.5,1.3,6,3.1,7.9,4,5.5,2.9,20.2,4.3,29.2,2.8,7.8-1.2,18.8-5.8,22.8-9.5,1.2-1.1,4-3.6,6.2-5.6,6.8-6.1,11-13.4,14.4-24.8.6-1.8.9-8.4.7-14.5-.3-10.8-1-13.7-5.1-21.1-.6-1.1-1.8-3.3-2.6-4.9-4.3-7.9-22.7-22.5-28.4-22.6-1.5,0-5.3-.9-8.4-2-6.2-2.2-10.4-2.4-14.3-.9ZM516.4,188.81c7.3,4.2,13.5,10.5,17.1,17.3,2.8,5.5,3,6.5,2.9,17-.1,10.3-.3,11.6-2.9,16.5-3.7,7.1-10.6,13.8-17.4,17-4.8,2.2-7,2.6-15.1,2.7-11.7,0-16.6-1.9-24.2-9.8-7.5-7.6-7.9-8.3-10.5-15.6-2.6-7.7-2.9-13.5-.9-18.8.8-2.1,1.7-5,2-6.5,1.2-5.6,10.2-16.4,15.6-18.8,1.4-.6,3.6-1.7,5-2.5,1.7-1,5.7-1.5,12.8-1.5,9.5,0,10.6.2,15.6,3Z"/>
  <path class="cls-1" d="M815.7,170.81c-1.4,1.1-2.9,3.5-3.3,5.3-.6,3-2.2,6.8-8,19.2-1.3,2.8-2.4,5.5-2.4,6,0,.6-.9,2.8-1.9,5-1.1,2.2-3.1,6.9-4.6,10.5-1.4,3.6-3.4,8.3-4.5,10.5s-3.1,6.9-4.5,10.5c-1.5,3.6-3.5,8.3-4.5,10.5s-2.2,5.1-2.6,6.5-1.5,4.1-2.5,6c-1.1,1.9-1.9,4-1.9,4.7,0,.8-.5,2.2-1.2,3.2-1.7,2.7-.4,4.8,3.4,5.5,5.4,1,9.8-.3,11.1-3.3.6-1.4,1.9-3.7,2.8-5.1s2-4,2.4-5.7c.3-1.8,2.2-4.9,4.1-6.8l3.4-3.6,16.2.6c16.2.5,16.3.5,18.5,3.3,1.2,1.5,3,4.9,3.9,7.7,4.2,12.4,5.2,13.3,16.1,13.4,4.3,0,5.5-.4,6.4-2.1.9-1.6.7-2.4-.9-4.1-1.1-1.2-2.3-3.8-2.7-5.7s-1.6-4.9-2.6-6.6-1.9-3.7-1.9-4.5c0-.7-.8-3.1-1.9-5.3-6.1-13.3-8.1-17.9-8.1-19,0-.6-.9-2.9-2-5.1s-3.3-7.4-5-11.5-4-9.3-5-11.6c-1.1-2.3-2-4.5-2-4.9s-.6-2.1-1.4-3.8c-4.6-10.3-7.6-17.5-8.1-19.5-.8-2.7-1.5-2.8-4.8-.2ZM821.1,213.41c.9,2.7,2.9,8,4.4,11.8,3.8,9.3,3.2,10-7.6,10.4-11.8.4-13.2-.1-12.4-4.1.4-1.8,1.7-5.5,3-8.2,1.3-2.8,2.8-6.9,3.5-9.2,2-7.7,6.5-8,9.1-.7Z"/>
  <path class="cls-1" d="M578,171.71c-1.4,2.8-1.1,99.8.4,101,2.3,1.8,10.6,2.3,13.1.7,2.2-1.5,2.3-1.9,2-12.8-.6-19.7-.7-50-.1-50.5,1.6-1.7,7,2,16.4,11.2,5.9,5.8,11.5,10.8,12.5,11.1.9.3,1.7.9,1.7,1.4s2.5,3.3,5.6,6.2c3.2,2.9,12,11.5,19.7,19.1s14.9,14.3,16,14.9c4.6,2.4,4.7.8,4.7-50.7,0-41-.2-48.4-1.5-50.2-2.1-3-8.4-3.9-12.4-1.8l-3.1,1.6.1,30.2v31.4c-.1.7-1.2,1.3-2.4,1.3-1.8,0-10.7-8.2-34.3-31.6-17.5-17.4-33.1-32.2-34.6-33-2.5-1.3-2.8-1.2-3.8.5Z"/>
  <path class="cls-1" d="M698.5,170.61c-2.7.2-5.5.8-6.2,1.4-1.7,1.3-1.7,11-.1,12.6.8.8,4.8,1.2,11.4,1.2,8,0,10.6.3,11.8,1.6,1.4,1.4,1.6,6.7,1.6,43.5v41.9l2.8,1.1c3.2,1.3,12.3.3,13.4-1.4.4-.7.8-19.9.8-42.8,0-30.9.3-41.8,1.2-42.7.8-.8,5.1-1.2,12.9-1.2,9.7,0,11.8-.3,12.3-1.6.9-2.3.7-10.7-.3-12.2-.7-1.1-6.6-1.4-28.7-1.6-15.4-.1-30.1,0-32.9.2Z"/>
  <path class="cls-1" d="M888,170.81c-2,.3-4.1,1-4.8,1.4-1.8,1.1-1.7,100.1.1,101.3,2,1.3,32.8,1.6,40.7.4,9.4-1.5,16.3-5.2,21.6-11.7,3.6-4.5,4.2-6,4.8-11.5.8-7.6-.4-15.1-3-18.2-1-1.2-4.2-4.5-7.2-7.3l-5.4-5.1,3-3.4c5.8-6.6,7.6-11.5,7.6-20.5,0-6.1-.4-8.8-1.6-10.1-.8-1-2.3-3.2-3.2-5-.9-1.7-2.6-3.5-3.8-3.8-1.3-.4-3.3-1.7-4.6-2.8-1.4-1.3-4.4-2.4-8.5-2.9-8.4-1.1-31.4-1.7-35.7-.8ZM922.7,189.21c3.8,2.6,4.3,3.4,4.8,8,.8,6.3-1,12.2-4.6,14.8-2.1,1.6-4.4,2-11.8,2-5.4.1-9.6-.3-10.3-1-1.3-1.3-1.6-24.1-.4-26.1.6-.9,3.2-1.2,9.5-.9,7.4.3,9.2.8,12.8,3.2ZM922.8,232.41c1.7.3,3.2.9,3.2,1.4s1.2,1.5,2.7,2.2c1.8.9,3.1,2.8,4.1,5.6,1.3,3.9,1.3,4.8-.3,8.3-1,2.2-3.2,4.7-5.2,5.9-4.1,2.4-14.1,4.2-21.3,3.8l-5.5-.3-.5-4.5c-.3-2.5-.4-8.6-.2-13.7l.4-9.2,4.1-.4c4.3-.4,12.7,0,18.5.9Z"/>
  <path class="cls-1" d="M978.5,170.51c-1.6.2-3.6,1.2-4.2,2.1-1,1.2-1.3,13-1.3,50.9,0,46.4.1,49.3,1.8,50.2,1,.5,14.6,1,31.8,1,35.4.1,34.9.2,34.9-7.9s-.4-8-26.6-8c-20.3,0-21.7-.1-23.7-2-2.2-2.1-2.2-2.2-2.2-43v-40.9l-2.2-1.5c-2.3-1.6-2.7-1.7-8.3-.9Z"/>
  <path class="cls-1" d="M1066.1,171.51c-1.4,1-1.6,6.2-1.8,49.5-.1,36.4.1,49,1,50.9l1.3,2.4,32.7.1c37.8.1,36.5.5,35.4-8.6-.3-2.8-.9-5.5-1.2-6-.4-.6-10.2-1-24.9-1-22.3,0-24.4-.2-25.9-1.8-1.4-1.5-1.7-4-1.7-13,0-10,.2-11.2,1.9-12.2,1.2-.6,9.9-1,21.4-1,20.7,0,21.2-.1,23.1-5.4.9-2.7-1.2-9.4-3.4-10.6-1.1-.6-10.1-1-21.4-1-18.3,0-19.6-.1-20.6-1.9-.5-1.1-1-6.7-1-12.5,0-8.2.3-10.8,1.6-12,1.3-1.4,5-1.6,24.4-1.6,12.6,0,23.5-.3,24.4-.6,2.3-.9,2.3-11.6,0-13.5-2.2-1.8-62.8-2-65.3-.2Z"/>
</svg>