<?xml version="1.0" encoding="UTF-8"?>
<svg id="New_Layer" data-name="New Layer" xmlns="http://www.w3.org/2000/svg" viewBox="0 0 1389.53 645.44">
  <defs>
    <style>
      .cls-1 {
        fill: #080405;
        fill-rule: evenodd;
        stroke-width: 0px;
      }
    </style>
  </defs>
  <path class="cls-1" d="M536.94,1.3c-75.14,14.49-148.85,59.67-201.31,124.03-26.58,32.39-55.64,78.43-68.4,108.26l-8.51,20.46,7.8,2.13c13.11,3.41,89.31,19.18,92.5,19.18,1.77,0,0-4.69-3.54-10.23s-16.66-25.57-28.71-44.75c-12.4-19.18-21.97-35.8-20.91-37.08.71-.85,28.35,14.49,60.96,34.95l59.19,36.66,37.92-1.28c28.35-1.28,39.69,0,45.72,4.69,7.8,5.97,8.86,5.54,17.01-6.39,4.96-7.25,7.44-15.34,6.38-19.18-1.42-3.41-3.19-11.08-4.25-16.62-1.42-8.95-.71-9.8,4.96-7.25,13.47,6.82,19.14,7.67,19.14,2.98,0-7.67-17.01-14.07-25.16-8.95-7.44,5.11-12.4,22.16-8.51,29.84,1.77,3.41.35,4.69-3.9,3.41-9.21-2.13-22.68-32.82-25.16-57.97-2.48-26.43,7.44-54.98,23.75-69.05l11.7-10.23-2.48,10.66c-6.38,28.13-6.38,32.82,1.06,41.77,9.57,11.51,19.85,11.51,30.13-.85,8.51-10.23,15.24-34.95,22.68-81.41,6.73-41.34,9.57-39.21,18.78,14.49,3.54,21.74,9.21,45.61,12.76,54.13,15.24,39.21,52.45,20.46,40.4-20.46-4.96-17.48-3.54-18.75,7.8-8.1,12.4,11.51,23.75,41.77,23.75,62.23,0,17.48-10.63,49.44-20.2,62.23-7.09,9.38-12.05,9.8-9.57,1.28,3.54-10.66-1.77-27.71-9.92-31.54-9.92-4.26-19.49-1.28-21.97,6.39-1.77,5.11.35,5.97,10.99,3.41,13.47-2.98,13.82-2.13,6.73,19.61-1.06,3.41,1.77,11.93,6.73,18.75,7.8,11.93,8.86,12.36,18.43,6.82,7.09-4.26,20.56-5.54,45.72-4.69l35.8,1.28,59.54-36.66c32.96-20.03,60.25-35.8,61.31-34.52.71.85-11.34,21.31-26.94,45.61-15.59,23.87-28,44.33-27.64,44.75.71.85,23.04-2.98,49.62-8.1,55.64-11.08,54.58-9.38,33.32-51.57-38.28-75.44-99.59-142.36-163.39-178.17C685.09,11.95,647.52,1.72,595.42.44c-26.23-.85-52.45-.43-58.48.85Z"/>
  <path class="cls-1" d="M249.86,275.36c-5.32,10.23-19.14,65.21-17.37,68.62,2.48,4.69,121.92,5.11,121.92.43,0-2.13-8.51-9.38-18.43-15.77-10.28-6.82-31.9-22.59-47.85-34.95-29.77-23.44-34.38-25.57-38.28-18.33Z"/>
  <path class="cls-1" d="M882.14,293.69c-16.3,12.36-38.28,28.13-48.2,34.95-10.28,6.39-18.78,13.64-18.78,15.77,0,1.7,27.29,3.41,60.61,3.41h60.96l-2.48-16.2c-2.48-18.75-15.95-60.53-19.49-60.53-1.42,0-15.95,10.23-32.61,22.59Z"/>
  <path class="cls-1" d="M6.03,364.02c-5.32,6.82-6.03,22.59-6.03,135.54,0,103.57,1.06,129.57,4.96,136.39,4.96,7.67,12.4,8.1,282.47,9.38,152.4.43,278.57-.43,279.99-2.13,3.54-4.26-8.15-47.31-16.3-62.66-5.32-9.8-7.8-11.08-18.78-8.52-12.05,2.98-12.4,2.56-9.92-8.95,6.73-32.82,7.09-37.93,1.06-34.95-8.15,3.84-7.44-.85,2.84-27.71,8.86-22.59,10.63-43.48,5.32-63.08-2.84-10.23-2.84-9.8-3.19,2.98-.35,7.67-2.13,14.07-4.25,14.07-2.84,0-3.19,5.54-1.77,16.2l2.13,16.62-21.62,7.25c-15.95,5.11-25.87,11.93-38.99,26.85l-17.37,19.61v-18.75c0-10.23,1.42-24.72,3.19-32.39,4.25-17.9,1.42-20.03-10.99-9.38-5.67,5.11-10.99,8.1-11.7,7.25s5.67-14.92,14.18-31.12c8.86-16.62,15.95-32.39,15.95-35.38s-4.96-5.11-13.11-5.54l-13.47-.43,14.18-8.1c7.8-4.26,17.01-8.1,20.2-8.1,6.03,0,20.56-15.77,20.56-22.16,0-4.69-32.96-4.26-53.16.85-14.18,3.41-18.08,2.13-36.15-8.95l-20.2-12.36h-182.17c-171.89,0-182.52.43-187.84,7.67ZM127.59,405.36v23.44h-35.44l-.71,94.62-1.06,95.05h-38.99l-1.06-95.05-.71-94.62h-17.37c-14.89,0-17.37-1.28-19.49-9.8-2.84-12.79-2.84-30.69.35-34.1,1.06-1.7,27.64-2.98,58.48-2.98h56v23.44ZM261.56,427.53l1.06,43.9h-19.49c-12.92,0-23.39-12.62-23.39-28.15q0-14.47-15.95-14.47h-15.95v145.35l17.01-1.28c11.7-.85,16.3-2.98,15.59-7.25-.35-2.98,0-9.38,1.06-14.07,2.13-6.82,4.96-8.1,20.56-6.82l18.43,1.28,1.06,19.18c1.06,17.9,0,20.46-14.53,37.51l-15.24,18.33-42.53-1.28-42.18-1.28-1.06-100.59-.71-100.59,15.95-17.9,15.95-17.9,41.82,1.28,41.47,1.28,1.06,43.48ZM388.09,405.36v21.31l-34.38,1.28-34.73,1.28v144.49h35.44v-16.2c0-12.36-1.77-16.62-7.8-20.03-6.38-3.41-8.15-7.67-8.15-21.31v-17.05h56.71v119.35l-56.35,1.28c-42.88.85-57.06-.43-59.54-4.26-3.19-6.82-3.9-226.76-.35-231.02,1.42-1.28,26.58-2.13,55.64-1.7l53.52,1.28v21.31Z"/>
  <path class="cls-1" d="M776.17,368.71c-20.56,11.08-25.16,11.93-42.53,8.95-10.63-2.13-26.58-3.84-35.09-3.84q-15.24-.43-10.28,8.95c3.19,5.54,15.59,14.49,28,20.46l22.68,10.66-13.11,1.28c-12.76,1.28-18.08,9.8-10.28,15.34,3.9,2.98,28.71,53.28,28.71,58.39,0,2.13-4.61,0-10.63-5.11-5.67-5.54-11.34-8.52-12.76-7.25-1.06,1.28,0,14.07,2.13,28.56,2.13,14.49,2.84,28.13,1.77,30.69-1.42,2.56-9.21-2.98-18.08-13.21-16.66-18.33-27.29-25.15-47.49-29.41-11.34-2.56-12.4-3.84-12.4-18.33,0-20.46-7.44-30.69-10.63-14.92-1.77,8.1.71,19.18,8.15,38.79,10.99,28.13,11.34,33.67,1.77,29.41-3.9-2.13-4.96-.43-3.54,5.54,1.06,4.26,3.19,15.34,4.61,23.87l2.13,16.2h-14.18c-13.47,0-14.18.85-21.62,21.31-4.25,11.51-8.51,26.85-9.57,34.1l-2.13,12.79h387.73c371.43,0,388.44-.43,393.76-7.67,4.96-6.39,6.03-17.48,6.03-61.8,0-62.66,6.38-55.41-49.26-54.56-18.43.43-34.38,1.28-35.09,2.56-1.06,1.28,0,9.8,2.48,18.75,4.96,20.89,28.35,46.03,48.91,52.85,8.86,2.56,15.24,7.67,16.3,12.36,5.32,23.87-34.73,13.64-60.96-15.77-19.14-21.31-28.71-49.02-28.71-80.98.35-49.44,33.32-96.33,72.3-102.72,25.52-4.26,26.58,14.49,1.06,23.02-18.78,5.97-40.76,27.71-47.49,46.89-2.84,8.1-4.61,15.34-3.9,15.77,1.06,1.28,56.71,2.98,76.55,2.56,7.8-.43,7.8-1.28,7.8-59.25,0-31.97-1.42-60.53-2.84-63.51-7.09-13.21-24.45-14.07-304.8-14.07l-282.47.43-23.04,11.93ZM783.26,435.63v27.28h63.79v-25.57c0-20.89,1.06-26,7.09-29.84,3.9-2.56,8.86-3.41,10.63-2.13,2.13,1.7,3.54,37.51,3.54,89.51,0,84.39-.35,87.38-7.44,92.07-4.25,2.56-8.86,2.98-10.63.85-1.42-1.7-3.54-25.57-3.9-52.43l-1.06-49.02-30.83-1.28-31.19-1.28v66.07c0,54.98-1.06,66.92-5.67,72.89-12.4,14.92-13.82,6.39-14.89-96.33-.35-54.98,0-104,1.06-109.12,1.77-8.52,10.99-14.49,17.01-11.08,1.42.85,2.48,14.07,2.48,29.41ZM979.25,409.2c15.59,7.67,33.32,32.82,38.28,54.56,2.13,10.23,3.19,36.23,2.48,58.82-1.06,36.66-2.13,42.62-11.7,59.25-24.81,44.33-73.72,50.72-105.62,14.07-19.14-21.74-21.97-32.82-21.97-86.1s3.19-65.21,20.2-83.54c20.56-22.59,53.52-29.84,78.33-17.05ZM1159.65,423.27c.71,11.51,1.77,48.16,2.48,82.26.71,58.82.35,62.66-7.44,76.72-25.16,44.75-74.78,49.87-107.03,10.66-13.82-16.62-16.3-30.26-15.95-91.64.35-50.3,2.84-65.64,10.63-67.34,4.61-.85,6.03,5.97,7.8,40.49,1.42,23.02,2.48,53.28,2.48,67.77,0,28.98,5.32,38.79,29.42,50.72,17.37,8.52,34.73,3.41,51.04-15.77l11.7-13.64v-77.57c0-76.3.71-80.98,10.99-82.26,1.42-.43,3.19,8.52,3.9,19.61ZM1254.63,411.33c1.77,4.69,3.54,9.38,3.54,10.23,0,1.28-12.05,2.98-26.94,3.84-32.25,1.7-36.86,6.82-36.86,39.64,0,27.28,5.67,34.1,30.83,37.51,32.96,4.69,43.59,19.61,43.59,63.08,0,23.87-1.06,27.28-12.05,40.49-11.7,14.07-12.76,14.49-40.05,14.49-23.39,0-29.42-1.28-34.38-8.1-10.28-13.64-3.9-17.48,28-17.48,26.58,0,30.13-.85,35.09-9.38,3.19-5.11,5.67-16.62,5.67-25.57,0-21.74-9.92-33.25-28.35-33.25-17.01,0-32.61-8.52-40.4-22.16-7.8-13.21-7.8-63.93.35-80.13,8.15-16.62,16.66-20.89,44.3-20.89,20.2-.43,24.45.85,27.64,7.67Z"/>
  <path class="cls-1" d="M926.8,432.64c-22.33,16.62-24.81,23.02-25.87,72.89-1.42,52.43,2.13,66.07,21.62,80.56,22.68,17.05,54.23,9.38,69.47-16.2,6.38-10.66,7.44-18.75,7.44-57.97,0-53.28-4.25-65.64-26.58-78.85-18.08-10.66-32.25-10.66-46.07-.43Z"/>
</svg>