<?xml version="1.0" encoding="UTF-8"?>
<svg id="MasterLayer_1" data-name="MasterLayer 1" xmlns="http://www.w3.org/2000/svg" viewBox="0 0 259.03 230.02">
  <defs>
    <style>
      .cls-1 {
        fill: #f9b749;
      }

      .cls-1, .cls-2 {
        stroke: #fff;
        stroke-miterlimit: 10;
        stroke-width: 5px;
      }

      .cls-2 {
        fill: none;
      }
    </style>
  </defs>
  <path class="cls-2" d="M37.28,227.52h190.07c19.38-5.46,31.51-22.64,28.8-40.07-2.53-16.28-17.45-29.3-36.23-31.27-.8-29.25-24.64-52.36-52.56-54.69-21.15-1.77-42.43,8.57-54.68,26.16-2.9-.68-11.95-2.46-22.17,1.31-9.46,3.49-14.39,9.68-16.06,12.01-27.17-10.13-58.63,2.19-68.75,26.52-9.98,23.98,4.23,51.38,31.59,60.05Z"/>
  <line class="cls-2" x1="56.92" y1="193.75" x2="174.26" y2="193.75"/>
  <line class="cls-2" x1="188.06" y1="193.75" x2="211.42" y2="193.75"/>
  <polygon class="cls-1" points="83.74 25.15 202 25.15 176.17 57.84 202 89 83.74 89 83.74 25.15"/>
  <line class="cls-2" x1="80.82" y1="19.68" x2="80.82" y2="189.47"/>
  <ellipse class="cls-2" cx="80.82" cy="11.95" rx="10.55" ry="9.45"/>
</svg>