<?xml version="1.0" encoding="UTF-8"?>
<!DOCTYPE svg PUBLIC "-//W3C//DTD SVG 1.1//EN" "http://www.w3.org/Graphics/SVG/1.1/DTD/svg11.dtd">
<!-- Creator: CorelDRAW -->
<svg xmlns="http://www.w3.org/2000/svg" xml:space="preserve" width="1.70666in" height="1.70666in" version="1.1" style="shape-rendering:geometricPrecision; text-rendering:geometricPrecision; image-rendering:optimizeQuality; fill-rule:evenodd; clip-rule:evenodd"
viewBox="0 0 1707 1707"
 xmlns:xlink="http://www.w3.org/1999/xlink">
 <defs>
  <style type="text/css">
   <![CDATA[
    .fil0 {fill:#000002}
   ]]>
  </style>
 </defs>
 <g id="Layer_x0020_1">
  <metadata id="CorelCorpID_0Corel-Layer"/>
  <g id="_294306064">
   <g>
    <g>
     <g>
      <g>
       <path class="fil0" d="M775 885l-717 0c-13,0 -23,-11 -23,-23l0 -158c0,-100 81,-181 181,-181l66 0c5,0 10,2 14,5l119 95 122 -95c4,-3 9,-5 14,-5l66 0c100,0 181,81 181,181l0 158c0,12 -10,23 -23,23zm-695 -46l672 0 0 -135c0,-75 -60,-136 -135,-136l-58 0 -130 102c-9,6 -20,6 -29,0l-126 -102 -58 0c-75,0 -136,61 -136,136l0 135z"/>
      </g>
      <g>
       <g>
        <path class="fil0" d="M414 516c-96,0 -194,-70 -195,-225 0,-5 -2,-125 115,-191 10,-6 20,-9 29,-9 27,0 43,19 59,38 18,22 36,43 71,43 12,0 25,-2 39,-7 5,-1 10,-2 15,-2 50,0 66,78 71,125 8,78 -22,130 -49,160 -38,42 -96,68 -155,68zm-51 -380c-1,0 -3,1 -7,3 -93,53 -92,150 -92,151 2,133 82,180 150,180 46,0 91,-19 121,-53 30,-32 43,-76 38,-124 -5,-48 -19,-81 -27,-85 -19,7 -37,10 -53,10 -56,0 -85,-35 -106,-60 -8,-9 -18,-22 -24,-22z"/>
       </g>
       <g>
        <path class="fil0" d="M595 313c-2,0 -5,0 -7,-1 -12,-4 -18,-17 -14,-29 27,-79 17,-155 -28,-200 -41,-41 -105,-49 -179,-22 -5,2 -11,1 -16,-1 -25,-10 -48,-3 -68,21 -41,48 -52,140 -23,186 7,10 4,24 -7,31 -10,7 -24,3 -31,-7 -44,-70 -22,-182 26,-239 31,-37 71,-50 112,-37 87,-28 166,-16 218,36 57,57 72,152 39,247 -4,10 -12,15 -22,15z"/>
       </g>
      </g>
      <g>
       <path class="fil0" d="M282 568c-2,0 -4,0 -6,0 -12,-4 -19,-16 -16,-28l25 -91c3,-12 15,-20 27,-16 12,3 20,15 16,27l-24 92c-3,10 -12,16 -22,16z"/>
      </g>
      <g>
       <path class="fil0" d="M551 568c-10,0 -20,-6 -22,-16l-24 -90c-4,-12 4,-25 16,-28 12,-3 24,4 28,16l24 90c3,12 -4,24 -16,28 -2,0 -4,0 -6,0z"/>
      </g>
      <g>
       <g>
        <path class="fil0" d="M191 885c-12,0 -22,-11 -22,-23l0 -108c0,-12 10,-23 22,-23 13,0 23,11 23,23l0 108c0,12 -10,23 -23,23z"/>
       </g>
       <g>
        <path class="fil0" d="M641 885c-12,0 -22,-11 -22,-23l0 -108c0,-12 10,-23 22,-23 13,0 23,11 23,23l0 108c0,12 -10,23 -23,23z"/>
       </g>
      </g>
     </g>
     <g>
      <g>
       <path class="fil0" d="M1649 885l-717 0c-13,0 -23,-11 -23,-23l0 -158c0,-100 81,-181 181,-181l66 0c5,0 10,2 14,5l119 95 122 -95c4,-3 9,-5 14,-5l66 0c100,0 181,81 181,181l0 158c0,12 -11,23 -23,23zm-695 -46l672 0 0 -135c0,-75 -60,-136 -135,-136l-59 0 -129 102c-9,6 -20,6 -29,0l-126 -102 -58 0c-75,0 -136,61 -136,136l0 135 0 0z"/>
      </g>
      <g>
       <g>
        <path class="fil0" d="M1288 516c-96,0 -194,-70 -195,-225 0,-5 -2,-125 115,-191 10,-6 20,-9 29,-9 27,0 43,19 59,38 18,22 36,43 71,43 12,0 25,-2 39,-7 5,-1 10,-2 14,-2 51,0 67,78 72,125 8,78 -22,130 -49,160 -38,42 -96,68 -155,68zm-51 -380c-1,0 -3,1 -7,3 -93,53 -92,147 -92,151 1,133 82,180 150,180 46,0 91,-19 121,-53 30,-32 43,-76 38,-124 -5,-48 -19,-81 -27,-85 -19,7 -37,10 -53,10 -56,0 -85,-35 -106,-60 -8,-9 -19,-22 -24,-22z"/>
       </g>
       <g>
        <path class="fil0" d="M1469 313c-2,0 -5,0 -7,-1 -12,-4 -18,-17 -14,-29 27,-79 17,-155 -28,-200 -41,-41 -105,-49 -179,-22 -5,2 -11,1 -16,-1 -25,-10 -48,-3 -68,21 -41,48 -52,140 -23,186 7,10 4,24 -7,31 -10,7 -24,3 -31,-7 -45,-70 -22,-182 26,-239 31,-37 71,-50 112,-37 87,-29 166,-16 218,36 57,57 72,152 39,247 -4,10 -12,15 -22,15z"/>
       </g>
      </g>
      <g>
       <path class="fil0" d="M1156 568c-2,0 -4,0 -6,0 -12,-4 -19,-16 -16,-28l24 -91c4,-12 16,-20 28,-16 12,3 20,15 16,27l-24 92c-3,10 -12,16 -22,16z"/>
      </g>
      <g>
       <path class="fil0" d="M1425 568c-10,0 -20,-6 -22,-16l-24 -90c-4,-12 4,-25 16,-28 12,-3 24,4 27,16l25 90c3,12 -4,24 -16,28 -2,0 -4,0 -6,0z"/>
      </g>
      <g>
       <g>
        <path class="fil0" d="M1065 885c-12,0 -23,-11 -23,-23l0 -108c0,-12 11,-23 23,-23 13,0 23,11 23,23l0 108c0,12 -10,23 -23,23z"/>
       </g>
       <g>
        <path class="fil0" d="M1515 885c-12,0 -22,-11 -22,-23l0 -108c0,-12 10,-23 22,-23 13,0 23,11 23,23l0 108c0,12 -10,23 -23,23z"/>
       </g>
      </g>
     </g>
    </g>
    <g>
     <g>
      <path class="fil0" d="M591 1706c-212,0 -384,-172 -384,-383 0,-212 172,-384 384,-384 212,0 384,172 384,384 0,211 -172,383 -384,383zm0 -721c-187,0 -338,151 -338,338 0,186 151,338 338,338 187,0 338,-152 338,-338 0,-187 -151,-338 -338,-338z"/>
     </g>
     <g>
      <path class="fil0" d="M591 1706c-108,0 -212,-45 -284,-126 -8,-8 -8,-21 0,-30 72,-80 176,-126 284,-126 108,0 212,46 284,126 8,9 8,22 0,30 -72,81 -176,126 -284,126zm-236 -141c63,61 148,96 236,96 88,0 173,-35 236,-96 -63,-61 -148,-96 -236,-96 -88,0 -173,35 -236,96z"/>
     </g>
     <g>
      <path class="fil0" d="M1129 1345l-177 0c-13,0 -23,-10 -23,-22 0,-13 10,-23 23,-23l177 0c13,0 23,10 23,23 0,12 -10,22 -23,22z"/>
     </g>
     <g>
      <path class="fil0" d="M1406 1416l-277 0c-12,0 -22,-10 -22,-23l0 -140c0,-13 10,-23 22,-23l277 0c52,0 93,42 93,93 0,51 -41,93 -93,93zm-254 -46l254 0c27,0 48,-21 48,-47 0,-26 -21,-48 -48,-48l-254 0 0 95z"/>
     </g>
     <g>
      <path class="fil0" d="M591 1374c-82,0 -149,-67 -149,-149 0,-82 67,-148 149,-148 82,0 149,66 149,148 0,82 -67,149 -149,149zm0 -252c-57,0 -103,47 -103,103 0,57 46,104 103,104 57,0 103,-47 103,-104 0,-57 -46,-103 -103,-103z"/>
     </g>
    </g>
   </g>
  </g>
 </g>
</svg>
