<?xml version="1.0" encoding="UTF-8"?>
<svg id="MasterLayer_1" data-name="MasterLayer 1" xmlns="http://www.w3.org/2000/svg" viewBox="0 0 267.98 389.6">
  <defs>
    <style>
      .cls-1 {
        fill: #f9b749;
        stroke-width: 0px;
      }

      .cls-2 {
        fill: none;
        stroke: #fff;
        stroke-miterlimit: 10;
        stroke-width: 3px;
      }
    </style>
  </defs>
  <path class="cls-2" d="M80.74,366.99c5.52,6.1,10.21,12.81,8.22,16.8-6.71,13.44-87.61-7.37-87.46-24.6.05-5.84,9.4-11.05,22.89-15.6l65.03-156.02c-8.26-3.51-12.21-12.6-9.86-19.8,2.71-8.31,13.52-13.24,22.89-8.4,12.39,4.47,24.78,8.93,37.17,13.4,2.57,3.93,5.97,10.36,3.91,16-2.74,7.53-13.7,9.62-15.85,10.2-11.97,3.24-28.46,35.26-46.96,168.02Z"/>
  <path class="cls-2" d="M159.98,348.79c-28.98-2.72-46.08,4.23-55.57-6-7.97-8.59-10.93-29.71,18.78-88.01-.91-19.07-1.83-38.14-2.74-57.21-1.54-14.69,9.57-25.52,19.17-24.8,7.78.58,15.58,8.83,16.44,20,2.09,22.4,4.17,44.8,6.26,67.21,23.9,8.29,43.52,16.23,57.91,22.4,32.11,13.76,39.51,19.24,43.44,28.4,6.96,16.24-.94,34.75-3.52,40.8-6.14,14.38-15.8,23.07-21.13,27.2-17.06-11.77-44.11-26.73-79.05-30Z"/>
  <path class="cls-2" d="M41.22,194.78c7.7-5.27,18.09.45,33.26,8.8,10.92,6.01,21.59,11.89,21.52,20.6-.04,5.34-4.12,10.77-9,13-6.76,3.1-10.92-1.85-29.15-6.6-14-3.65-17.19-2.21-20.54-6.2-6.3-7.52-4.43-23.88,3.91-29.6Z"/>
  <path class="cls-2" d="M31.04,228.58c2.07-1.52,5.61-2.63,18.27,1.03,14.75,4.27,36.2,10.47,37.5,23.97.67,6.95-3.85,15.26-9.98,17.4-6.69,2.34-10.36-4.38-27.6-10.77-12.73-4.72-16.82-3.31-20.33-8.23-4.81-6.73-4-18.9,2.15-23.4Z"/>
  <path class="cls-2" d="M23.81,261.38c7.6-8.21,25.45-.26,35.02,4,10.42,4.64,22.74,10.13,23.48,20.2.45,6.16-3.48,13.35-9.2,15.8-6.57,2.81-10.25-2.89-30.52-10.4-12.36-4.58-16.26-4.41-19.37-9.2-3.86-5.93-3.94-15.51.59-20.4Z"/>
  <path class="cls-2" d="M21.85,291.79c6.93-4.77,15.37-1.68,25.44,2,9.74,3.56,24.33,8.9,25.63,20.4.81,7.22-3.77,15.45-10.21,18.4-3.85,1.77-6.37.73-22.66-3.6-18.99-5.04-20.91-5.05-23.09-8-5.74-7.77-3.84-23.2,4.89-29.2Z"/>
  <polygon class="cls-1" points="179.51 188.78 136.95 139.15 72.84 146.85 105.86 90.14 78.88 30.18 141.84 44.76 189.28 0 195.18 65.72 251.48 98.02 192.16 124.06 179.51 188.78"/>
</svg>