<?xml version="1.0" encoding="UTF-8"?>
<svg id="MasterLayer_1" data-name="MasterLayer 1" xmlns="http://www.w3.org/2000/svg" viewBox="0 0 294.88 351.77">
  <defs>
    <style>
      .cls-1 {
        fill: #f5b856;
        stroke-width: 0px;
      }

      .cls-2 {
        fill: none;
        stroke: #fff;
        stroke-miterlimit: 10;
        stroke-width: 2px;
      }
    </style>
  </defs>
  <path class="cls-2" d="M26.04,345.48c7.06-6.88,57.32-54.25,131.66-46.99,59.59,5.82,95.88,42.97,104.76,52.6"/>
  <path class="cls-2" d="M107.08,284.47h26.54c3.46-38.18,8.85-83.11,15.4-83.11s11.93,44.93,15.4,83.11h21.77c-5.04-24.22-9.02-53.1-9.56-85.74-.31-18.81.57-36.25,2.12-52.08,6.05.3,18.56.07,31.85-6.84,8.33-4.33,14.03-9.75,17.52-13.68.91-15.96,1.82-31.93,2.74-47.89.17-8.05-5.96-13.79-11.23-13.65-5.65.15-11.85,7.08-10.2,15.71-.67,10.37-1.34,20.74-2.01,31.11-7.89,3.78-14.07,6.9-18.05,8.94-7.81,4.01-10.71,5.68-14.98,5.46-5.99-.31-10.51-4.13-12.99-6.69-2.44-2.36-8.02-7.06-15.02-6.66-6.45.37-11.45,4.45-13.8,7.89-16.57,24.24-29.47,36.61-33.45,35.24-2.84-.98-.6-9.62-2.65-28.93-1.19-11.21-2.51-22.77-6.9-23.67-4.06-.83-10.54,7.36-10.62,10.52-.45,18.04-.9,36.09-1.35,54.13.12,5.58,3.59,10.57,8.78,12.67,5.92,2.39,12.61-1.53,15.4-3.16,12.53-7.32,15.03-19.51,17.52-18.94,4.43,1.03-1.16,40.09-2.12,46.82-2.8,19.67-6.43,46.7-10.09,79.43Z"/>
  <ellipse class="cls-2" cx="150.48" cy="72.87" rx="29.07" ry="28.8"/>
  <ellipse class="cls-1" cx="200.97" cy="24.39" rx="24.61" ry="24.39"/>
  <path class="cls-2" d="M169.01,34.57c18.54,9.71,38.46,21.25,59.15,34.97,24.69,16.37,46.15,32.96,64.54,48.67"/>
  <line class="cls-2" x1="278.55" y1="158.22" x2="278.55" y2="190.57"/>
  <line class="cls-2" x1="262.23" y1="174.4" x2="294.88" y2="174.4"/>
  <line class="cls-2" x1="10.86" y1="12.94" x2="10.86" y2="36.84"/>
  <line class="cls-2" y1="24.89" x2="21.72" y2="24.89"/>
  <line class="cls-2" x1="28.51" y1="54.46" x2="28.51" y2="86.81"/>
  <line class="cls-2" x1="12.19" y1="70.64" x2="44.84" y2="70.64"/>
  <line class="cls-2" x1="232.9" y1="187.81" x2="232.9" y2="220.16"/>
  <line class="cls-2" x1="216.57" y1="203.98" x2="249.22" y2="203.98"/>
  <line class="cls-2" x1="69.39" y1="18.96" x2="69.39" y2="51.31"/>
  <line class="cls-2" x1="53.07" y1="35.14" x2="85.71" y2="35.14"/>
  <line class="cls-2" x1="268.73" y1="209.9" x2="268.73" y2="242.25"/>
  <line class="cls-2" x1="252.41" y1="226.08" x2="285.06" y2="226.08"/>
</svg>