<?xml version="1.0" encoding="UTF-8"?>
<svg id="MasterLayer_1" data-name="MasterLayer 1" xmlns="http://www.w3.org/2000/svg" viewBox="0 0 376.88 333.78">
  <defs>
    <style>
      .cls-1 {
        stroke-width: 7px;
      }

      .cls-1, .cls-2, .cls-3, .cls-4 {
        stroke: #fff;
        stroke-miterlimit: 10;
      }

      .cls-1, .cls-3, .cls-4 {
        fill: none;
      }

      .cls-2 {
        fill: #e9b35d;
        stroke-width: 8px;
      }

      .cls-3 {
        stroke-width: 6px;
      }

      .cls-4 {
        stroke-width: 9px;
      }
    </style>
  </defs>
  <polygon class="cls-2" points="156.66 101.24 220.5 101.24 220.5 60.21 232.59 60.21 232.59 14.94 220.22 14.94 219.94 4 156.66 4 156.66 14.43 143.44 14.68 143.44 60.21 156.66 59.95 156.66 101.24"/>
  <path class="cls-4" d="M240.19,240.78c5.63,3.3,13.96,9.08,21.38,18.31,5.99,7.46,9.34,14.63,11.25,19.84v50.36H101.81v-53.41c1.75-5.54,5.66-15.1,14.62-24.42,7.05-7.32,14.55-11.73,19.69-14.24"/>
  <ellipse class="cls-4" cx="189.37" cy="180.35" rx="61.87" ry="54.77"/>
  <path class="cls-4" d="M90.76,210.77c-10.57,0-20.53-2.35-29.23-6.49"/>
  <path class="cls-4" d="M61.53,204.28c-19.43-9.24-32.64-27.39-32.64-48.28,0-30.25,27.7-54.77,61.87-54.77,17.09,0,32.56,6.13,43.75,16.04,2.49,2.2,4.77,4.6,6.81,7.15"/>
  <path class="cls-4" d="M240.22,120.16c2.04-2.55,4.32-4.94,6.81-7.15,11.2-9.91,26.67-16.04,43.75-16.04,34.17,0,61.87,24.52,61.87,54.77s-29.02,46.22-32.64,48.28c-18.2,10.36-36.63,10.16-43.83,9.73"/>
  <polyline class="cls-4" points="146.25 254.26 189.94 312.24 232.5 254.26"/>
  <path class="cls-4" d="M296.44,302.83h75.94v-51.88c-1.49-5.99-5.11-16.65-14.63-26.96-5.88-6.37-12.13-10.57-16.87-13.23"/>
  <path class="cls-4" d="M80.44,300.29H4.5v-51.88c1.49-5.99,5.11-16.65,14.63-26.96,5.88-6.37,12.13-10.57,16.87-13.23"/>
  <line class="cls-1" x1="156.66" y1="80.04" x2="220.5" y2="80.04"/>
  <line class="cls-4" x1="187.59" y1="43.93" x2="187.59" y2="82.82"/>
  <ellipse class="cls-3" cx="187.59" cy="33.37" rx="15.61" ry="14.12"/>
</svg>